<?xml version="1.0" encoding="UTF-8" standalone="no"?>
<!-- Created with Inkscape (http://www.inkscape.org/) -->

<svg
   width="284.95773mm"
   height="184.02101mm"
   viewBox="0 0 284.95773 184.02101"
   version="1.1"
   id="svg5"
   inkscape:version="1.1.2 (0a00cf5339, 2022-02-04)"
   sodipodi:docname="certificate.svg"
   xmlns:inkscape="http://www.inkscape.org/namespaces/inkscape"
   xmlns:sodipodi="http://sodipodi.sourceforge.net/DTD/sodipodi-0.dtd"
   xmlns="http://www.w3.org/2000/svg"
   xmlns:svg="http://www.w3.org/2000/svg"
   xmlns:rdf="http://www.w3.org/1999/02/22-rdf-syntax-ns#"
   xmlns:cc="http://creativecommons.org/ns#">
  <sodipodi:namedview
     id="namedview7"
     pagecolor="#ffffff"
     bordercolor="#666666"
     borderopacity="1.0"
     inkscape:pageshadow="2"
     inkscape:pageopacity="0.0"
     inkscape:pagecheckerboard="0"
     inkscape:document-units="mm"
     showgrid="false"
     fit-margin-top="0"
     fit-margin-left="0"
     fit-margin-right="0"
     fit-margin-bottom="0"
     inkscape:zoom="0.66368547"
     inkscape:cx="520.57792"
     inkscape:cy="329.22221"
     inkscape:window-width="1920"
     inkscape:window-height="995"
     inkscape:window-x="0"
     inkscape:window-y="0"
     inkscape:window-maximized="1"
     inkscape:current-layer="layer1" />
  <defs
     id="defs2">
    <rect
       x="92.146435"
       y="294.56136"
       width="914.93718"
       height="70.410576"
       id="rect6718" />
    <rect
       x="-364.25977"
       y="616.19104"
       width="1022.8513"
       height="271.60718"
       id="rect18039" />
    <rect
       x="-368.34442"
       y="263.14941"
       width="1026.9655"
       height="254.26201"
       id="rect7355" />
  </defs>
  <g
     inkscape:label="Layer 1"
     inkscape:groupmode="layer"
     id="layer1"
     transform="translate(103.34112,-61.285839)">
    <path
       id="rect31"
       style="fill:#00ffff;fill-rule:evenodd;stroke-width:0.264583"
       d="M -103.34112,61.285839 H 181.61662 V 245.30685 h -284.95774 z" />
    <path
       id="rect201"
       style="fill:#ffffff;stroke-width:0.264583"
       d="M -97.457794,69.624947 H 174.25235 V 234.89661 H -97.457794 Z" />
    <g
       aria-label="This is to certify that"
       transform="scale(0.26458333)"
       id="text7353"
       style="font-size:100px;line-height:1.25;white-space:pre;shape-inside:url(#rect7355)">
      <path
         d="m -253.7627,278.72461 h 61.66993 v 8.30078 h -25.87891 V 351.625 h -9.91211 v -64.59961 h -25.87891 z"
         style="text-align:center;text-anchor:middle"
         id="path273" />
      <path
         d="M -137.50293,318.61719 V 351.625 h -8.98437 v -32.71484 q 0,-7.76368 -3.02735,-11.6211 -3.02734,-3.85742 -9.08203,-3.85742 -7.27539,0 -11.47461,4.63867 -4.19922,4.63867 -4.19922,12.64649 v 30.9082 h -9.0332 v -75.97656 h 9.0332 v 29.78515 q 3.22266,-4.93164 7.56836,-7.37304 4.39453,-2.44141 10.10742,-2.44141 9.42383,0 14.25782,5.85938 4.83398,5.81054 4.83398,17.13867 z"
         style="text-align:center;text-anchor:middle"
         id="path275" />
      <path
         d="m -119.58301,296.9375 h 8.98438 v 54.6875 h -8.98438 z m 0,-21.28906 h 8.98438 v 11.37695 h -8.98438 z"
         style="text-align:center;text-anchor:middle"
         id="path277" />
      <path
         d="m -56.936523,298.54883 v 8.49609 q -3.808594,-1.95312 -7.910157,-2.92969 -4.101562,-0.97656 -8.496093,-0.97656 -6.689454,0 -10.058594,2.05078 -3.320313,2.05078 -3.320313,6.15235 0,3.125 2.392578,4.93164 2.392579,1.75781 9.619141,3.36914 l 3.076172,0.68359 q 9.570312,2.05078 13.574219,5.81055 4.052734,3.71094 4.052734,10.40039 0,7.61719 -6.054687,12.06055 -6.00586,4.44336 -16.552735,4.44336 -4.394531,0 -9.179687,-0.87891 -4.736328,-0.83008 -10.009766,-2.53906 v -9.27735 q 4.980469,2.58789 9.814453,3.90625 4.833985,1.26953 9.570313,1.26953 6.347656,0 9.765625,-2.14843 3.417968,-2.19727 3.417968,-6.15235 0,-3.66211 -2.490234,-5.61523 -2.441406,-1.95313 -10.791016,-3.75977 l -3.125,-0.73242 q -8.349609,-1.75781 -12.060546,-5.37109 -3.710938,-3.66211 -3.710938,-10.00977 0,-7.71484 5.46875,-11.91406 5.46875,-4.19922 15.527344,-4.19922 4.980469,0 9.375,0.73242 4.394531,0.73242 8.105469,2.19727 z"
         style="text-align:center;text-anchor:middle"
         id="path279" />
      <path
         d="m -7.9130859,296.9375 h 8.984375 v 54.6875 h -8.984375 z m 0,-21.28906 h 8.984375 v 11.37695 h -8.984375 z"
         style="text-align:center;text-anchor:middle"
         id="path281" />
      <path
         d="m 54.733398,298.54883 v 8.49609 q -3.808593,-1.95312 -7.910156,-2.92969 -4.101562,-0.97656 -8.496094,-0.97656 -6.689453,0 -10.058593,2.05078 -3.320313,2.05078 -3.320313,6.15235 0,3.125 2.392578,4.93164 2.392578,1.75781 9.619141,3.36914 l 3.076172,0.68359 q 9.570312,2.05078 13.574219,5.81055 4.052734,3.71094 4.052734,10.40039 0,7.61719 -6.054688,12.06055 -6.005859,4.44336 -16.552734,4.44336 -4.394531,0 -9.179687,-0.87891 -4.736329,-0.83008 -10.009766,-2.53906 v -9.27735 q 4.980469,2.58789 9.814453,3.90625 4.833984,1.26953 9.570313,1.26953 6.347656,0 9.765625,-2.14843 3.417968,-2.19727 3.417968,-6.15235 0,-3.66211 -2.490234,-5.61523 -2.441406,-1.95313 -10.791016,-3.75977 l -3.125,-0.73242 q -8.349609,-1.75781 -12.060547,-5.37109 -3.710937,-3.66211 -3.710937,-10.00977 0,-7.71484 5.46875,-11.91406 5.46875,-4.19922 15.527344,-4.19922 4.980468,0 9.375,0.73242 4.394531,0.73242 8.105468,2.19727 z"
         style="text-align:center;text-anchor:middle"
         id="path283" />
      <path
         d="m 112.64355,281.41016 v 15.52734 h 18.50586 v 6.98242 h -18.50586 v 29.6875 q 0,6.68945 1.80665,8.59375 1.85546,1.9043 7.4707,1.9043 h 9.22851 v 7.51953 h -9.22851 q -10.40039,0 -14.35547,-3.85742 -3.95508,-3.90625 -3.95508,-14.16016 v -29.6875 h -6.591795 v -6.98242 h 6.591795 v -15.52734 z"
         style="text-align:center;text-anchor:middle"
         id="path285" />
      <path
         d="m 164.15723,303.23633 q -7.22657,0 -11.42578,5.66406 -4.19922,5.61523 -4.19922,15.42969 0,9.81445 4.15039,15.47851 4.19922,5.61524 11.47461,5.61524 7.17773,0 11.37695,-5.66406 4.19922,-5.66407 4.19922,-15.42969 0,-9.7168 -4.19922,-15.38086 -4.19922,-5.71289 -11.37695,-5.71289 z m 0,-7.61719 q 11.71875,0 18.4082,7.61719 6.68945,7.61719 6.68945,21.09375 0,13.42773 -6.68945,21.09375 -6.68945,7.61719 -18.4082,7.61719 -11.76758,0 -18.45703,-7.61719 -6.64063,-7.66602 -6.64063,-21.09375 0,-13.47656 6.64063,-21.09375 6.68945,-7.61719 18.45703,-7.61719 z"
         style="text-align:center;text-anchor:middle"
         id="path287" />
      <path
         d="m 275.29004,299.03711 v 8.39844 q -3.80859,-2.09961 -7.66602,-3.125 -3.80859,-1.07422 -7.71484,-1.07422 -8.74023,0 -13.57422,5.5664 -4.83398,5.51758 -4.83398,15.52735 0,10.00976 4.83398,15.57617 4.83399,5.51758 13.57422,5.51758 3.90625,0 7.71484,-1.02539 3.85743,-1.07422 7.66602,-3.17383 v 8.30078 q -3.75977,1.75781 -7.8125,2.63672 -4.00391,0.87891 -8.54492,0.87891 -12.35352,0 -19.62891,-7.76368 -7.27539,-7.76367 -7.27539,-20.94726 0,-13.37891 7.32422,-21.04492 7.37305,-7.66602 20.16601,-7.66602 4.1504,0 8.10547,0.87891 3.95508,0.83007 7.66602,2.53906 z"
         style="text-align:center;text-anchor:middle"
         id="path289" />
      <path
         d="m 337.69238,322.03516 v 4.39453 h -41.30859 q 0.58594,9.27734 5.56641,14.16015 5.02929,4.83399 13.96484,4.83399 5.17578,0 10.00976,-1.26953 4.88282,-1.26953 9.66797,-3.8086 v 8.4961 q -4.83398,2.05078 -9.91211,3.125 -5.07812,1.07422 -10.30273,1.07422 -13.08594,0 -20.75195,-7.61719 -7.61719,-7.61719 -7.61719,-20.60547 0,-13.42774 7.22656,-21.28906 7.27539,-7.91016 19.58008,-7.91016 11.03516,0 17.43164,7.12891 6.44531,7.08007 6.44531,19.28711 z m -8.98437,-2.63672 q -0.0977,-7.37305 -4.15039,-11.76758 -4.00391,-4.39453 -10.64453,-4.39453 -7.51954,0 -12.06055,4.24804 -4.49219,4.24805 -5.17578,11.9629 z"
         style="text-align:center;text-anchor:middle"
         id="path291" />
      <path
         d="m 384.12793,305.33594 q -1.51367,-0.87891 -3.32031,-1.26953 -1.75782,-0.43946 -3.90625,-0.43946 -7.61719,0 -11.71875,4.98047 -4.05274,4.93164 -4.05274,14.20899 V 351.625 h -9.0332 v -54.6875 h 9.0332 v 8.49609 q 2.83203,-4.98047 7.37305,-7.37304 4.54102,-2.44141 11.03516,-2.44141 0.92773,0 2.05078,0.14648 1.12304,0.0977 2.49023,0.3418 z"
         style="text-align:center;text-anchor:middle"
         id="path293" />
      <path
         d="m 402.43848,281.41016 v 15.52734 h 18.50586 v 6.98242 h -18.50586 v 29.6875 q 0,6.68945 1.80664,8.59375 1.85547,1.9043 7.4707,1.9043 h 9.22852 v 7.51953 h -9.22852 q -10.40039,0 -14.35547,-3.85742 -3.95508,-3.90625 -3.95508,-14.16016 v -29.6875 h -6.59179 v -6.98242 h 6.59179 v -15.52734 z"
         style="text-align:center;text-anchor:middle"
         id="path295" />
      <path
         d="m 432.76074,296.9375 h 8.98438 v 54.6875 h -8.98438 z m 0,-21.28906 h 8.98438 v 11.37695 h -8.98438 z"
         style="text-align:center;text-anchor:middle"
         id="path297" />
      <path
         d="m 488.22949,275.64844 v 7.4707 h -8.59375 q -4.83398,0 -6.73828,1.95313 -1.85547,1.95312 -1.85547,7.03125 v 4.83398 h 14.79492 v 6.98242 H 471.04199 V 351.625 h -9.0332 v -47.70508 h -8.59375 v -6.98242 h 8.59375 v -3.80859 q 0,-9.13086 4.24805,-13.28125 4.24804,-4.19922 13.47656,-4.19922 z"
         style="text-align:center;text-anchor:middle"
         id="path299" />
      <path
         d="m 516.74512,356.70312 q -3.8086,9.76563 -7.42188,12.74415 -3.61328,2.97851 -9.66797,2.97851 h -7.17773 v -7.51953 h 5.27344 q 3.71093,0 5.76172,-1.75781 2.05078,-1.75782 4.54101,-8.30078 l 1.61133,-4.10157 -22.11914,-53.80859 h 9.52148 l 17.08985,42.77344 17.08984,-42.77344 h 9.52148 z"
         style="text-align:center;text-anchor:middle"
         id="path301" />
      <path
         d="m 61.911133,406.41016 v 15.52734 h 18.505859 v 6.98242 H 61.911133 v 29.6875 q 0,6.68945 1.80664,8.59375 1.855469,1.9043 7.470704,1.9043 h 9.228515 v 7.51953 h -9.228515 q -10.400391,0 -14.355469,-3.85742 -3.955078,-3.90625 -3.955078,-14.16016 v -29.6875 h -6.591797 v -6.98242 h 6.591797 v -15.52734 z"
         style="text-align:center;text-anchor:middle"
         id="path303" />
      <path
         d="M 137.69238,443.61719 V 476.625 h -8.98437 v -32.71484 q 0,-7.76368 -3.02735,-11.6211 -3.02734,-3.85742 -9.08203,-3.85742 -7.27539,0 -11.47461,4.63867 -4.19922,4.63867 -4.19922,12.64649 v 30.9082 h -9.033198 v -75.97656 h 9.033198 v 29.78515 q 3.22266,-4.93164 7.56836,-7.37304 4.39454,-2.44141 10.10743,-2.44141 9.42382,0 14.25781,5.85938 4.83398,5.81054 4.83398,17.13867 z"
         style="text-align:center;text-anchor:middle"
         id="path305" />
      <path
         d="m 180.46582,449.13477 q -10.88867,0 -15.08789,2.49023 -4.19922,2.49023 -4.19922,8.49609 0,4.78516 3.125,7.61719 3.17383,2.7832 8.59375,2.7832 7.4707,0 11.96289,-5.27343 4.54102,-5.32227 4.54102,-14.11133 v -2.00195 z m 17.91992,-3.71094 V 476.625 h -8.98437 v -8.30078 q -3.07617,4.98047 -7.66602,7.37305 -4.58984,2.34375 -11.23047,2.34375 -8.39843,0 -13.3789,-4.6875 -4.93164,-4.73633 -4.93164,-12.64649 0,-9.22851 6.15234,-13.91601 6.20117,-4.6875 18.45703,-4.6875 h 12.59766 v -0.87891 q 0,-6.20117 -4.10157,-9.57031 -4.05273,-3.41797 -11.42578,-3.41797 -4.6875,0 -9.13086,1.12304 -4.44336,1.12305 -8.54492,3.36915 v -8.30079 q 4.93164,-1.90429 9.57031,-2.83203 4.63868,-0.97656 9.03321,-0.97656 11.86523,0 17.72461,6.15234 5.85937,6.15235 5.85937,18.65235 z"
         style="text-align:center;text-anchor:middle"
         id="path307" />
      <path
         d="m 225.77832,406.41016 v 15.52734 h 18.50586 v 6.98242 h -18.50586 v 29.6875 q 0,6.68945 1.80664,8.59375 1.85547,1.9043 7.4707,1.9043 h 9.22852 v 7.51953 h -9.22852 q -10.40039,0 -14.35546,-3.85742 -3.95508,-3.90625 -3.95508,-14.16016 v -29.6875 h -6.5918 v -6.98242 h 6.5918 v -15.52734 z"
         style="text-align:center;text-anchor:middle"
         id="path309" />
    </g>
    <path
       id="rect11743"
       style="stroke-width:0.264583"
       d="M -80.930626,157.85133 H 163.11642 v 2.77815 H -80.930626 Z" />
    <g
       aria-label="... has failed the Morone Quiz on ALANHW and got rickrolled at least once."
       transform="matrix(0.26458333,0,0,0.26458333,0,4.2333335)"
       id="text18037"
       style="font-size:60px;line-height:1.25;white-space:pre;shape-inside:url(#rect18039)">
      <path
         d="m -333.43457,661.83594 h 6.18164 v 7.4414 h -6.18164 z"
         style="text-align:center;text-anchor:middle"
         id="path149" />
      <path
         d="m -314.3623,661.83594 h 6.18164 v 7.4414 h -6.18164 z"
         style="text-align:center;text-anchor:middle"
         id="path151" />
      <path
         d="m -295.29004,661.83594 h 6.18164 v 7.4414 h -6.18164 z"
         style="text-align:center;text-anchor:middle"
         id="path153" />
      <path
         d="m -230.63184,649.47266 v 19.80468 h -5.39062 v -19.6289 q 0,-4.65821 -1.81641,-6.97266 -1.8164,-2.31445 -5.44922,-2.31445 -4.36523,0 -6.88476,2.7832 -2.51953,2.7832 -2.51953,7.58789 v 18.54492 h -5.41992 v -45.58593 h 5.41992 v 17.87109 q 1.93359,-2.95898 4.54101,-4.42383 2.63672,-1.46484 6.06446,-1.46484 5.65429,0 8.55468,3.51562 2.90039,3.48633 2.90039,10.28321 z"
         style="text-align:center;text-anchor:middle"
         id="path155" />
      <path
         d="m -204.96777,652.7832 q -6.53321,0 -9.05274,1.49414 -2.51953,1.49414 -2.51953,5.09766 0,2.87109 1.875,4.57031 1.9043,1.66992 5.15625,1.66992 4.48242,0 7.17774,-3.16406 2.7246,-3.19336 2.7246,-8.4668 v -1.20117 z m 10.75195,-2.22656 v 18.7207 h -5.39063 v -4.98047 q -1.8457,2.98829 -4.5996,4.42383 -2.75391,1.40625 -6.73829,1.40625 -5.03906,0 -8.02734,-2.8125 -2.95898,-2.84179 -2.95898,-7.58789 0,-5.53711 3.6914,-8.34961 3.72071,-2.8125 11.07422,-2.8125 h 7.55859 v -0.52734 q 0,-3.7207 -2.46093,-5.74219 -2.43164,-2.05078 -6.85547,-2.05078 -2.8125,0 -5.47852,0.67383 -2.66601,0.67383 -5.12695,2.02148 v -4.98047 q 2.95898,-1.14257 5.74219,-1.69921 2.7832,-0.58594 5.41992,-0.58594 7.11914,0 10.63476,3.6914 3.51563,3.69141 3.51563,11.19141 z"
         style="text-align:center;text-anchor:middle"
         id="path157" />
      <path
         d="m -162.19434,637.43164 v 5.09766 q -2.28515,-1.17188 -4.74609,-1.75782 -2.46094,-0.58593 -5.09766,-0.58593 -4.01367,0 -6.03515,1.23047 -1.99219,1.23046 -1.99219,3.6914 0,1.875 1.43555,2.95899 1.43554,1.05468 5.77148,2.02148 l 1.8457,0.41016 q 5.74219,1.23047 8.14454,3.48632 2.43164,2.22657 2.43164,6.24024 0,4.57031 -3.63282,7.23633 -3.60351,2.66601 -9.93164,2.66601 -2.63672,0 -5.50781,-0.52734 -2.8418,-0.49805 -6.00586,-1.52344 v -5.5664 q 2.98828,1.55273 5.88867,2.34375 2.90039,0.76171 5.74219,0.76171 3.80859,0 5.85938,-1.28906 2.05078,-1.31836 2.05078,-3.6914 0,-2.19727 -1.49414,-3.36915 -1.46485,-1.17187 -6.47461,-2.25585 l -1.875,-0.43946 q -5.00977,-1.05469 -7.23633,-3.22265 -2.22656,-2.19727 -2.22656,-6.00586 0,-4.62891 3.28125,-7.14844 3.28125,-2.51953 9.3164,-2.51953 2.98828,0 5.625,0.43945 2.63672,0.43945 4.86328,1.31836 z"
         style="text-align:center;text-anchor:middle"
         id="path159" />
      <path
         d="m -116.16895,623.69141 v 4.48242 h -5.15625 q -2.90039,0 -4.04296,1.17187 -1.11329,1.17188 -1.11329,4.21875 v 2.90039 h 8.87696 v 4.18946 h -8.87696 v 28.62304 h -5.41992 V 640.6543 h -5.15625 v -4.18946 h 5.15625 v -2.28515 q 0,-5.47852 2.54883,-7.96875 2.54883,-2.51953 8.08594,-2.51953 z"
         style="text-align:center;text-anchor:middle"
         id="path161" />
      <path
         d="m -96.745117,652.7832 q -6.533203,0 -9.052733,1.49414 -2.51953,1.49414 -2.51953,5.09766 0,2.87109 1.875,4.57031 1.90429,1.66992 5.15625,1.66992 4.482419,0 7.177732,-3.16406 2.724609,-3.19336 2.724609,-8.4668 v -1.20117 z m 10.751953,-2.22656 v 18.7207 h -5.390625 v -4.98047 q -1.845703,2.98829 -4.599609,4.42383 -2.753907,1.40625 -6.738282,1.40625 -5.03906,0 -8.02734,-2.8125 -2.95899,-2.84179 -2.95899,-7.58789 0,-5.53711 3.69141,-8.34961 3.7207,-2.8125 11.074217,-2.8125 h 7.558594 v -0.52734 q 0,-3.7207 -2.460938,-5.74219 -2.43164,-2.05078 -6.855473,-2.05078 -2.8125,0 -5.47851,0.67383 -2.66602,0.67383 -5.12695,2.02148 v -4.98047 q 2.95898,-1.14257 5.74218,-1.69921 2.78321,-0.58594 5.41993,-0.58594 7.119136,0 10.634761,3.6914 3.515625,3.69141 3.515625,11.19141 z"
         style="text-align:center;text-anchor:middle"
         id="path163" />
      <path
         d="m -74.889648,636.46484 h 5.390625 v 32.8125 h -5.390625 z m 0,-12.77343 h 5.390625 v 6.82617 h -5.390625 z"
         style="text-align:center;text-anchor:middle"
         id="path165" />
      <path
         d="m -58.219727,623.69141 h 5.390625 v 45.58593 h -5.390625 z"
         style="text-align:center;text-anchor:middle"
         id="path167" />
      <path
         d="m -13.483398,651.52344 v 2.63672 h -24.785157 q 0.351563,5.5664 3.339844,8.49609 3.017578,2.90039 8.378906,2.90039 3.105469,0 6.00586,-0.76172 2.929687,-0.76172 5.800781,-2.28515 v 5.09765 q -2.900391,1.23047 -5.947266,1.875 -3.046875,0.64453 -6.18164,0.64453 -7.851563,0 -12.451172,-4.57031 -4.570313,-4.57031 -4.570313,-12.36328 0,-8.05664 4.335938,-12.77344 4.365234,-4.74609 11.748047,-4.74609 6.621093,0 10.458984,4.27734 3.867188,4.24805 3.867188,11.57227 z m -5.390625,-1.58203 q -0.05859,-4.42383 -2.490235,-7.06055 -2.402344,-2.63672 -6.386719,-2.63672 -4.511718,0 -7.236328,2.54883 -2.695312,2.54883 -3.105468,7.17773 z"
         style="text-align:center;text-anchor:middle"
         id="path169" />
      <path
         d="m 16.956055,641.44531 v -17.7539 h 5.390625 v 45.58593 h -5.390625 v -4.92187 q -1.699219,2.92969 -4.306641,4.36523 -2.578125,1.40625 -6.2109374,1.40625 -5.94726566,0 -9.6972657,-4.74609 -3.7207031,-4.74609 -3.7207031,-12.48047 0,-7.73437 3.7207031,-12.48047 3.75000004,-4.74609 9.6972657,-4.74609 3.6328124,0 6.2109374,1.43554 2.607422,1.40625 4.306641,4.33594 z m -18.3691409,11.45508 q 0,5.94727 2.4316406,9.3457 2.4609375,3.36914 6.7382812,3.36914 4.2773441,0 6.7382811,-3.36914 2.460938,-3.39843 2.460938,-9.3457 0,-5.94727 -2.460938,-9.31641 -2.460937,-3.39843 -6.7382811,-3.39843 -4.2773437,0 -6.7382812,3.39843 -2.4316406,3.36914 -2.4316406,9.31641 z"
         style="text-align:center;text-anchor:middle"
         id="path171" />
      <path
         d="m 57.854492,627.14844 v 9.3164 h 11.103516 v 4.18946 H 57.854492 v 17.8125 q 0,4.01367 1.083985,5.15625 1.113281,1.14257 4.482421,1.14257 h 5.53711 v 4.51172 h -5.53711 q -6.240234,0 -8.613281,-2.31445 -2.373047,-2.34375 -2.373047,-8.49609 v -17.8125 h -3.955078 v -4.18946 h 3.955078 v -9.3164 z"
         style="text-align:center;text-anchor:middle"
         id="path173" />
      <path
         d="m 103.32324,649.47266 v 19.80468 h -5.390623 v -19.6289 q 0,-4.65821 -1.816406,-6.97266 -1.816406,-2.31445 -5.449219,-2.31445 -4.365234,0 -6.884765,2.7832 -2.519532,2.7832 -2.519532,7.58789 v 18.54492 h -5.419922 v -45.58593 h 5.419922 v 17.87109 q 1.933594,-2.95898 4.541016,-4.42383 2.636719,-1.46484 6.064453,-1.46484 5.654297,0 8.554686,3.51562 2.90039,3.48633 2.90039,10.28321 z"
         style="text-align:center;text-anchor:middle"
         id="path175" />
      <path
         d="m 142.1416,651.52344 v 2.63672 h -24.78515 q 0.35156,5.5664 3.33984,8.49609 3.01758,2.90039 8.37891,2.90039 3.10546,0 6.00585,-0.76172 2.92969,-0.76172 5.80079,-2.28515 v 5.09765 q -2.90039,1.23047 -5.94727,1.875 -3.04687,0.64453 -6.18164,0.64453 -7.85156,0 -12.45117,-4.57031 -4.57031,-4.57031 -4.57031,-12.36328 0,-8.05664 4.33593,-12.77344 4.36524,-4.74609 11.74805,-4.74609 6.62109,0 10.45898,4.27734 3.86719,4.24805 3.86719,11.57227 z m -5.39062,-1.58203 q -0.0586,-4.42383 -2.49024,-7.06055 -2.40234,-2.63672 -6.38672,-2.63672 -4.51172,0 -7.23632,2.54883 -2.69532,2.54883 -3.10547,7.17773 z"
         style="text-align:center;text-anchor:middle"
         id="path177" />
      <path
         d="m 170.2959,625.53711 h 8.81836 l 11.16211,29.76562 11.2207,-29.76562 h 8.81836 v 43.74023 h -5.77148 v -38.4082 l -11.2793,30 h -5.94727 l -11.27929,-30 v 38.4082 h -5.74219 z"
         style="text-align:center;text-anchor:middle"
         id="path179" />
      <path
         d="m 234.54395,640.24414 q -4.33594,0 -6.85547,3.39844 -2.51953,3.36914 -2.51953,9.25781 0,5.88867 2.49023,9.28711 2.51953,3.36914 6.88477,3.36914 4.30664,0 6.82617,-3.39844 2.51953,-3.39843 2.51953,-9.25781 0,-5.83008 -2.51953,-9.22852 -2.51953,-3.42773 -6.82617,-3.42773 z m 0,-4.57031 q 7.03125,0 11.04492,4.57031 4.01367,4.57031 4.01367,12.65625 0,8.05664 -4.01367,12.65625 -4.01367,4.57031 -11.04492,4.57031 -7.06055,0 -11.07422,-4.57031 -3.98438,-4.59961 -3.98438,-12.65625 0,-8.08594 3.98438,-12.65625 4.01367,-4.57031 11.07422,-4.57031 z"
         style="text-align:center;text-anchor:middle"
         id="path181" />
      <path
         d="m 277.55176,641.50391 q -0.90821,-0.52735 -1.99219,-0.76172 -1.05469,-0.26367 -2.34375,-0.26367 -4.57031,0 -7.03125,2.98828 -2.43164,2.95898 -2.43164,8.52539 v 17.28515 h -5.41992 v -32.8125 h 5.41992 v 5.09766 q 1.69922,-2.98828 4.42383,-4.42383 2.72461,-1.46484 6.62109,-1.46484 0.55664,0 1.23047,0.0879 0.67383,0.0586 1.49414,0.20508 z"
         style="text-align:center;text-anchor:middle"
         id="path183" />
      <path
         d="m 294.60254,640.24414 q -4.33594,0 -6.85547,3.39844 -2.51953,3.36914 -2.51953,9.25781 0,5.88867 2.49023,9.28711 2.51953,3.36914 6.88477,3.36914 4.30664,0 6.82617,-3.39844 2.51953,-3.39843 2.51953,-9.25781 0,-5.83008 -2.51953,-9.22852 -2.51953,-3.42773 -6.82617,-3.42773 z m 0,-4.57031 q 7.03125,0 11.04492,4.57031 4.01367,4.57031 4.01367,12.65625 0,8.05664 -4.01367,12.65625 -4.01367,4.57031 -11.04492,4.57031 -7.06055,0 -11.07422,-4.57031 -3.98437,-4.59961 -3.98437,-12.65625 0,-8.08594 3.98437,-12.65625 4.01367,-4.57031 11.07422,-4.57031 z"
         style="text-align:center;text-anchor:middle"
         id="path185" />
      <path
         d="m 345.87207,649.47266 v 19.80468 h -5.39062 v -19.6289 q 0,-4.65821 -1.81641,-6.97266 -1.81641,-2.31445 -5.44922,-2.31445 -4.36523,0 -6.88477,2.7832 -2.51953,2.7832 -2.51953,7.58789 v 18.54492 h -5.41992 v -32.8125 h 5.41992 v 5.09766 q 1.9336,-2.95898 4.54102,-4.42383 2.63672,-1.46484 6.06445,-1.46484 5.6543,0 8.55469,3.51562 2.90039,3.48633 2.90039,10.28321 z"
         style="text-align:center;text-anchor:middle"
         id="path187" />
      <path
         d="m 384.69043,651.52344 v 2.63672 h -24.78516 q 0.35157,5.5664 3.33985,8.49609 3.01758,2.90039 8.3789,2.90039 3.10547,0 6.00586,-0.76172 2.92969,-0.76172 5.80078,-2.28515 v 5.09765 q -2.90039,1.23047 -5.94726,1.875 -3.04688,0.64453 -6.18164,0.64453 -7.85156,0 -12.45117,-4.57031 -4.57032,-4.57031 -4.57032,-12.36328 0,-8.05664 4.33594,-12.77344 4.36524,-4.74609 11.74805,-4.74609 6.62109,0 10.45898,4.27734 3.86719,4.24805 3.86719,11.57227 z m -5.39063,-1.58203 q -0.0586,-4.42383 -2.49023,-7.06055 -2.40234,-2.63672 -6.38672,-2.63672 -4.51172,0 -7.23633,2.54883 -2.69531,2.54883 -3.10547,7.17773 z"
         style="text-align:center;text-anchor:middle"
         id="path189" />
      <path
         d="m 430.59863,629.55078 q -6.44531,0 -10.2539,4.80469 -3.7793,4.80469 -3.7793,13.0957 0,8.26172 3.7793,13.06641 3.80859,4.80469 10.2539,4.80469 6.44532,0 10.19532,-4.80469 3.77929,-4.80469 3.77929,-13.06641 0,-8.29101 -3.77929,-13.0957 -3.75,-4.80469 -10.19532,-4.80469 z m 8.29102,38.93555 7.79297,8.52539 h -7.14844 l -6.47461,-7.00195 q -0.9668,0.0586 -1.49414,0.0879 -0.49805,0.0293 -0.9668,0.0293 -9.22851,0 -14.76562,-6.15234 -5.50781,-6.18164 -5.50781,-16.52344 0,-10.37109 5.50781,-16.52344 5.53711,-6.18164 14.76562,-6.18164 9.19922,0 14.70703,6.18164 5.50782,6.15235 5.50782,16.52344 0,7.61719 -3.07618,13.03711 -3.04687,5.41992 -8.84765,7.99805 z"
         style="text-align:center;text-anchor:middle"
         id="path191" />
      <path
         d="m 459.28027,656.32812 v -19.86328 h 5.39063 v 19.65821 q 0,4.6582 1.8164,7.00195 1.81641,2.31445 5.44922,2.31445 4.36524,0 6.88477,-2.7832 2.54883,-2.7832 2.54883,-7.58789 v -18.60352 h 5.39062 v 32.8125 h -5.39062 v -5.03906 q -1.96289,2.98828 -4.57032,4.45313 -2.57812,1.43554 -6.00585,1.43554 -5.6543,0 -8.58399,-3.51562 -2.92969,-3.51563 -2.92969,-10.28321 z m 13.56446,-20.65429 z"
         style="text-align:center;text-anchor:middle"
         id="path193" />
      <path
         d="m 497.86426,636.46484 h 5.39062 v 32.8125 h -5.39062 z m 0,-12.77343 h 5.39062 v 6.82617 h -5.39062 z"
         style="text-align:center;text-anchor:middle"
         id="path195" />
      <path
         d="m 512.19043,636.46484 h 25.60547 v 4.92188 l -20.27344,23.58398 h 20.27344 v 4.30664 h -26.33789 v -4.92187 l 20.27344,-23.58399 h -19.54102 z"
         style="text-align:center;text-anchor:middle"
         id="path197" />
      <path
         d="m 577.81543,640.24414 q -4.33594,0 -6.85547,3.39844 -2.51953,3.36914 -2.51953,9.25781 0,5.88867 2.49023,9.28711 2.51954,3.36914 6.88477,3.36914 4.30664,0 6.82617,-3.39844 2.51953,-3.39843 2.51953,-9.25781 0,-5.83008 -2.51953,-9.22852 -2.51953,-3.42773 -6.82617,-3.42773 z m 0,-4.57031 q 7.03125,0 11.04492,4.57031 4.01367,4.57031 4.01367,12.65625 0,8.05664 -4.01367,12.65625 -4.01367,4.57031 -11.04492,4.57031 -7.06055,0 -11.07422,-4.57031 -3.98437,-4.59961 -3.98437,-12.65625 0,-8.08594 3.98437,-12.65625 4.01367,-4.57031 11.07422,-4.57031 z"
         style="text-align:center;text-anchor:middle"
         id="path199" />
      <path
         d="m 629.08496,649.47266 v 19.80468 h -5.39062 v -19.6289 q 0,-4.65821 -1.81641,-6.97266 -1.81641,-2.31445 -5.44922,-2.31445 -4.36523,0 -6.88476,2.7832 -2.51954,2.7832 -2.51954,7.58789 v 18.54492 h -5.41992 v -32.8125 h 5.41992 v 5.09766 q 1.9336,-2.95898 4.54102,-4.42383 2.63672,-1.46484 6.06445,-1.46484 5.6543,0 8.55469,3.51562 2.90039,3.48633 2.90039,10.28321 z"
         style="text-align:center;text-anchor:middle"
         id="path201" />
      <path
         d="m -278.06348,706.36719 -8.02734,21.76758 h 16.08398 z m -3.33984,-5.83008 h 6.70898 l 16.66993,43.74023 h -6.15235 l -3.98437,-11.2207 h -19.7168 l -3.98437,11.2207 h -6.24024 z"
         style="text-align:center;text-anchor:middle"
         id="path203" />
      <path
         d="m -251.6377,700.53711 h 5.91797 v 38.75976 h 21.29883 v 4.98047 h -27.2168 z"
         style="text-align:center;text-anchor:middle"
         id="path205" />
      <path
         d="m -202.21387,706.36719 -8.02734,21.76758 h 16.08398 z m -3.33984,-5.83008 h 6.70898 l 16.66993,43.74023 h -6.15235 l -3.98437,-11.2207 h -19.7168 l -3.98438,11.2207 h -6.24023 z"
         style="text-align:center;text-anchor:middle"
         id="path207" />
      <path
         d="m -175.78809,700.53711 h 7.96875 l 19.39454,36.5918 v -36.5918 h 5.74218 v 43.74023 h -7.96875 l -19.39453,-36.59179 v 36.59179 h -5.74219 z"
         style="text-align:center;text-anchor:middle"
         id="path209" />
      <path
         d="m -130.90527,700.53711 h 5.91797 v 17.92969 h 21.5039 v -17.92969 h 5.91797 v 43.74023 h -5.91797 v -20.83007 h -21.5039 v 20.83007 h -5.91797 z"
         style="text-align:center;text-anchor:middle"
         id="path211" />
      <path
         d="m -89.68457,700.53711 h 5.976562 l 9.199219,36.97266 9.169922,-36.97266 h 6.65039 l 9.199219,36.97266 9.169922,-36.97266 h 6.005859 l -10.986328,43.74023 h -7.441406 l -9.228516,-37.96875 -9.316406,37.96875 h -7.441406 z"
         style="text-align:center;text-anchor:middle"
         id="path213" />
      <path
         d="m 7.2880859,727.7832 q -6.53320309,0 -9.0527343,1.49414 -2.5195313,1.49414 -2.5195313,5.09766 0,2.87109 1.875,4.57031 1.90429689,1.66992 5.15625,1.66992 4.4824219,0 7.1777344,-3.16406 2.7246093,-3.19336 2.7246093,-8.4668 v -1.20117 z m 10.7519531,-2.22656 v 18.7207 h -5.390625 v -4.98047 q -1.845703,2.98829 -4.5996093,4.42383 -2.7539063,1.40625 -6.7382813,1.40625 -5.0390625,0 -8.0273437,-2.8125 -2.9589844,-2.84179 -2.9589844,-7.58789 0,-5.53711 3.6914063,-8.34961 3.7207031,-2.8125 11.0742187,-2.8125 h 7.5585937 v -0.52734 q 0,-3.7207 -2.460937,-5.74219 -2.4316411,-2.05078 -6.8554692,-2.05078 -2.81249999,0 -5.4785156,0.67383 -2.6660156,0.67383 -5.1269531,2.02148 v -4.98047 q 2.9589843,-1.14257 5.7421875,-1.69921 2.7832031,-0.58594 5.4199218,-0.58594 7.1191406,0 10.6347656,3.6914 3.515625,3.69141 3.515625,11.19141 z"
         style="text-align:center;text-anchor:middle"
         id="path215" />
      <path
         d="m 56.418945,724.47266 v 19.80468 H 51.02832 v -19.6289 q 0,-4.65821 -1.816406,-6.97266 -1.816406,-2.31445 -5.449219,-2.31445 -4.365234,0 -6.884765,2.7832 -2.519532,2.7832 -2.519532,7.58789 v 18.54492 h -5.419921 v -32.8125 h 5.419921 v 5.09766 q 1.933594,-2.95898 4.541016,-4.42383 2.636719,-1.46484 6.064453,-1.46484 5.654297,0 8.554688,3.51562 2.90039,3.48633 2.90039,10.28321 z"
         style="text-align:center;text-anchor:middle"
         id="path217" />
      <path
         d="m 88.762695,716.44531 v -17.7539 h 5.390625 v 45.58593 h -5.390625 v -4.92187 q -1.699218,2.92969 -4.30664,4.36523 -2.578125,1.40625 -6.210938,1.40625 -5.947265,0 -9.697265,-4.74609 -3.720704,-4.74609 -3.720704,-12.48047 0,-7.73437 3.720704,-12.48047 3.75,-4.74609 9.697265,-4.74609 3.632813,0 6.210938,1.43554 2.607422,1.40625 4.30664,4.33594 z m -18.36914,11.45508 q 0,5.94727 2.43164,9.3457 2.460938,3.36914 6.738282,3.36914 4.277343,0 6.738281,-3.36914 2.460937,-3.39843 2.460937,-9.3457 0,-5.94727 -2.460937,-9.31641 -2.460938,-3.39843 -6.738281,-3.39843 -4.277344,0 -6.738282,3.39843 -2.43164,3.36914 -2.43164,9.31641 z"
         style="text-align:center;text-anchor:middle"
         id="path219" />
      <path
         d="m 145.9209,727.49023 q 0,-5.85937 -2.43164,-9.08203 -2.40235,-3.22265 -6.76758,-3.22265 -4.33594,0 -6.76758,3.22265 -2.40234,3.22266 -2.40234,9.08203 0,5.83008 2.40234,9.05274 2.43164,3.22265 6.76758,3.22265 4.36523,0 6.76758,-3.22265 2.43164,-3.22266 2.43164,-9.05274 z m 5.39062,12.71485 q 0,8.3789 -3.7207,12.45117 -3.7207,4.10156 -11.39648,4.10156 -2.8418,0 -5.36133,-0.43945 -2.51953,-0.41016 -4.89258,-1.28906 v -5.24414 q 2.37305,1.28906 4.6875,1.90429 2.31445,0.61524 4.7168,0.61524 5.30273,0 7.93945,-2.78321 2.63672,-2.7539 2.63672,-8.34961 v -2.66601 q -1.66992,2.90039 -4.27735,4.33594 -2.60742,1.43554 -6.24023,1.43554 -6.03516,0 -9.72656,-4.59961 -3.69141,-4.59961 -3.69141,-12.1875 0,-7.61718 3.69141,-12.21679 3.6914,-4.59961 9.72656,-4.59961 3.63281,0 6.24023,1.43554 2.60743,1.43555 4.27735,4.33594 v -4.98047 h 5.39062 z"
         style="text-align:center;text-anchor:middle"
         id="path221" />
      <path
         d="m 175.12988,715.24414 q -4.33593,0 -6.85547,3.39844 -2.51953,3.36914 -2.51953,9.25781 0,5.88867 2.49024,9.28711 2.51953,3.36914 6.88476,3.36914 4.30664,0 6.82617,-3.39844 2.51954,-3.39843 2.51954,-9.25781 0,-5.83008 -2.51954,-9.22852 -2.51953,-3.42773 -6.82617,-3.42773 z m 0,-4.57031 q 7.03125,0 11.04492,4.57031 4.01368,4.57031 4.01368,12.65625 0,8.05664 -4.01368,12.65625 -4.01367,4.57031 -11.04492,4.57031 -7.06054,0 -11.07422,-4.57031 -3.98437,-4.59961 -3.98437,-12.65625 0,-8.08594 3.98437,-12.65625 4.01368,-4.57031 11.07422,-4.57031 z"
         style="text-align:center;text-anchor:middle"
         id="path223" />
      <path
         d="m 204.45605,702.14844 v 9.3164 h 11.10352 v 4.18946 h -11.10352 v 17.8125 q 0,4.01367 1.08399,5.15625 1.11328,1.14257 4.48242,1.14257 h 5.53711 v 4.51172 h -5.53711 q -6.24023,0 -8.61328,-2.31445 -2.37305,-2.34375 -2.37305,-8.49609 v -17.8125 h -3.95508 v -4.18946 h 3.95508 v -9.3164 z"
         style="text-align:center;text-anchor:middle"
         id="path225" />
      <path
         d="m 260.73535,716.50391 q -0.9082,-0.52735 -1.99219,-0.76172 -1.05468,-0.26367 -2.34375,-0.26367 -4.57031,0 -7.03125,2.98828 -2.43164,2.95898 -2.43164,8.52539 v 17.28515 h -5.41992 v -32.8125 h 5.41992 v 5.09766 q 1.69922,-2.98828 4.42383,-4.42383 2.72461,-1.46484 6.6211,-1.46484 0.55664,0 1.23046,0.0879 0.67383,0.0586 1.49414,0.20508 z"
         style="text-align:center;text-anchor:middle"
         id="path227" />
      <path
         d="m 266.38965,711.46484 h 5.39062 v 32.8125 h -5.39062 z m 0,-12.77343 h 5.39062 v 6.82617 h -5.39062 z"
         style="text-align:center;text-anchor:middle"
         id="path229" />
      <path
         d="m 306.67285,712.72461 v 5.03906 q -2.28515,-1.25976 -4.59961,-1.875 -2.28515,-0.64453 -4.6289,-0.64453 -5.24414,0 -8.14454,3.33984 -2.90039,3.31055 -2.90039,9.31641 0,6.00586 2.90039,9.3457 2.9004,3.31055 8.14454,3.31055 2.34375,0 4.6289,-0.61523 2.31446,-0.64454 4.59961,-1.9043 v 4.98047 q -2.25586,1.05469 -4.6875,1.58203 -2.40234,0.52734 -5.12695,0.52734 -7.41211,0 -11.77735,-4.6582 -4.36523,-4.6582 -4.36523,-12.56836 0,-8.02734 4.39453,-12.62695 4.42383,-4.59961 12.09961,-4.59961 2.49024,0 4.86328,0.52734 2.37305,0.49805 4.59961,1.52344 z"
         style="text-align:center;text-anchor:middle"
         id="path231" />
      <path
         d="m 315.84277,698.69141 h 5.41993 v 26.92382 l 16.08398,-14.15039 h 6.88477 l -17.40235,15.35157 18.13477,17.46093 h -7.03125 L 321.2627,728.25195 v 16.02539 h -5.41993 z"
         style="text-align:center;text-anchor:middle"
         id="path233" />
      <path
         d="m 369.80762,716.50391 q -0.90821,-0.52735 -1.99219,-0.76172 -1.05469,-0.26367 -2.34375,-0.26367 -4.57031,0 -7.03125,2.98828 -2.43164,2.95898 -2.43164,8.52539 v 17.28515 h -5.41992 v -32.8125 h 5.41992 v 5.09766 q 1.69922,-2.98828 4.42383,-4.42383 2.72461,-1.46484 6.62109,-1.46484 0.55664,0 1.23047,0.0879 0.67383,0.0586 1.49414,0.20508 z"
         style="text-align:center;text-anchor:middle"
         id="path235" />
      <path
         d="m 386.8584,715.24414 q -4.33594,0 -6.85547,3.39844 -2.51953,3.36914 -2.51953,9.25781 0,5.88867 2.49023,9.28711 2.51953,3.36914 6.88477,3.36914 4.30664,0 6.82617,-3.39844 2.51953,-3.39843 2.51953,-9.25781 0,-5.83008 -2.51953,-9.22852 -2.51953,-3.42773 -6.82617,-3.42773 z m 0,-4.57031 q 7.03125,0 11.04492,4.57031 4.01367,4.57031 4.01367,12.65625 0,8.05664 -4.01367,12.65625 -4.01367,4.57031 -11.04492,4.57031 -7.06055,0 -11.07422,-4.57031 -3.98438,-4.59961 -3.98438,-12.65625 0,-8.08594 3.98438,-12.65625 4.01367,-4.57031 11.07422,-4.57031 z"
         style="text-align:center;text-anchor:middle"
         id="path237" />
      <path
         d="m 410.85254,698.69141 h 5.39062 v 45.58593 h -5.39062 z"
         style="text-align:center;text-anchor:middle"
         id="path239" />
      <path
         d="m 427.52246,698.69141 h 5.39063 v 45.58593 h -5.39063 z"
         style="text-align:center;text-anchor:middle"
         id="path241" />
      <path
         d="m 472.25879,726.52344 v 2.63672 h -24.78516 q 0.35157,5.5664 3.33985,8.49609 3.01757,2.90039 8.3789,2.90039 3.10547,0 6.00586,-0.76172 2.92969,-0.76172 5.80078,-2.28515 v 5.09765 q -2.90039,1.23047 -5.94726,1.875 -3.04688,0.64453 -6.18164,0.64453 -7.85157,0 -12.45117,-4.57031 -4.57032,-4.57031 -4.57032,-12.36328 0,-8.05664 4.33594,-12.77344 4.36523,-4.74609 11.74805,-4.74609 6.62109,0 10.45898,4.27734 3.86719,4.24805 3.86719,11.57227 z m -5.39063,-1.58203 q -0.0586,-4.42383 -2.49023,-7.06055 -2.40234,-2.63672 -6.38672,-2.63672 -4.51172,0 -7.23633,2.54883 -2.69531,2.54883 -3.10547,7.17773 z"
         style="text-align:center;text-anchor:middle"
         id="path243" />
      <path
         d="m 502.69824,716.44531 v -17.7539 h 5.39063 v 45.58593 h -5.39063 v -4.92187 q -1.69922,2.92969 -4.30664,4.36523 -2.57812,1.40625 -6.21094,1.40625 -5.94726,0 -9.69726,-4.74609 -3.7207,-4.74609 -3.7207,-12.48047 0,-7.73437 3.7207,-12.48047 3.75,-4.74609 9.69726,-4.74609 3.63282,0 6.21094,1.43554 2.60742,1.40625 4.30664,4.33594 z m -18.36914,11.45508 q 0,5.94727 2.43164,9.3457 2.46094,3.36914 6.73828,3.36914 4.27735,0 6.73828,-3.36914 2.46094,-3.39843 2.46094,-9.3457 0,-5.94727 -2.46094,-9.31641 -2.46093,-3.39843 -6.73828,-3.39843 -4.27734,0 -6.73828,3.39843 -2.43164,3.36914 -2.43164,9.31641 z"
         style="text-align:center;text-anchor:middle"
         id="path245" />
      <path
         d="m 553.17676,727.7832 q -6.53321,0 -9.05274,1.49414 -2.51953,1.49414 -2.51953,5.09766 0,2.87109 1.875,4.57031 1.9043,1.66992 5.15625,1.66992 4.48242,0 7.17774,-3.16406 2.72461,-3.19336 2.72461,-8.4668 v -1.20117 z m 10.75195,-2.22656 v 18.7207 h -5.39062 v -4.98047 q -1.84571,2.98829 -4.59961,4.42383 -2.75391,1.40625 -6.73828,1.40625 -5.03907,0 -8.02735,-2.8125 -2.95898,-2.84179 -2.95898,-7.58789 0,-5.53711 3.6914,-8.34961 3.72071,-2.8125 11.07422,-2.8125 h 7.5586 v -0.52734 q 0,-3.7207 -2.46094,-5.74219 -2.43164,-2.05078 -6.85547,-2.05078 -2.8125,0 -5.47852,0.67383 -2.66601,0.67383 -5.12695,2.02148 v -4.98047 q 2.95899,-1.14257 5.74219,-1.69921 2.7832,-0.58594 5.41992,-0.58594 7.11914,0 10.63477,3.6914 3.51562,3.69141 3.51562,11.19141 z"
         style="text-align:center;text-anchor:middle"
         id="path247" />
      <path
         d="m 580.36426,702.14844 v 9.3164 h 11.10351 v 4.18946 h -11.10351 v 17.8125 q 0,4.01367 1.08398,5.15625 1.11328,1.14257 4.48242,1.14257 h 5.53711 v 4.51172 h -5.53711 q -6.24023,0 -8.61328,-2.31445 -2.37304,-2.34375 -2.37304,-8.49609 v -17.8125 h -3.95508 v -4.18946 h 3.95508 v -9.3164 z"
         style="text-align:center;text-anchor:middle"
         id="path249" />
      <path
         d="m -11.139648,773.69141 h 5.3906246 v 45.58593 h -5.3906246 z"
         style="text-align:center;text-anchor:middle"
         id="path251" />
      <path
         d="m 33.59668,801.52344 v 2.63672 H 8.8115234 q 0.3515625,5.5664 3.3398436,8.49609 3.017578,2.90039 8.378906,2.90039 3.105469,0 6.00586,-0.76172 2.929687,-0.76172 5.800781,-2.28515 v 5.09765 q -2.900391,1.23047 -5.947266,1.875 -3.046875,0.64453 -6.18164,0.64453 -7.851563,0 -12.4511721,-4.57031 -4.5703125,-4.57031 -4.5703125,-12.36328 0,-8.05664 4.3359375,-12.77344 4.3652341,-4.74609 11.7480471,-4.74609 6.621094,0 10.458984,4.27734 3.867188,4.24805 3.867188,11.57227 z m -5.390625,-1.58203 q -0.05859,-4.42383 -2.490235,-7.06055 -2.402343,-2.63672 -6.386718,-2.63672 -4.511719,0 -7.236329,2.54883 -2.6953121,2.54883 -3.1054683,7.17773 z"
         style="text-align:center;text-anchor:middle"
         id="path253" />
      <path
         d="m 57.356445,802.7832 q -6.533203,0 -9.052734,1.49414 -2.519531,1.49414 -2.519531,5.09766 0,2.87109 1.875,4.57031 1.904297,1.66992 5.15625,1.66992 4.482422,0 7.177734,-3.16406 2.724609,-3.19336 2.724609,-8.4668 v -1.20117 z m 10.751953,-2.22656 v 18.7207 h -5.390625 v -4.98047 q -1.845703,2.98829 -4.599609,4.42383 -2.753906,1.40625 -6.738281,1.40625 -5.039063,0 -8.027344,-2.8125 -2.958984,-2.84179 -2.958984,-7.58789 0,-5.53711 3.691406,-8.34961 3.720703,-2.8125 11.074219,-2.8125 h 7.558593 v -0.52734 q 0,-3.7207 -2.460937,-5.74219 -2.431641,-2.05078 -6.855469,-2.05078 -2.8125,0 -5.478515,0.67383 -2.666016,0.67383 -5.126954,2.02148 v -4.98047 q 2.958985,-1.14257 5.742188,-1.69921 2.783203,-0.58594 5.419922,-0.58594 7.11914,0 10.634765,3.6914 3.515625,3.69141 3.515625,11.19141 z"
         style="text-align:center;text-anchor:middle"
         id="path255" />
      <path
         d="m 100.12988,787.43164 v 5.09766 q -2.285153,-1.17188 -4.746091,-1.75782 -2.460937,-0.58593 -5.097656,-0.58593 -4.013672,0 -6.035156,1.23047 -1.992188,1.23046 -1.992188,3.6914 0,1.875 1.435547,2.95899 1.435547,1.05468 5.771484,2.02148 l 1.845703,0.41016 q 5.742188,1.23047 8.144532,3.48632 2.431645,2.22657 2.431645,6.24024 0,4.57031 -3.632817,7.23633 -3.603516,2.66601 -9.931641,2.66601 -2.636719,0 -5.507812,-0.52734 -2.841797,-0.49805 -6.00586,-1.52344 v -5.5664 q 2.988282,1.55273 5.888672,2.34375 2.900391,0.76171 5.742188,0.76171 3.808593,0 5.859375,-1.28906 2.050781,-1.31836 2.050781,-3.6914 0,-2.19727 -1.494141,-3.36915 -1.464843,-1.17187 -6.474609,-2.25585 l -1.875,-0.43946 q -5.009766,-1.05469 -7.236328,-3.22265 -2.226563,-2.19727 -2.226563,-6.00586 0,-4.62891 3.28125,-7.14844 3.28125,-2.51953 9.316407,-2.51953 2.988281,0 5.625,0.43945 2.636718,0.43945 4.863278,1.31836 z"
         style="text-align:center;text-anchor:middle"
         id="path257" />
      <path
         d="m 115.80371,777.14844 v 9.3164 h 11.10352 v 4.18946 h -11.10352 v 17.8125 q 0,4.01367 1.08399,5.15625 1.11328,1.14257 4.48242,1.14257 h 5.53711 v 4.51172 h -5.53711 q -6.24024,0 -8.61328,-2.31445 -2.37305,-2.34375 -2.37305,-8.49609 v -17.8125 h -3.95508 v -4.18946 h 3.95508 v -9.3164 z"
         style="text-align:center;text-anchor:middle"
         id="path259" />
      <path
         d="m 165.78418,790.24414 q -4.33594,0 -6.85547,3.39844 -2.51953,3.36914 -2.51953,9.25781 0,5.88867 2.49023,9.28711 2.51954,3.36914 6.88477,3.36914 4.30664,0 6.82617,-3.39844 2.51953,-3.39843 2.51953,-9.25781 0,-5.83008 -2.51953,-9.22852 -2.51953,-3.42773 -6.82617,-3.42773 z m 0,-4.57031 q 7.03125,0 11.04492,4.57031 4.01367,4.57031 4.01367,12.65625 0,8.05664 -4.01367,12.65625 -4.01367,4.57031 -11.04492,4.57031 -7.06055,0 -11.07422,-4.57031 -3.98437,-4.59961 -3.98437,-12.65625 0,-8.08594 3.98437,-12.65625 4.01367,-4.57031 11.07422,-4.57031 z"
         style="text-align:center;text-anchor:middle"
         id="path261" />
      <path
         d="m 217.05371,799.47266 v 19.80468 h -5.39062 v -19.6289 q 0,-4.65821 -1.81641,-6.97266 -1.81641,-2.31445 -5.44922,-2.31445 -4.36523,0 -6.88476,2.7832 -2.51954,2.7832 -2.51954,7.58789 v 18.54492 h -5.41992 v -32.8125 h 5.41992 v 5.09766 q 1.9336,-2.95898 4.54102,-4.42383 2.63672,-1.46484 6.06445,-1.46484 5.6543,0 8.55469,3.51562 2.90039,3.48633 2.90039,10.28321 z"
         style="text-align:center;text-anchor:middle"
         id="path263" />
      <path
         d="m 251.41895,787.72461 v 5.03906 q -2.28516,-1.25976 -4.59961,-1.875 -2.28516,-0.64453 -4.62891,-0.64453 -5.24414,0 -8.14453,3.33984 -2.90039,3.31055 -2.90039,9.31641 0,6.00586 2.90039,9.3457 2.90039,3.31055 8.14453,3.31055 2.34375,0 4.62891,-0.61523 2.31445,-0.64454 4.59961,-1.9043 v 4.98047 q -2.25586,1.05469 -4.6875,1.58203 -2.40235,0.52734 -5.12696,0.52734 -7.41211,0 -11.77734,-4.6582 -4.36524,-4.6582 -4.36524,-12.56836 0,-8.02734 4.39454,-12.62695 4.42382,-4.59961 12.0996,-4.59961 2.49024,0 4.86329,0.52734 2.37304,0.49805 4.59961,1.52344 z"
         style="text-align:center;text-anchor:middle"
         id="path265" />
      <path
         d="m 288.86035,801.52344 v 2.63672 H 264.0752 q 0.35156,5.5664 3.33984,8.49609 3.01758,2.90039 8.37891,2.90039 3.10546,0 6.00585,-0.76172 2.92969,-0.76172 5.80079,-2.28515 v 5.09765 q -2.90039,1.23047 -5.94727,1.875 -3.04687,0.64453 -6.18164,0.64453 -7.85156,0 -12.45117,-4.57031 -4.57031,-4.57031 -4.57031,-12.36328 0,-8.05664 4.33593,-12.77344 4.36524,-4.74609 11.74805,-4.74609 6.62109,0 10.45898,4.27734 3.86719,4.24805 3.86719,11.57227 z m -5.39062,-1.58203 q -0.0586,-4.42383 -2.49024,-7.06055 -2.40234,-2.63672 -6.38672,-2.63672 -4.51172,0 -7.23632,2.54883 -2.69532,2.54883 -3.10547,7.17773 z"
         style="text-align:center;text-anchor:middle"
         id="path267" />
      <path
         d="m 298.46973,811.83594 h 6.18164 v 7.4414 h -6.18164 z"
         style="text-align:center;text-anchor:middle"
         id="path269" />
    </g>
    <g
       aria-label="(please replace this with your own name)"
       transform="matrix(0.26458333,0,0,0.26458333,-103.34112,67.106676)"
       id="text6716"
       style="font-size:40px;line-height:1.25;white-space:pre;shape-inside:url(#rect6718)">
      <path
         d="m 151.17773,299.59961 q -5.17578,6.46484 -7.73437,12.28516 -2.53906,5.80078 -2.53906,11.1914 0,3.08594 0.74218,6.13281 0.74219,3.02735 2.22657,6.01563 h -3.125 q -1.79688,-3.35938 -2.67578,-6.52344 -0.87891,-3.18359 -0.87891,-6.23047 0,-5.80078 2.67578,-11.48437 2.69531,-5.70313 8.125,-11.38672 z"
         style="font-style:italic;text-align:center;text-anchor:middle"
         id="path12194" />
      <path
         d="m 169.55664,316.47461 q 0,-2.87109 -1.25,-4.39453 -1.25,-1.52344 -3.59375,-1.52344 -1.60156,0 -3.06641,0.82031 -1.44531,0.82032 -2.57812,2.38282 -1.11328,1.54296 -1.77734,3.73046 -0.66407,2.1875 -0.66407,4.33594 0,2.73438 1.25,4.21875 1.25,1.46485 3.55469,1.46485 1.69922,0 3.14453,-0.80079 1.46485,-0.80078 2.5,-2.32421 1.11328,-1.60157 1.79688,-3.76954 0.68359,-2.16796 0.68359,-4.14062 z m -11.13281,-5.07813 q 1.44531,-1.89453 3.39844,-2.87109 1.97265,-0.97656 4.375,-0.97656 3.35937,0 5.21484,2.20703 1.85547,2.1875 1.85547,6.15234 0,3.24219 -1.15235,6.19141 -1.15234,2.92969 -3.32031,5.25391 -1.44531,1.54296 -3.26172,2.36328 -1.8164,0.80078 -3.82812,0.80078 -2.32422,0 -3.90625,-0.95703 -1.58203,-0.97657 -2.36328,-2.89063 l -2.2461,11.60156 h -3.59375 l 5.87891,-30.19531 h 3.59375 z"
         style="font-style:italic;text-align:center;text-anchor:middle"
         id="path12196" />
      <path
         d="m 182.42773,299.56055 h 3.59375 l -5.91796,30.39062 h -3.59375 z"
         style="font-style:italic;text-align:center;text-anchor:middle"
         id="path12198" />
      <path
         d="m 205.45508,317.06055 q 0.0586,-0.3125 0.0781,-0.64453 0.0391,-0.33204 0.0391,-0.66407 0,-2.38281 -1.40625,-3.76953 -1.38672,-1.38672 -3.78907,-1.38672 -2.67578,0 -4.72656,1.69922 -2.05078,1.67969 -3.10547,4.78516 z m 3.125,2.8125 h -16.71875 q -0.11719,0.74218 -0.15625,1.17187 -0.0391,0.42969 -0.0391,0.74219 0,2.71484 1.66015,4.19922 1.67969,1.48437 4.72656,1.48437 2.34375,0 4.4336,-0.52734 2.08984,-0.52734 3.88672,-1.54297 l -0.6836,3.55469 q -1.93359,0.78125 -4.0039,1.17187 -2.05078,0.39063 -4.17969,0.39063 -4.55078,0 -7.01172,-2.16797 -2.44141,-2.1875 -2.44141,-6.19141 0,-3.41797 1.21094,-6.34765 1.23047,-2.94922 3.59375,-5.25391 1.52344,-1.44531 3.61328,-2.22656 2.10938,-0.78125 4.47266,-0.78125 3.71094,0 5.89844,2.22656 2.20703,2.22656 2.20703,5.97656 0,0.89844 -0.11719,1.9336 -0.11719,1.01562 -0.35156,2.1875 z"
         style="font-style:italic;text-align:center;text-anchor:middle"
         id="path12200" />
      <path
         d="m 232.31055,317.4707 -2.44141,12.48047 h -3.59375 l 0.66406,-3.32031 q -1.58203,1.95312 -3.61328,2.92969 -2.01172,0.95703 -4.49219,0.95703 -2.79296,0 -4.58984,-1.69922 -1.77734,-1.71875 -1.77734,-4.39453 0,-3.82813 3.04687,-6.05469 3.06641,-2.22656 8.4375,-2.22656 h 5 l 0.19531,-0.95703 q 0.0391,-0.15625 0.0586,-0.33203 0.0195,-0.19532 0.0195,-0.58594 0,-1.73828 -1.42578,-2.69531 -1.40625,-0.97657 -3.96485,-0.97657 -1.75781,0 -3.61328,0.44922 -1.83593,0.44922 -3.78906,1.34766 l 0.625,-3.32031 q 2.03125,-0.76172 3.96484,-1.13282 1.95313,-0.39062 3.76954,-0.39062 3.86718,0 5.8789,1.67969 2.03125,1.67968 2.03125,4.88281 0,0.64453 -0.0976,1.52344 -0.0977,0.85937 -0.29297,1.83593 z m -3.88672,1.48438 h -3.59375 q -4.41406,0 -6.54297,1.1914 -2.10938,1.17188 -2.10938,3.65235 0,1.71875 1.07422,2.69531 1.09375,0.97656 3.00782,0.97656 2.92968,0 5.11718,-2.08984 2.1875,-2.10938 2.89063,-5.625 z"
         style="font-style:italic;text-align:center;text-anchor:middle"
         id="path12202" />
      <path
         d="m 255.33789,308.7207 -0.68359,3.39844 q -1.42578,-0.78125 -3.00782,-1.17187 -1.58203,-0.39063 -3.26171,-0.39063 -2.83204,0 -4.47266,0.97656 -1.62109,0.95703 -1.62109,2.61719 0,1.93359 3.78906,2.96875 0.29297,0.0781 0.42969,0.11719 l 1.15234,0.35156 q 3.59375,0.99609 4.78516,2.08984 1.21093,1.09375 1.21093,2.98829 0,3.47656 -2.77343,5.66406 -2.75391,2.1875 -7.22657,2.1875 -1.73828,0 -3.65234,-0.33203 -1.91406,-0.33203 -4.21875,-1.03516 l 0.70312,-3.71094 q 1.97266,1.01563 3.88672,1.54297 1.91407,0.52735 3.67188,0.52735 2.63672,0 4.27734,-1.13282 1.66016,-1.13281 1.66016,-2.87109 0,-1.875 -4.33594,-3.02734 l -0.37109,-0.0977 -1.23047,-0.3125 q -2.73438,-0.72266 -4.00391,-1.89453 -1.26953,-1.19141 -1.26953,-3.02735 0,-3.49609 2.61719,-5.54687 2.63672,-2.05078 7.14844,-2.05078 1.77734,0 3.45703,0.29297 1.69922,0.29297 3.33984,0.8789 z"
         style="font-style:italic;text-align:center;text-anchor:middle"
         id="path12204" />
      <path
         d="m 275.41602,317.06055 q 0.0586,-0.3125 0.0781,-0.64453 0.0391,-0.33204 0.0391,-0.66407 0,-2.38281 -1.40625,-3.76953 -1.38672,-1.38672 -3.78906,-1.38672 -2.67578,0 -4.72656,1.69922 -2.05078,1.67969 -3.10547,4.78516 z m 3.125,2.8125 h -16.71875 q -0.11719,0.74218 -0.15625,1.17187 -0.0391,0.42969 -0.0391,0.74219 0,2.71484 1.66016,4.19922 1.67969,1.48437 4.72656,1.48437 2.34375,0 4.4336,-0.52734 2.08984,-0.52734 3.88671,-1.54297 l -0.68359,3.55469 q -1.93359,0.78125 -4.00391,1.17187 -2.05078,0.39063 -4.17968,0.39063 -4.55078,0 -7.01172,-2.16797 -2.44141,-2.1875 -2.44141,-6.19141 0,-3.41797 1.21094,-6.34765 1.23047,-2.94922 3.59375,-5.25391 1.52344,-1.44531 3.61328,-2.22656 2.10938,-0.78125 4.47266,-0.78125 3.71093,0 5.89843,2.22656 2.20704,2.22656 2.20704,5.97656 0,0.89844 -0.11719,1.9336 -0.11719,1.01562 -0.35156,2.1875 z"
         style="font-style:italic;text-align:center;text-anchor:middle"
         id="path12206" />
      <path
         d="m 311.33398,311.39648 q -0.54687,-0.29296 -1.25,-0.44921 -0.70312,-0.15625 -1.5039,-0.15625 -2.8711,0 -5.01953,2.1875 -2.14844,2.16796 -2.85157,5.82031 l -2.20703,11.15234 h -3.59375 l 4.27735,-21.875 h 3.59375 l -0.6836,3.39844 q 1.42578,-1.89453 3.39844,-2.91016 1.99219,-1.01562 4.23828,-1.01562 0.58594,0 1.15235,0.0781 0.5664,0.0586 1.13281,0.21485 z"
         style="font-style:italic;text-align:center;text-anchor:middle"
         id="path12208" />
      <path
         d="m 329.18555,317.06055 q 0.0586,-0.3125 0.0781,-0.64453 0.0391,-0.33204 0.0391,-0.66407 0,-2.38281 -1.40625,-3.76953 -1.38671,-1.38672 -3.78906,-1.38672 -2.67578,0 -4.72656,1.69922 -2.05078,1.67969 -3.10547,4.78516 z m 3.125,2.8125 H 315.5918 q -0.11719,0.74218 -0.15625,1.17187 -0.0391,0.42969 -0.0391,0.74219 0,2.71484 1.66016,4.19922 1.67969,1.48437 4.72656,1.48437 2.34375,0 4.4336,-0.52734 2.08984,-0.52734 3.88672,-1.54297 l -0.6836,3.55469 q -1.93359,0.78125 -4.0039,1.17187 -2.05079,0.39063 -4.17969,0.39063 -4.55078,0 -7.01172,-2.16797 -2.44141,-2.1875 -2.44141,-6.19141 0,-3.41797 1.21094,-6.34765 1.23047,-2.94922 3.59375,-5.25391 1.52344,-1.44531 3.61328,-2.22656 2.10938,-0.78125 4.47266,-0.78125 3.71094,0 5.89844,2.22656 2.20703,2.22656 2.20703,5.97656 0,0.89844 -0.11719,1.9336 -0.11719,1.01562 -0.35156,2.1875 z"
         style="font-style:italic;text-align:center;text-anchor:middle"
         id="path12210" />
      <path
         d="m 354.40039,316.47461 q 0,-2.87109 -1.25,-4.39453 -1.25,-1.52344 -3.59375,-1.52344 -1.60156,0 -3.06641,0.82031 -1.44531,0.82032 -2.57812,2.38282 -1.11328,1.54296 -1.77734,3.73046 -0.66407,2.1875 -0.66407,4.33594 0,2.73438 1.25,4.21875 1.25,1.46485 3.55469,1.46485 1.69922,0 3.14453,-0.80079 1.46485,-0.80078 2.5,-2.32421 1.11328,-1.60157 1.79688,-3.76954 0.68359,-2.16796 0.68359,-4.14062 z m -11.13281,-5.07813 q 1.44531,-1.89453 3.39844,-2.87109 1.97265,-0.97656 4.375,-0.97656 3.35937,0 5.21484,2.20703 1.85547,2.1875 1.85547,6.15234 0,3.24219 -1.15235,6.19141 -1.15234,2.92969 -3.32031,5.25391 -1.44531,1.54296 -3.26172,2.36328 -1.8164,0.80078 -3.82812,0.80078 -2.32422,0 -3.90625,-0.95703 -1.58203,-0.97657 -2.36328,-2.89063 l -2.2461,11.60156 h -3.59375 l 5.87891,-30.19531 h 3.59375 z"
         style="font-style:italic;text-align:center;text-anchor:middle"
         id="path12212" />
      <path
         d="m 367.27148,299.56055 h 3.59375 l -5.91796,30.39062 h -3.59375 z"
         style="font-style:italic;text-align:center;text-anchor:middle"
         id="path12214" />
      <path
         d="m 392.54492,317.4707 -2.4414,12.48047 h -3.59375 l 0.66406,-3.32031 q -1.58203,1.95312 -3.61328,2.92969 -2.01172,0.95703 -4.49219,0.95703 -2.79297,0 -4.58984,-1.69922 -1.77735,-1.71875 -1.77735,-4.39453 0,-3.82813 3.04688,-6.05469 3.0664,-2.22656 8.4375,-2.22656 h 5 l 0.19531,-0.95703 q 0.0391,-0.15625 0.0586,-0.33203 0.0195,-0.19532 0.0195,-0.58594 0,-1.73828 -1.42578,-2.69531 -1.40625,-0.97657 -3.96484,-0.97657 -1.75781,0 -3.61328,0.44922 -1.83594,0.44922 -3.78906,1.34766 l 0.625,-3.32031 q 2.03125,-0.76172 3.96484,-1.13282 1.95312,-0.39062 3.76953,-0.39062 3.86719,0 5.87891,1.67969 2.03125,1.67968 2.03125,4.88281 0,0.64453 -0.0977,1.52344 -0.0977,0.85937 -0.29297,1.83593 z m -3.88672,1.48438 h -3.59375 q -4.41406,0 -6.54297,1.1914 -2.10937,1.17188 -2.10937,3.65235 0,1.71875 1.07422,2.69531 1.09375,0.97656 3.00781,0.97656 2.92969,0 5.11719,-2.08984 2.1875,-2.10938 2.89062,-5.625 z"
         style="font-style:italic;text-align:center;text-anchor:middle"
         id="path12216" />
      <path
         d="m 417.01758,308.91602 -0.72266,3.55468 q -1.28906,-0.9375 -2.7539,-1.40625 -1.44532,-0.46875 -3.00782,-0.46875 -1.71875,0 -3.28125,0.60547 -1.54297,0.60547 -2.59765,1.71875 -1.67969,1.69922 -2.59766,3.98438 -0.91797,2.28515 -0.91797,4.72656 0,2.94922 1.46485,4.39453 1.48437,1.44531 4.49218,1.44531 1.48438,0 3.14453,-0.44922 1.67969,-0.44921 3.4961,-1.34765 l -0.6836,3.55469 q -1.5625,0.64453 -3.22265,0.95703 -1.64063,0.33203 -3.37891,0.33203 -4.35547,0 -6.69922,-2.16797 -2.34375,-2.1875 -2.34375,-6.23047 0,-3.39844 1.21094,-6.25 1.23047,-2.87109 3.63281,-5.15625 1.64063,-1.5625 3.84766,-2.36328 2.20703,-0.80078 4.82422,-0.80078 1.52344,0 3.02734,0.35156 1.50391,0.33203 3.06641,1.01563 z"
         style="font-style:italic;text-align:center;text-anchor:middle"
         id="path12218" />
      <path
         d="m 436.80273,317.06055 q 0.0586,-0.3125 0.0781,-0.64453 0.0391,-0.33204 0.0391,-0.66407 0,-2.38281 -1.40625,-3.76953 -1.38672,-1.38672 -3.78906,-1.38672 -2.67578,0 -4.72656,1.69922 -2.05078,1.67969 -3.10547,4.78516 z m 3.125,2.8125 h -16.71875 q -0.11718,0.74218 -0.15625,1.17187 -0.0391,0.42969 -0.0391,0.74219 0,2.71484 1.66016,4.19922 1.67969,1.48437 4.72656,1.48437 2.34375,0 4.43359,-0.52734 2.08985,-0.52734 3.88672,-1.54297 l -0.68359,3.55469 q -1.93359,0.78125 -4.00391,1.17187 -2.05078,0.39063 -4.17968,0.39063 -4.55079,0 -7.01172,-2.16797 -2.44141,-2.1875 -2.44141,-6.19141 0,-3.41797 1.21094,-6.34765 1.23047,-2.94922 3.59375,-5.25391 1.52344,-1.44531 3.61328,-2.22656 2.10937,-0.78125 4.47266,-0.78125 3.71093,0 5.89843,2.22656 2.20703,2.22656 2.20703,5.97656 0,0.89844 -0.11718,1.9336 -0.11719,1.01562 -0.35157,2.1875 z"
         style="font-style:italic;text-align:center;text-anchor:middle"
         id="path12220" />
      <path
         d="m 471.80273,308.07617 -0.54687,2.79297 h -7.16797 l -2.32422,11.875 q -0.11719,0.66406 -0.17578,1.11328 -0.0586,0.44922 -0.0586,0.70313 0,1.25 0.74218,1.8164 0.76172,0.56641 2.42188,0.56641 h 3.63281 l -0.60547,3.00781 h -3.4375 q -3.20312,0 -4.78515,-1.25 -1.5625,-1.25 -1.5625,-3.78906 0,-0.44922 0.0586,-0.97656 0.0586,-0.54688 0.17578,-1.19141 l 2.32422,-11.875 h -3.04687 l 0.5664,-2.79297 h 2.98828 l 1.21094,-6.21094 h 3.59375 l -1.19141,6.21094 z"
         style="font-style:italic;text-align:center;text-anchor:middle"
         id="path12222" />
      <path
         d="m 492.85742,316.74805 -2.55859,13.20312 h -3.61328 l 2.55859,-13.0664 q 0.17578,-0.91797 0.27344,-1.6211 0.0976,-0.70312 0.0976,-1.11328 0,-1.64062 -1.03515,-2.55859 -1.03516,-0.91797 -2.89063,-0.91797 -2.89062,0 -5.01953,1.95312 -2.10937,1.95313 -2.73437,5.19532 l -2.36328,12.1289 h -3.59375 l 5.91796,-30.39062 h 3.59375 l -2.32421,11.95312 q 1.36718,-1.83594 3.49609,-2.89062 2.12891,-1.07422 4.47266,-1.07422 2.89062,0 4.47265,1.5625 1.60156,1.5625 1.60156,4.39453 0,0.70312 -0.0976,1.50391 -0.0781,0.80078 -0.25391,1.73828 z"
         style="font-style:italic;text-align:center;text-anchor:middle"
         id="path12224" />
      <path
         d="m 503.24805,299.56055 h 3.59375 l -0.87891,4.55078 h -3.59375 z m -1.64063,8.51562 h 3.59375 l -4.27734,21.875 h -3.59375 z"
         style="font-style:italic;text-align:center;text-anchor:middle"
         id="path12226" />
      <path
         d="m 527.03711,308.7207 -0.68359,3.39844 q -1.42579,-0.78125 -3.00782,-1.17187 -1.58203,-0.39063 -3.26172,-0.39063 -2.83203,0 -4.47265,0.97656 -1.6211,0.95703 -1.6211,2.61719 0,1.93359 3.78907,2.96875 0.29297,0.0781 0.42968,0.11719 l 1.15235,0.35156 q 3.59375,0.99609 4.78515,2.08984 1.21094,1.09375 1.21094,2.98829 0,3.47656 -2.77344,5.66406 -2.7539,2.1875 -7.22656,2.1875 -1.73828,0 -3.65234,-0.33203 -1.91406,-0.33203 -4.21875,-1.03516 l 0.70312,-3.71094 q 1.97266,1.01563 3.88672,1.54297 1.91406,0.52735 3.67188,0.52735 2.63672,0 4.27734,-1.13282 1.66016,-1.13281 1.66016,-2.87109 0,-1.875 -4.33594,-3.02734 l -0.37109,-0.0977 -1.23047,-0.3125 q -2.73438,-0.72266 -4.00391,-1.89453 -1.26953,-1.19141 -1.26953,-3.02735 0,-3.49609 2.61719,-5.54687 2.63672,-2.05078 7.14843,-2.05078 1.77735,0 3.45704,0.29297 1.69921,0.29297 3.33984,0.8789 z"
         style="font-style:italic;text-align:center;text-anchor:middle"
         id="path12228" />
      <path
         d="m 543.99023,308.07617 h 3.55469 l 0.91797,17.59766 8.16406,-17.59766 h 4.16016 l 1.21094,17.59766 7.7539,-17.59766 h 3.59375 l -10,21.875 h -4.19922 l -1.07421,-18.125 -8.35938,18.125 h -4.23828 z"
         style="font-style:italic;text-align:center;text-anchor:middle"
         id="path12230" />
      <path
         d="m 580.63086,299.56055 h 3.59375 l -0.87891,4.55078 h -3.59375 z m -1.64063,8.51562 h 3.59375 l -4.27734,21.875 h -3.59375 z"
         style="font-style:italic;text-align:center;text-anchor:middle"
         id="path12232" />
      <path
         d="m 601.33398,308.07617 -0.54687,2.79297 h -7.16797 l -2.32422,11.875 q -0.11719,0.66406 -0.17578,1.11328 -0.0586,0.44922 -0.0586,0.70313 0,1.25 0.74218,1.8164 0.76172,0.56641 2.42188,0.56641 h 3.63281 l -0.60547,3.00781 h -3.4375 q -3.20312,0 -4.78515,-1.25 -1.5625,-1.25 -1.5625,-3.78906 0,-0.44922 0.0586,-0.97656 0.0586,-0.54688 0.17578,-1.19141 l 2.32422,-11.875 h -3.04687 l 0.5664,-2.79297 h 2.98828 l 1.21094,-6.21094 h 3.59375 l -1.19141,6.21094 z"
         style="font-style:italic;text-align:center;text-anchor:middle"
         id="path12234" />
      <path
         d="m 622.38867,316.74805 -2.55859,13.20312 h -3.61328 l 2.55859,-13.0664 q 0.17578,-0.91797 0.27344,-1.6211 0.0977,-0.70312 0.0977,-1.11328 0,-1.64062 -1.03515,-2.55859 -1.03516,-0.91797 -2.89063,-0.91797 -2.89062,0 -5.01953,1.95312 -2.10937,1.95313 -2.73437,5.19532 l -2.36328,12.1289 h -3.59375 l 5.91796,-30.39062 h 3.59375 l -2.32421,11.95312 q 1.36718,-1.83594 3.49609,-2.89062 2.12891,-1.07422 4.47266,-1.07422 2.89062,0 4.47265,1.5625 1.60156,1.5625 1.60156,4.39453 0,0.70312 -0.0977,1.50391 -0.0781,0.80078 -0.25391,1.73828 z"
         style="font-style:italic;text-align:center;text-anchor:middle"
         id="path12236" />
      <path
         d="m 648.0918,331.98242 q -2.5,4.19922 -4.08203,5.23438 -1.5625,1.05468 -4.00391,1.05468 h -2.83203 l 0.60547,-3.00781 h 2.07031 q 1.50391,0 2.55859,-0.82031 1.05469,-0.82031 2.36328,-3.20313 l 1.11329,-2.08984 -4.84375,-21.07422 h 3.80859 l 3.63281,16.75781 10.03906,-16.75781 h 3.76954 z"
         style="font-style:italic;text-align:center;text-anchor:middle"
         id="path12238" />
      <path
         d="m 671.99805,330.51758 q -3.84766,0 -6.09375,-2.36328 -2.22657,-2.38282 -2.22657,-6.48438 0,-2.38281 0.76172,-4.84375 0.78125,-2.48047 2.01172,-4.16015 1.9336,-2.61719 4.31641,-3.86719 2.38281,-1.25 5.39062,-1.25 3.73047,0 6.01563,2.32422 2.30469,2.32422 2.30469,6.07422 0,2.59765 -0.76172,5.17578 -0.76172,2.57812 -1.99219,4.27734 -1.91406,2.61719 -4.29688,3.86719 -2.38281,1.25 -5.42968,1.25 z m -4.58985,-8.96485 q 0,2.96875 1.23047,4.45313 1.25,1.46484 3.76953,1.46484 3.61328,0 5.97657,-3.14453 2.38281,-3.16406 2.38281,-8.00781 0,-2.83203 -1.26953,-4.27734 -1.26953,-1.44532 -3.73047,-1.44532 -2.03125,0 -3.61328,0.95703 -1.58203,0.9375 -2.83203,2.8711 -0.91797,1.44531 -1.42579,3.30078 -0.48828,1.85547 -0.48828,3.82812 z"
         style="font-style:italic;text-align:center;text-anchor:middle"
         id="path12240" />
      <path
         d="m 688.99023,321.2793 2.5586,-13.20313 h 3.61328 l -2.55859,13.06641 q -0.19532,0.95703 -0.29297,1.64062 -0.0781,0.6836 -0.0781,1.13282 0,1.66015 1.01563,2.57812 1.01562,0.89844 2.87109,0.89844 2.89063,0 5,-1.95313 2.10938,-1.95312 2.75391,-5.2539 l 2.40234,-12.10938 h 3.59375 l -4.23828,21.875 h -3.59375 l 0.72266,-3.4375 q -1.52344,1.91406 -3.63282,2.96875 -2.08984,1.03516 -4.45312,1.03516 -2.8711,0 -4.47266,-1.5625 -1.60156,-1.58203 -1.60156,-4.39453 0,-0.58594 0.0977,-1.46485 0.0977,-0.8789 0.29296,-1.8164 z"
         style="font-style:italic;text-align:center;text-anchor:middle"
         id="path12242" />
      <path
         d="m 729.49805,311.39648 q -0.54688,-0.29296 -1.25,-0.44921 -0.70313,-0.15625 -1.50391,-0.15625 -2.87109,0 -5.01953,2.1875 -2.14844,2.16796 -2.85156,5.82031 l -2.20703,11.15234 h -3.59375 l 4.27734,-21.875 h 3.59375 l -0.68359,3.39844 q 1.42578,-1.89453 3.39843,-2.91016 1.99219,-1.01562 4.23828,-1.01562 0.58594,0 1.15235,0.0781 0.5664,0.0586 1.13281,0.21485 z"
         style="font-style:italic;text-align:center;text-anchor:middle"
         id="path12244" />
      <path
         d="m 750.98242,330.51758 q -3.84765,0 -6.09375,-2.36328 -2.22656,-2.38282 -2.22656,-6.48438 0,-2.38281 0.76172,-4.84375 0.78125,-2.48047 2.01172,-4.16015 1.93359,-2.61719 4.3164,-3.86719 2.38282,-1.25 5.39063,-1.25 3.73047,0 6.01562,2.32422 2.30469,2.32422 2.30469,6.07422 0,2.59765 -0.76172,5.17578 -0.76172,2.57812 -1.99219,4.27734 -1.91406,2.61719 -4.29687,3.86719 -2.38281,1.25 -5.42969,1.25 z m -4.58984,-8.96485 q 0,2.96875 1.23047,4.45313 1.25,1.46484 3.76953,1.46484 3.61328,0 5.97656,-3.14453 2.38281,-3.16406 2.38281,-8.00781 0,-2.83203 -1.26953,-4.27734 -1.26953,-1.44532 -3.73047,-1.44532 -2.03125,0 -3.61328,0.95703 -1.58203,0.9375 -2.83203,2.8711 -0.91797,1.44531 -1.42578,3.30078 -0.48828,1.85547 -0.48828,3.82812 z"
         style="font-style:italic;text-align:center;text-anchor:middle"
         id="path12246" />
      <path
         d="m 768.69727,308.07617 h 3.55468 l 0.91797,17.59766 8.16406,-17.59766 h 4.16016 l 1.21094,17.59766 7.7539,-17.59766 h 3.59375 l -10,21.875 h -4.19921 l -1.07422,-18.125 -8.35938,18.125 h -4.23828 z"
         style="font-style:italic;text-align:center;text-anchor:middle"
         id="path12248" />
      <path
         d="m 820.29883,316.74805 -2.5586,13.20312 h -3.61328 l 2.5586,-13.0664 q 0.17578,-0.91797 0.27343,-1.6211 0.0977,-0.70312 0.0977,-1.11328 0,-1.64062 -1.03516,-2.55859 -1.03515,-0.91797 -2.89062,-0.91797 -2.89063,0 -4.98047,1.93359 -2.08984,1.91406 -2.73437,5.21485 l -2.40235,12.1289 h -3.59375 l 4.23828,-21.875 h 3.59375 l -0.72265,3.4375 q 1.5039,-1.89453 3.61328,-2.92969 2.10937,-1.03515 4.43359,-1.03515 2.89063,0 4.47266,1.5625 1.60156,1.5625 1.60156,4.39453 0,0.70312 -0.0977,1.50391 -0.0781,0.80078 -0.2539,1.73828 z"
         style="font-style:italic;text-align:center;text-anchor:middle"
         id="path12250" />
      <path
         d="m 858.36523,316.74805 -2.55859,13.20312 h -3.61328 l 2.55859,-13.0664 q 0.17578,-0.91797 0.27344,-1.6211 0.0977,-0.70312 0.0977,-1.11328 0,-1.64062 -1.03516,-2.55859 -1.03516,-0.91797 -2.89062,-0.91797 -2.89063,0 -4.98047,1.93359 -2.08985,1.91406 -2.73438,5.21485 l -2.40234,12.1289 h -3.59375 l 4.23828,-21.875 h 3.59375 l -0.72266,3.4375 q 1.50391,-1.89453 3.61328,-2.92969 2.10938,-1.03515 4.4336,-1.03515 2.89062,0 4.47265,1.5625 1.60157,1.5625 1.60157,4.39453 0,0.70312 -0.0977,1.50391 -0.0781,0.80078 -0.25391,1.73828 z"
         style="font-style:italic;text-align:center;text-anchor:middle"
         id="path12252" />
      <path
         d="m 882.91602,317.4707 -2.44141,12.48047 h -3.59375 l 0.66406,-3.32031 q -1.58203,1.95312 -3.61328,2.92969 -2.01172,0.95703 -4.49219,0.95703 -2.79297,0 -4.58984,-1.69922 -1.77734,-1.71875 -1.77734,-4.39453 0,-3.82813 3.04687,-6.05469 3.06641,-2.22656 8.4375,-2.22656 h 5 l 0.19531,-0.95703 q 0.0391,-0.15625 0.0586,-0.33203 0.0195,-0.19532 0.0195,-0.58594 0,-1.73828 -1.42578,-2.69531 -1.40625,-0.97657 -3.96485,-0.97657 -1.75781,0 -3.61328,0.44922 -1.83594,0.44922 -3.78906,1.34766 l 0.625,-3.32031 q 2.03125,-0.76172 3.96484,-1.13282 1.95313,-0.39062 3.76953,-0.39062 3.86719,0 5.87891,1.67969 2.03125,1.67968 2.03125,4.88281 0,0.64453 -0.0977,1.52344 -0.0977,0.85937 -0.29296,1.83593 z m -3.88672,1.48438 h -3.59375 q -4.41407,0 -6.54297,1.1914 -2.10938,1.17188 -2.10938,3.65235 0,1.71875 1.07422,2.69531 1.09375,0.97656 3.00781,0.97656 2.92969,0 5.11719,-2.08984 2.1875,-2.10938 2.89063,-5.625 z"
         style="font-style:italic;text-align:center;text-anchor:middle"
         id="path12254" />
      <path
         d="m 921.86133,316.74805 -2.5586,13.20312 h -3.59375 l 2.51954,-13.08594 q 0.15625,-0.83984 0.23437,-1.44531 0.0781,-0.60547 0.0781,-1.03515 0,-1.75782 -0.97657,-2.73438 -0.97656,-0.97656 -2.73437,-0.97656 -2.61719,0 -4.66797,1.97265 -2.05078,1.95313 -2.65625,5.09766 l -2.40234,12.20703 h -3.59375 l 2.55859,-13.08594 q 0.15625,-0.72265 0.23437,-1.32812 0.0781,-0.625 0.0781,-1.11328 0,-1.77735 -0.97656,-2.75391 -0.97657,-0.99609 -2.69532,-0.99609 -2.65625,0 -4.70703,1.97265 -2.05078,1.95313 -2.65625,5.09766 l -2.40234,12.20703 h -3.59375 l 4.27734,-21.875 h 3.59375 l -0.68359,3.39844 q 1.46484,-1.91406 3.41797,-2.91016 1.97265,-1.01562 4.21875,-1.01562 2.38281,0 3.90625,1.25 1.54297,1.25 1.85547,3.47656 1.64062,-2.30469 3.78906,-3.51562 2.16797,-1.21094 4.57031,-1.21094 2.8125,0 4.33594,1.62109 1.54297,1.6211 1.54297,4.58985 0,0.64453 -0.0781,1.42578 -0.0781,0.76172 -0.23437,1.5625 z"
         style="font-style:italic;text-align:center;text-anchor:middle"
         id="path12256" />
      <path
         d="m 944.14648,317.06055 q 0.0586,-0.3125 0.0781,-0.64453 0.0391,-0.33204 0.0391,-0.66407 0,-2.38281 -1.40625,-3.76953 -1.38672,-1.38672 -3.78906,-1.38672 -2.67578,0 -4.72656,1.69922 -2.05078,1.67969 -3.10547,4.78516 z m 3.125,2.8125 h -16.71875 q -0.11718,0.74218 -0.15625,1.17187 -0.0391,0.42969 -0.0391,0.74219 0,2.71484 1.66016,4.19922 1.67969,1.48437 4.72656,1.48437 2.34375,0 4.43359,-0.52734 2.08985,-0.52734 3.88672,-1.54297 l -0.68359,3.55469 q -1.93359,0.78125 -4.00391,1.17187 -2.05078,0.39063 -4.17968,0.39063 -4.55079,0 -7.01172,-2.16797 -2.44141,-2.1875 -2.44141,-6.19141 0,-3.41797 1.21094,-6.34765 1.23047,-2.94922 3.59375,-5.25391 1.52344,-1.44531 3.61328,-2.22656 2.10937,-0.78125 4.47266,-0.78125 3.71093,0 5.89843,2.22656 2.20703,2.22656 2.20703,5.97656 0,0.89844 -0.11718,1.9336 -0.11719,1.01562 -0.35157,2.1875 z"
         style="font-style:italic;text-align:center;text-anchor:middle"
         id="path12258" />
      <path
         d="m 947.03711,335.22461 q 5.19531,-6.46484 7.73437,-12.26563 2.53907,-5.82031 2.53907,-11.21093 0,-3.08594 -0.74219,-6.11328 -0.72266,-3.04688 -2.20703,-6.03516 h 3.125 q 1.79687,3.37891 2.67578,6.52344 0.87891,3.14453 0.87891,6.1914 0,5.82032 -2.71485,11.5625 -2.69531,5.72266 -8.08594,11.34766 z"
         style="font-style:italic;text-align:center;text-anchor:middle"
         id="path12260" />
    </g>
  </g>
  <metadata
     id="metadata24013">
    <rdf:RDF>
      <cc:Work
         rdf:about="">
        <cc:license
           rdf:resource="http://creativecommons.org/publicdomain/zero/1.0/" />
      </cc:Work>
      <cc:License
         rdf:about="http://creativecommons.org/publicdomain/zero/1.0/">
        <cc:permits
           rdf:resource="http://creativecommons.org/ns#Reproduction" />
        <cc:permits
           rdf:resource="http://creativecommons.org/ns#Distribution" />
        <cc:permits
           rdf:resource="http://creativecommons.org/ns#DerivativeWorks" />
      </cc:License>
    </rdf:RDF>
  </metadata>
</svg>
