<?xml version="1.0" encoding="UTF-8" standalone="no"?>
<!-- Created with Inkscape (http://www.inkscape.org/) -->

<svg
   width="252.65089mm"
   height="160.80699mm"
   viewBox="0 0 252.65089 160.80699"
   version="1.1"
   id="svg5"
   inkscape:version="1.1.2 (0a00cf5339, 2022-02-04)"
   sodipodi:docname="goodcertificate.svg"
   xmlns:inkscape="http://www.inkscape.org/namespaces/inkscape"
   xmlns:sodipodi="http://sodipodi.sourceforge.net/DTD/sodipodi-0.dtd"
   xmlns="http://www.w3.org/2000/svg"
   xmlns:svg="http://www.w3.org/2000/svg">
  <sodipodi:namedview
     id="namedview7"
     pagecolor="#ffffff"
     bordercolor="#666666"
     borderopacity="1.0"
     inkscape:pageshadow="2"
     inkscape:pageopacity="0.0"
     inkscape:pagecheckerboard="0"
     inkscape:document-units="mm"
     showgrid="false"
     fit-margin-top="0"
     fit-margin-left="0"
     fit-margin-right="0"
     fit-margin-bottom="0"
     inkscape:zoom="0.6491807"
     inkscape:cx="485.9972"
     inkscape:cy="222.58826"
     inkscape:window-width="1868"
     inkscape:window-height="991"
     inkscape:window-x="26"
     inkscape:window-y="23"
     inkscape:window-maximized="0"
     inkscape:current-layer="layer1" />
  <defs
     id="defs2">
    <rect
       x="-134.84715"
       y="878.83429"
       width="911.69171"
       height="232.38243"
       id="rect81505" />
    <rect
       x="100.09849"
       y="499.84576"
       width="440.01468"
       height="54.7253"
       id="rect57573" />
    <rect
       x="-131.82779"
       y="419.703"
       width="901.91211"
       height="86.607994"
       id="rect37047" />
    <rect
       x="-102.57"
       y="519.49493"
       width="848.05212"
       height="54.601593"
       id="rect17025" />
    <rect
       x="-134.84715"
       y="321.94751"
       width="908.35101"
       height="205.11644"
       id="rect5941" />
  </defs>
  <g
     inkscape:label="Layer 1"
     inkscape:groupmode="layer"
     id="layer1"
     transform="translate(41.88398,-77.770958)">
    <path
       id="rect31"
       style="fill:#00ffff;stroke-width:0.264583"
       d="M -41.88398,77.770958 H 210.76691 V 238.57795 H -41.88398 Z" />
    <path
       id="rect305"
       style="fill:#ffffff;stroke-width:0.264583"
       d="M -35.67831,85.181946 H 203.8044 V 232.5249 H -35.67831 Z" />
    <g
       aria-label="This is to certify that "
       transform="scale(0.26458333)"
       id="text5939"
       style="font-size:86.6667px;line-height:1.25;white-space:pre;shape-inside:url(#rect5941)">
      <path
         d="m -128.16067,335.44662 h 53.447292 v 7.19401 h -22.428395 v 55.98635 h -8.590497 v -55.98635 h -22.4284 z"
         style="text-align:center;text-anchor:middle"
         id="path85441" />
      <path
         d="m -27.40216,370.0202 v 28.60678 h -7.786461 v -28.35287 q 0,-6.72852 -2.623699,-10.07162 -2.623699,-3.3431 -7.871097,-3.3431 -6.305341,0 -9.944666,4.02018 -3.639324,4.02019 -3.639324,10.96029 v 26.78712 h -7.828779 V 332.7806 h 7.828779 v 25.81382 q 2.79297,-4.27409 6.559247,-6.38998 3.808596,-2.11589 8.75977,-2.11589 8.167321,0 12.356776,5.07813 4.189454,5.03581 4.189454,14.85352 z"
         style="text-align:center;text-anchor:middle"
         id="path85443" />
      <path
         d="m -11.871549,351.23113 h 7.7864617 v 47.39585 h -7.7864617 z m 0,-18.45053 h 7.7864617 v 9.86003 h -7.7864617 z"
         style="text-align:center;text-anchor:middle"
         id="path85445" />
      <path
         d="m 42.422089,352.62762 v 7.36328 q -3.300783,-1.69271 -6.855472,-2.53906 -3.554689,-0.84636 -7.363284,-0.84636 -5.797529,0 -8.717452,1.77735 -2.877605,1.77734 -2.877605,5.33203 0,2.70834 2.073568,4.27409 2.073569,1.52344 8.336592,2.91992 l 2.666017,0.59245 q 8.294274,1.77735 11.764328,5.03581 3.512371,3.21615 3.512371,9.01368 0,6.60156 -5.247398,10.45248 -5.20508,3.85091 -14.345709,3.85091 -3.808595,0 -7.955732,-0.76172 -4.10482,-0.7194 -8.6751342,-2.20052 v -8.04037 q 4.3164082,2.24284 8.5058632,3.38542 4.189455,1.10026 8.294274,1.10026 5.501304,0 8.463545,-1.86198 2.962241,-1.9043 2.962241,-5.33203 0,-3.17383 -2.158204,-4.86654 -2.115886,-1.69271 -9.352218,-3.25847 l -2.708334,-0.63476 q -7.236331,-1.52344 -10.452478,-4.65495 -3.2161474,-3.17383 -3.2161474,-8.67514 0,-6.6862 4.7395854,-10.32552 4.739585,-3.63933 13.457037,-3.63933 4.316408,0 8.125003,0.63477 3.808595,0.63476 7.024743,1.9043 z"
         style="text-align:center;text-anchor:middle"
         id="path85447" />
      <path
         d="m 84.909091,351.23113 h 7.786461 v 47.39585 h -7.786461 z m 0,-18.45053 h 7.786461 v 9.86003 h -7.786461 z"
         style="text-align:center;text-anchor:middle"
         id="path85449" />
      <path
         d="m 139.20273,352.62762 v 7.36328 q -3.30078,-1.69271 -6.85547,-2.53906 -3.55469,-0.84636 -7.36329,-0.84636 -5.79753,0 -8.71745,1.77735 -2.8776,1.77734 -2.8776,5.33203 0,2.70834 2.07356,4.27409 2.07357,1.52344 8.3366,2.91992 l 2.66601,0.59245 q 8.29428,1.77735 11.76433,5.03581 3.51237,3.21615 3.51237,9.01368 0,6.60156 -5.2474,10.45248 -5.20508,3.85091 -14.34571,3.85091 -3.80859,0 -7.95573,-0.76172 -4.10482,-0.7194 -8.67513,-2.20052 v -8.04037 q 4.31641,2.24284 8.50586,3.38542 4.18946,1.10026 8.29428,1.10026 5.5013,0 8.46354,-1.86198 2.96224,-1.9043 2.96224,-5.33203 0,-3.17383 -2.1582,-4.86654 -2.11589,-1.69271 -9.35222,-3.25847 l -2.70833,-0.63476 q -7.23634,-1.52344 -10.45248,-4.65495 -3.21615,-3.17383 -3.21615,-8.67514 0,-6.6862 4.73959,-10.32552 4.73958,-3.63933 13.45703,-3.63933 4.31641,0 8.12501,0.63477 3.80859,0.63476 7.02474,1.9043 z"
         style="text-align:center;text-anchor:middle"
         id="path85451" />
      <path
         d="m 189.39156,337.7741 v 13.45703 h 16.03841 v 6.05144 h -16.03841 v 25.72917 q 0,5.79753 1.56575,7.44792 1.60808,1.65039 6.47461,1.65039 h 7.99805 v 6.51693 h -7.99805 q -9.01367,0 -12.44141,-3.3431 -3.42773,-3.38541 -3.42773,-12.27214 v -25.72917 h -5.7129 v -6.05144 h 5.7129 V 337.7741 Z"
         style="text-align:center;text-anchor:middle"
         id="path85453" />
      <path
         d="m 234.03676,356.69012 q -6.26302,0 -9.90234,4.90885 -3.63933,4.86654 -3.63933,13.37241 0,8.50586 3.59701,13.41472 3.63932,4.86653 9.94466,4.86653 6.22071,0 9.86003,-4.90885 3.63933,-4.90886 3.63933,-13.3724 0,-8.42123 -3.63933,-13.33009 -3.63932,-4.95117 -9.86003,-4.95117 z m 0,-6.60157 q 10.15626,0 15.95379,6.60157 5.79752,6.60156 5.79752,18.28126 0,11.63737 -5.79752,18.28125 -5.79753,6.60157 -15.95379,6.60157 -10.19857,0 -15.9961,-6.60157 -5.75521,-6.64388 -5.75521,-18.28125 0,-11.6797 5.75521,-18.28126 5.79753,-6.60157 15.9961,-6.60157 z"
         style="text-align:center;text-anchor:middle"
         id="path85455" />
      <path
         d="m 330.35189,353.05079 v 7.27865 q -3.30078,-1.81966 -6.64388,-2.70833 -3.30078,-0.93099 -6.6862,-0.93099 -7.57487,0 -11.76433,4.82422 -4.18945,4.7819 -4.18945,13.45704 0,8.67513 4.18945,13.49935 4.18946,4.7819 11.76433,4.7819 3.38542,0 6.6862,-0.88867 3.3431,-0.93099 6.64388,-2.75065 v 7.19401 q -3.25846,1.52344 -6.77083,2.28516 -3.47006,0.76172 -7.4056,0.76172 -10.70639,0 -17.01173,-6.72852 -6.30534,-6.72852 -6.30534,-18.1543 0,-11.59506 6.34766,-18.23894 6.38998,-6.64389 17.47722,-6.64389 3.59701,0 7.02474,0.76172 3.42774,0.7194 6.64388,2.20052 z"
         style="text-align:center;text-anchor:middle"
         id="path85457" />
      <path
         d="m 384.43394,372.98244 v 3.8086 h -35.8008 q 0.50782,8.04037 4.82422,12.27214 4.35873,4.18945 12.10287,4.18945 4.48568,0 8.67514,-1.10026 4.23177,-1.10026 8.37891,-3.30078 v 7.36328 q -4.18946,1.77735 -8.5905,2.70834 -4.40105,0.93099 -8.92904,0.93099 -11.34115,0 -17.98504,-6.60157 -6.60156,-6.60156 -6.60156,-17.85808 0,-11.63737 6.26302,-18.45053 6.30534,-6.85547 16.96941,-6.85547 9.56381,0 15.10743,6.17839 5.58594,6.13607 5.58594,16.7155 z m -7.78646,-2.28515 q -0.0846,-6.38998 -3.59701,-10.19858 -3.47005,-3.80859 -9.22526,-3.80859 -6.51693,0 -10.45248,3.68164 -3.89323,3.68164 -4.48568,10.36784 z"
         style="text-align:center;text-anchor:middle"
         id="path85459" />
      <path
         d="m 424.67813,358.50978 q -1.31184,-0.76172 -2.8776,-1.10026 -1.52344,-0.38086 -3.38542,-0.38086 -6.60156,0 -10.15625,4.31641 -3.51237,4.27409 -3.51237,12.31446 v 24.96745 h -7.82878 v -47.39585 h 7.82878 v 7.36329 q 2.45442,-4.31641 6.38997,-6.38998 3.93555,-2.11589 9.56381,-2.11589 0.80404,0 1.77734,0.12696 0.97331,0.0846 2.15821,0.29622 z"
         style="text-align:center;text-anchor:middle"
         id="path85461" />
      <path
         d="m 440.54723,337.7741 v 13.45703 h 16.03841 v 6.05144 h -16.03841 v 25.72917 q 0,5.79753 1.56575,7.44792 1.60808,1.65039 6.47461,1.65039 h 7.99805 v 6.51693 h -7.99805 q -9.01367,0 -12.44141,-3.3431 -3.42773,-3.38541 -3.42773,-12.27214 v -25.72917 h -5.7129 v -6.05144 h 5.7129 V 337.7741 Z"
         style="text-align:center;text-anchor:middle"
         id="path85463" />
      <path
         d="m 466.82654,351.23113 h 7.78646 v 47.39585 h -7.78646 z m 0,-18.45053 h 7.78646 v 9.86003 h -7.78646 z"
         style="text-align:center;text-anchor:middle"
         id="path85465" />
      <path
         d="m 514.89949,332.7806 v 6.47462 h -7.44792 q -4.18946,0 -5.83985,1.6927 -1.60807,1.69271 -1.60807,6.09376 v 4.18945 h 12.82227 v 6.05144 h -12.82227 v 41.34441 h -7.82878 v -41.34441 h -7.44792 v -6.05144 h 7.44792 v -3.30078 q 0,-7.91342 3.68164,-11.51042 3.68164,-3.63933 11.67969,-3.63933 z"
         style="text-align:center;text-anchor:middle"
         id="path85467" />
      <path
         d="m 539.61307,403.02803 q -3.30078,8.46354 -6.4323,11.04492 -3.13151,2.58139 -8.37891,2.58139 h -6.2207 v -6.51693 h 4.57031 q 3.21615,0 4.99349,-1.52344 1.77735,-1.52344 3.93555,-7.19402 l 1.39649,-3.55468 -19.16993,-46.63414 h 8.25195 l 14.81121,37.07033 14.8112,-37.07033 h 8.25196 z"
         style="text-align:center;text-anchor:middle"
         id="path85469" />
      <path
         d="m 606.43272,337.7741 v 13.45703 h 16.03842 v 6.05144 h -16.03842 v 25.72917 q 0,5.79753 1.56576,7.44792 1.60807,1.65039 6.47461,1.65039 h 7.99805 v 6.51693 h -7.99805 q -9.01367,0 -12.44141,-3.3431 -3.42773,-3.38541 -3.42773,-12.27214 v -25.72917 h -5.7129 v -6.05144 h 5.7129 V 337.7741 Z"
         style="text-align:center;text-anchor:middle"
         id="path85471" />
      <path
         d="m 672.10984,370.0202 v 28.60678 h -7.78646 v -28.35287 q 0,-6.72852 -2.6237,-10.07162 -2.6237,-3.3431 -7.8711,-3.3431 -6.30534,0 -9.94466,4.02018 -3.63933,4.02019 -3.63933,10.96029 v 26.78712 h -7.82878 V 332.7806 h 7.82878 v 25.81382 q 2.79297,-4.27409 6.55925,-6.38998 3.8086,-2.11589 8.75977,-2.11589 8.16732,0 12.35678,5.07813 4.18945,5.03581 4.18945,14.85352 z"
         style="text-align:center;text-anchor:middle"
         id="path85473" />
      <path
         d="m 709.18017,374.80211 q -9.43686,0 -13.07618,2.1582 -3.63932,2.1582 -3.63932,7.36328 0,4.14714 2.70833,6.60157 2.75065,2.41211 7.44792,2.41211 6.47461,0 10.36784,-4.57032 3.93555,-4.61263 3.93555,-12.22982 v -1.73502 z m 15.5306,-3.21615 v 27.04102 h -7.78646 v -7.19401 q -2.66602,4.31641 -6.64388,6.38998 -3.97787,2.03125 -9.73308,2.03125 -7.27865,0 -11.59506,-4.0625 -4.27409,-4.10482 -4.27409,-10.96029 0,-7.99805 5.33204,-12.06056 5.37435,-4.0625 15.9961,-4.0625 h 10.91797 v -0.76172 q 0,-5.37435 -3.55469,-8.29427 -3.51237,-2.96224 -9.90235,-2.96224 -4.0625,0 -7.91341,0.97331 -3.85091,0.9733 -7.4056,2.91992 v -7.19401 q 4.27409,-1.6504 8.29427,-2.45443 4.02019,-0.84636 7.82878,-0.84636 10.28321,0 15.36134,5.33204 5.07812,5.33203 5.07812,16.16537 z"
         style="text-align:center;text-anchor:middle"
         id="path85475" />
      <path
         d="m 748.45104,337.7741 v 13.45703 h 16.03841 v 6.05144 h -16.03841 v 25.72917 q 0,5.79753 1.56575,7.44792 1.60807,1.65039 6.47461,1.65039 h 7.99805 v 6.51693 h -7.99805 q -9.01367,0 -12.44141,-3.3431 -3.42773,-3.38541 -3.42773,-12.27214 v -25.72917 h -5.7129 v -6.05144 h 5.7129 V 337.7741 Z"
         style="text-align:center;text-anchor:middle"
         id="path85477" />
    </g>
    <path
       id="rect11903"
       style="stroke-width:0.264583"
       d="m -29.12537,166.18369 h 226.36751 v 2.96034 H -29.12537 Z" />
    <g
       aria-label="(insert your name here ya BIG NUB)"
       transform="matrix(0.26458333,0,0,0.26458333,0,16.933338)"
       id="text17023"
       style="font-size:40px;line-height:1.25;white-space:pre;shape-inside:url(#rect17025)">
      <path
         d="m -21.97168,524.5332 q -5.175781,6.46485 -7.734375,12.28516 -2.539062,5.80078 -2.539062,11.19141 0,3.08593 0.742187,6.13281 0.742188,3.02734 2.226563,6.01562 h -3.125 q -1.796875,-3.35937 -2.675781,-6.52343 -0.878907,-3.1836 -0.878907,-6.23047 0,-5.80078 2.675782,-11.48438 2.695312,-5.70312 8.125,-11.38672 z"
         style="font-style:italic;text-align:center;text-anchor:middle"
         id="path85383" />
      <path
         d="m -16.112305,524.49414 h 3.59375 l -0.878906,4.55078 h -3.59375 z m -1.640625,8.51563 h 3.59375 l -4.277343,21.875 h -3.59375 z"
         style="font-style:italic;text-align:center;text-anchor:middle"
         id="path85385" />
      <path
         d="M 9.9619141,541.68164 7.4033203,554.88477 H 3.7900391 l 2.5585937,-13.06641 q 0.1757813,-0.91797 0.2734375,-1.62109 0.097656,-0.70313 0.097656,-1.11329 0,-1.64062 -1.0351563,-2.55859 -1.0351562,-0.91797 -2.890625,-0.91797 -2.89062499,0 -4.9804687,1.9336 -2.0898438,1.91406 -2.734375,5.21484 l -2.4023438,12.12891 h -3.5937498 l 4.2382811,-21.875 h 3.59375 l -0.7226563,3.4375 q 1.5039063,-1.89454 3.61328126,-2.92969 2.10937504,-1.03516 4.43359374,-1.03516 2.890625,0 4.4726563,1.5625 1.6015629,1.5625 1.6015629,4.39453 0,0.70313 -0.09766,1.50391 -0.07813,0.80078 -0.2539059,1.73828 z"
         style="font-style:italic;text-align:center;text-anchor:middle"
         id="path85387" />
      <path
         d="m 33.02832,533.6543 -0.683593,3.39843 q -1.425782,-0.78125 -3.007813,-1.17187 -1.582031,-0.39063 -3.261719,-0.39063 -2.832031,0 -4.472656,0.97657 -1.621094,0.95703 -1.621094,2.61718 0,1.9336 3.789063,2.96875 0.292969,0.0781 0.429687,0.11719 l 1.152344,0.35156 q 3.59375,0.9961 4.785156,2.08985 1.210938,1.09375 1.210938,2.98828 0,3.47656 -2.773438,5.66406 -2.753906,2.1875 -7.226562,2.1875 -1.738281,0 -3.652344,-0.33203 -1.914062,-0.33203 -4.21875,-1.03516 l 0.703125,-3.71093 q 1.972656,1.01562 3.886719,1.54297 1.914062,0.52734 3.671875,0.52734 2.636719,0 4.277344,-1.13281 1.660156,-1.13282 1.660156,-2.8711 0,-1.875 -4.335938,-3.02734 l -0.371093,-0.0977 -1.230469,-0.3125 q -2.734375,-0.72265 -4.003906,-1.89453 -1.269532,-1.1914 -1.269532,-3.02734 0,-3.4961 2.617188,-5.54688 2.636719,-2.05078 7.148437,-2.05078 1.777344,0 3.457032,0.29297 1.699218,0.29297 3.339843,0.87891 z"
         style="font-style:italic;text-align:center;text-anchor:middle"
         id="path85389" />
      <path
         d="m 53.106445,541.99414 q 0.05859,-0.3125 0.07813,-0.64453 0.03906,-0.33203 0.03906,-0.66406 0,-2.38282 -1.40625,-3.76953 -1.386719,-1.38672 -3.789063,-1.38672 -2.675781,0 -4.726562,1.69922 -2.050781,1.67968 -3.105469,4.78515 z m 3.125,2.8125 h -16.71875 q -0.117187,0.74219 -0.15625,1.17188 -0.03906,0.42968 -0.03906,0.74218 0,2.71485 1.660156,4.19922 1.679688,1.48438 4.726563,1.48438 2.34375,0 4.433593,-0.52735 2.089844,-0.52734 3.886719,-1.54297 l -0.683594,3.55469 q -1.933593,0.78125 -4.003906,1.17188 -2.050781,0.39062 -4.179687,0.39062 -4.550782,0 -7.011719,-2.16797 -2.441406,-2.1875 -2.441406,-6.1914 0,-3.41797 1.210937,-6.34766 1.230469,-2.94922 3.59375,-5.25391 1.523438,-1.44531 3.613281,-2.22656 2.109375,-0.78125 4.472657,-0.78125 3.710937,0 5.898437,2.22656 2.207031,2.22657 2.207031,5.97657 0,0.89843 -0.117187,1.93359 -0.117188,1.01563 -0.351563,2.1875 z"
         style="font-style:italic;text-align:center;text-anchor:middle"
         id="path85391" />
      <path
         d="m 76.30957,536.33008 q -0.546875,-0.29297 -1.25,-0.44922 -0.703125,-0.15625 -1.503906,-0.15625 -2.871094,0 -5.019531,2.1875 -2.148438,2.16797 -2.851563,5.82031 l -2.207031,11.15235 h -3.59375 l 4.277344,-21.875 h 3.59375 l -0.683594,3.39843 q 1.425781,-1.89453 3.398438,-2.91015 1.992187,-1.01563 4.238281,-1.01563 0.585937,0 1.152344,0.0781 0.566406,0.0586 1.132812,0.21484 z"
         style="font-style:italic;text-align:center;text-anchor:middle"
         id="path85393" />
      <path
         d="m 91.836914,533.00977 -0.546875,2.79296 H 84.12207 l -2.324218,11.875 q -0.117188,0.66407 -0.175782,1.11329 -0.05859,0.44921 -0.05859,0.70312 0,1.25 0.742187,1.81641 0.761719,0.5664 2.421875,0.5664 h 3.632813 l -0.605469,3.00782 h -3.4375 q -3.203125,0 -4.785156,-1.25 -1.5625,-1.25 -1.5625,-3.78907 0,-0.44922 0.05859,-0.97656 0.05859,-0.54687 0.175782,-1.19141 l 2.324218,-11.875 h -3.046875 l 0.566407,-2.79296 h 2.988281 l 1.210937,-6.21094 h 3.59375 l -1.191406,6.21094 z"
         style="font-style:italic;text-align:center;text-anchor:middle"
         id="path85395" />
      <path
         d="m 113.24316,556.91602 q -2.5,4.19921 -4.08203,5.23437 -1.5625,1.05469 -4.0039,1.05469 h -2.83203 l 0.60546,-3.00781 h 2.07032 q 1.5039,0 2.55859,-0.82032 1.05469,-0.82031 2.36328,-3.20312 l 1.11328,-2.08985 -4.84375,-21.07421 h 3.8086 l 3.63281,16.75781 10.03906,-16.75781 h 3.76953 z"
         style="font-style:italic;text-align:center;text-anchor:middle"
         id="path85397" />
      <path
         d="m 137.14941,555.45117 q -3.84765,0 -6.09375,-2.36328 -2.22656,-2.38281 -2.22656,-6.48437 0,-2.38282 0.76172,-4.84375 0.78125,-2.48047 2.01172,-4.16016 1.93359,-2.61719 4.31641,-3.86719 2.38281,-1.25 5.39062,-1.25 3.73047,0 6.01563,2.32422 2.30468,2.32422 2.30468,6.07422 0,2.59766 -0.76172,5.17578 -0.76171,2.57813 -1.99218,4.27734 -1.91407,2.61719 -4.29688,3.86719 -2.38281,1.25 -5.42969,1.25 z m -4.58984,-8.96484 q 0,2.96875 1.23047,4.45312 1.25,1.46485 3.76953,1.46485 3.61328,0 5.97656,-3.14453 2.38282,-3.16407 2.38282,-8.00782 0,-2.83203 -1.26954,-4.27734 -1.26953,-1.44531 -3.73046,-1.44531 -2.03125,0 -3.61329,0.95703 -1.58203,0.9375 -2.83203,2.87109 -0.91797,1.44531 -1.42578,3.30078 -0.48828,1.85547 -0.48828,3.82813 z"
         style="font-style:italic;text-align:center;text-anchor:middle"
         id="path85399" />
      <path
         d="m 154.1416,546.21289 2.5586,-13.20312 h 3.61328 l -2.5586,13.0664 q -0.19531,0.95703 -0.29297,1.64063 -0.0781,0.68359 -0.0781,1.13281 0,1.66016 1.01562,2.57812 1.01563,0.89844 2.8711,0.89844 2.89062,0 5,-1.95312 2.10937,-1.95313 2.7539,-5.25391 l 2.40235,-12.10937 h 3.59375 l -4.23828,21.875 h -3.59375 l 0.72265,-3.4375 q -1.52343,1.91406 -3.63281,2.96875 -2.08984,1.03515 -4.45312,1.03515 -2.8711,0 -4.47266,-1.5625 -1.60156,-1.58203 -1.60156,-4.39453 0,-0.58594 0.0977,-1.46484 0.0977,-0.87891 0.29297,-1.81641 z"
         style="font-style:italic;text-align:center;text-anchor:middle"
         id="path85401" />
      <path
         d="m 194.64941,536.33008 q -0.54687,-0.29297 -1.25,-0.44922 -0.70312,-0.15625 -1.5039,-0.15625 -2.8711,0 -5.01953,2.1875 -2.14844,2.16797 -2.85157,5.82031 l -2.20703,11.15235 h -3.59375 l 4.27735,-21.875 h 3.59375 l -0.6836,3.39843 q 1.42578,-1.89453 3.39844,-2.91015 1.99219,-1.01563 4.23828,-1.01563 0.58594,0 1.15235,0.0781 0.5664,0.0586 1.13281,0.21484 z"
         style="font-style:italic;text-align:center;text-anchor:middle"
         id="path85403" />
      <path
         d="m 228.2627,541.68164 -2.5586,13.20313 h -3.61328 l 2.55859,-13.06641 q 0.17579,-0.91797 0.27344,-1.62109 0.0977,-0.70313 0.0977,-1.11329 0,-1.64062 -1.03516,-2.55859 -1.03515,-0.91797 -2.89062,-0.91797 -2.89063,0 -4.98047,1.9336 -2.08985,1.91406 -2.73438,5.21484 l -2.40234,12.12891 h -3.59375 l 4.23828,-21.875 h 3.59375 l -0.72266,3.4375 q 1.50391,-1.89454 3.61329,-2.92969 2.10937,-1.03516 4.43359,-1.03516 2.89062,0 4.47266,1.5625 1.60156,1.5625 1.60156,4.39453 0,0.70313 -0.0977,1.50391 -0.0781,0.80078 -0.2539,1.73828 z"
         style="font-style:italic;text-align:center;text-anchor:middle"
         id="path85405" />
      <path
         d="m 252.81348,542.4043 -2.44141,12.48047 h -3.59375 l 0.66406,-3.32032 q -1.58203,1.95313 -3.61328,2.92969 -2.01172,0.95703 -4.49219,0.95703 -2.79296,0 -4.58984,-1.69922 -1.77734,-1.71875 -1.77734,-4.39453 0,-3.82812 3.04687,-6.05469 3.06641,-2.22656 8.4375,-2.22656 h 5 l 0.19531,-0.95703 q 0.0391,-0.15625 0.0586,-0.33203 0.0195,-0.19531 0.0195,-0.58594 0,-1.73828 -1.42578,-2.69531 -1.40625,-0.97656 -3.96485,-0.97656 -1.75781,0 -3.61328,0.44922 -1.83593,0.44921 -3.78906,1.34765 l 0.625,-3.32031 q 2.03125,-0.76172 3.96484,-1.13281 1.95313,-0.39063 3.76954,-0.39063 3.86718,0 5.8789,1.67969 2.03125,1.67969 2.03125,4.88281 0,0.64453 -0.0977,1.52344 -0.0977,0.85937 -0.29297,1.83594 z m -3.88672,1.48437 h -3.59375 q -4.41406,0 -6.54297,1.19141 -2.10938,1.17187 -2.10938,3.65234 0,1.71875 1.07422,2.69531 1.09375,0.97657 3.00782,0.97657 2.92968,0 5.11718,-2.08985 2.1875,-2.10937 2.89063,-5.625 z"
         style="font-style:italic;text-align:center;text-anchor:middle"
         id="path85407" />
      <path
         d="m 291.75879,541.68164 -2.55859,13.20313 h -3.59375 l 2.51953,-13.08594 q 0.15625,-0.83985 0.23437,-1.44531 0.0781,-0.60547 0.0781,-1.03516 0,-1.75781 -0.97657,-2.73438 -0.97656,-0.97656 -2.73437,-0.97656 -2.61719,0 -4.66797,1.97266 -2.05078,1.95312 -2.65625,5.09765 l -2.40234,12.20704 h -3.59375 l 2.55859,-13.08594 q 0.15625,-0.72266 0.23438,-1.32813 0.0781,-0.625 0.0781,-1.11328 0,-1.77734 -0.97656,-2.7539 -0.97656,-0.9961 -2.69531,-0.9961 -2.65625,0 -4.70704,1.97266 -2.05078,1.95312 -2.65625,5.09765 l -2.40234,12.20704 h -3.59375 l 4.27734,-21.875 h 3.59375 l -0.68359,3.39843 q 1.46484,-1.91406 3.41797,-2.91015 1.97266,-1.01563 4.21875,-1.01563 2.38281,0 3.90625,1.25 1.54297,1.25 1.85547,3.47656 1.64062,-2.30468 3.78906,-3.51562 2.16797,-1.21094 4.57031,-1.21094 2.8125,0 4.33594,1.6211 1.54297,1.62109 1.54297,4.58984 0,0.64453 -0.0781,1.42578 -0.0781,0.76172 -0.23437,1.5625 z"
         style="font-style:italic;text-align:center;text-anchor:middle"
         id="path85409" />
      <path
         d="m 314.04395,541.99414 q 0.0586,-0.3125 0.0781,-0.64453 0.0391,-0.33203 0.0391,-0.66406 0,-2.38282 -1.40625,-3.76953 -1.38672,-1.38672 -3.78906,-1.38672 -2.67578,0 -4.72656,1.69922 -2.05078,1.67968 -3.10547,4.78515 z m 3.125,2.8125 H 300.4502 q -0.11719,0.74219 -0.15625,1.17188 -0.0391,0.42968 -0.0391,0.74218 0,2.71485 1.66016,4.19922 1.67969,1.48438 4.72656,1.48438 2.34375,0 4.4336,-0.52735 2.08984,-0.52734 3.88671,-1.54297 l -0.68359,3.55469 q -1.93359,0.78125 -4.00391,1.17188 -2.05078,0.39062 -4.17968,0.39062 -4.55078,0 -7.01172,-2.16797 -2.44141,-2.1875 -2.44141,-6.1914 0,-3.41797 1.21094,-6.34766 1.23047,-2.94922 3.59375,-5.25391 1.52344,-1.44531 3.61328,-2.22656 2.10938,-0.78125 4.47266,-0.78125 3.71093,0 5.89843,2.22656 2.20704,2.22657 2.20704,5.97657 0,0.89843 -0.11719,1.93359 -0.11719,1.01563 -0.35156,2.1875 z"
         style="font-style:italic;text-align:center;text-anchor:middle"
         id="path85411" />
      <path
         d="m 354.41504,541.68164 -2.55859,13.20313 h -3.61329 l 2.5586,-13.06641 q 0.17578,-0.91797 0.27344,-1.62109 0.0976,-0.70313 0.0976,-1.11329 0,-1.64062 -1.03515,-2.55859 -1.03516,-0.91797 -2.89063,-0.91797 -2.89062,0 -5.01953,1.95313 -2.10938,1.95312 -2.73438,5.19531 l -2.36328,12.12891 h -3.59375 l 5.91797,-30.39063 h 3.59375 l -2.32422,11.95313 q 1.36719,-1.83594 3.4961,-2.89063 2.1289,-1.07422 4.47265,-1.07422 2.89063,0 4.47266,1.5625 1.60156,1.5625 1.60156,4.39453 0,0.70313 -0.0976,1.50391 -0.0781,0.80078 -0.25391,1.73828 z"
         style="font-style:italic;text-align:center;text-anchor:middle"
         id="path85413" />
      <path
         d="m 376.71973,541.99414 q 0.0586,-0.3125 0.0781,-0.64453 0.0391,-0.33203 0.0391,-0.66406 0,-2.38282 -1.40625,-3.76953 -1.38671,-1.38672 -3.78906,-1.38672 -2.67578,0 -4.72656,1.69922 -2.05078,1.67968 -3.10547,4.78515 z m 3.125,2.8125 h -16.71875 q -0.11719,0.74219 -0.15625,1.17188 -0.0391,0.42968 -0.0391,0.74218 0,2.71485 1.66016,4.19922 1.67969,1.48438 4.72656,1.48438 2.34375,0 4.4336,-0.52735 2.08984,-0.52734 3.88672,-1.54297 l -0.6836,3.55469 q -1.93359,0.78125 -4.0039,1.17188 -2.05079,0.39062 -4.17969,0.39062 -4.55078,0 -7.01172,-2.16797 -2.44141,-2.1875 -2.44141,-6.1914 0,-3.41797 1.21094,-6.34766 1.23047,-2.94922 3.59375,-5.25391 1.52344,-1.44531 3.61328,-2.22656 2.10938,-0.78125 4.47266,-0.78125 3.71094,0 5.89844,2.22656 2.20703,2.22657 2.20703,5.97657 0,0.89843 -0.11719,1.93359 -0.11719,1.01563 -0.35156,2.1875 z"
         style="font-style:italic;text-align:center;text-anchor:middle"
         id="path85415" />
      <path
         d="m 399.92285,536.33008 q -0.54687,-0.29297 -1.25,-0.44922 -0.70312,-0.15625 -1.5039,-0.15625 -2.8711,0 -5.01954,2.1875 -2.14843,2.16797 -2.85156,5.82031 l -2.20703,11.15235 h -3.59375 l 4.27734,-21.875 h 3.59375 l -0.68359,3.39843 q 1.42578,-1.89453 3.39844,-2.91015 1.99219,-1.01563 4.23828,-1.01563 0.58594,0 1.15234,0.0781 0.56641,0.0586 1.13282,0.21484 z"
         style="font-style:italic;text-align:center;text-anchor:middle"
         id="path85417" />
      <path
         d="m 417.77441,541.99414 q 0.0586,-0.3125 0.0781,-0.64453 0.0391,-0.33203 0.0391,-0.66406 0,-2.38282 -1.40625,-3.76953 -1.38672,-1.38672 -3.78906,-1.38672 -2.67578,0 -4.72656,1.69922 -2.05078,1.67968 -3.10547,4.78515 z m 3.125,2.8125 h -16.71875 q -0.11718,0.74219 -0.15625,1.17188 -0.0391,0.42968 -0.0391,0.74218 0,2.71485 1.66016,4.19922 1.67969,1.48438 4.72656,1.48438 2.34375,0 4.43359,-0.52735 2.08985,-0.52734 3.88672,-1.54297 l -0.68359,3.55469 q -1.93359,0.78125 -4.00391,1.17188 -2.05078,0.39062 -4.17968,0.39062 -4.55079,0 -7.01172,-2.16797 -2.44141,-2.1875 -2.44141,-6.1914 0,-3.41797 1.21094,-6.34766 1.23047,-2.94922 3.59375,-5.25391 1.52344,-1.44531 3.61328,-2.22656 2.10937,-0.78125 4.47266,-0.78125 3.71093,0 5.89843,2.22656 2.20703,2.22657 2.20703,5.97657 0,0.89843 -0.11718,1.93359 -0.11719,1.01563 -0.35157,2.1875 z"
         style="font-style:italic;text-align:center;text-anchor:middle"
         id="path85419" />
      <path
         d="m 445.78223,556.91602 q -2.5,4.19921 -4.08203,5.23437 -1.5625,1.05469 -4.00391,1.05469 h -2.83203 l 0.60547,-3.00781 h 2.07031 q 1.50391,0 2.55859,-0.82032 1.05469,-0.82031 2.36328,-3.20312 l 1.11329,-2.08985 -4.84375,-21.07421 h 3.80859 l 3.63281,16.75781 10.03906,-16.75781 h 3.76954 z"
         style="font-style:italic;text-align:center;text-anchor:middle"
         id="path85421" />
      <path
         d="m 481.0166,542.4043 -2.4414,12.48047 h -3.59375 l 0.66406,-3.32032 q -1.58203,1.95313 -3.61328,2.92969 -2.01172,0.95703 -4.49219,0.95703 -2.79297,0 -4.58984,-1.69922 -1.77735,-1.71875 -1.77735,-4.39453 0,-3.82812 3.04688,-6.05469 3.0664,-2.22656 8.4375,-2.22656 h 5 l 0.19531,-0.95703 q 0.0391,-0.15625 0.0586,-0.33203 0.0195,-0.19531 0.0195,-0.58594 0,-1.73828 -1.42578,-2.69531 -1.40625,-0.97656 -3.96484,-0.97656 -1.75781,0 -3.61328,0.44922 -1.83594,0.44921 -3.78906,1.34765 l 0.625,-3.32031 q 2.03125,-0.76172 3.96484,-1.13281 1.95312,-0.39063 3.76953,-0.39063 3.86719,0 5.87891,1.67969 2.03125,1.67969 2.03125,4.88281 0,0.64453 -0.0977,1.52344 -0.0977,0.85937 -0.29297,1.83594 z m -3.88672,1.48437 h -3.59375 q -4.41406,0 -6.54297,1.19141 -2.10937,1.17187 -2.10937,3.65234 0,1.71875 1.07422,2.69531 1.09375,0.97657 3.00781,0.97657 2.92969,0 5.11719,-2.08985 2.1875,-2.10937 2.89062,-5.625 z"
         style="font-style:italic;text-align:center;text-anchor:middle"
         id="path85423" />
      <path
         d="m 503.5166,525.72461 h 10.07813 q 4.10156,0 6.13281,1.52344 2.03125,1.52343 2.03125,4.58984 0,2.8125 -1.75781,4.86328 -1.73828,2.03125 -4.57032,2.46094 2.42188,0.54687 3.63282,2.08984 1.21093,1.54297 1.21093,4.1211 0,4.39453 -3.26171,6.95312 -3.24219,2.5586 -8.88672,2.5586 h -10.29297 z m 0.95703,15.23437 -2.07031,10.6836 h 6.34766 q 3.57422,0 5.50781,-1.64063 1.93359,-1.64062 1.93359,-4.6289 0,-2.30469 -1.28906,-3.35938 -1.26953,-1.05469 -4.10156,-1.05469 z m 2.32422,-11.99218 -1.71875,8.78906 h 5.87891 q 3.14453,0 4.90234,-1.36719 1.77735,-1.36719 1.77735,-3.78906 0,-1.89453 -1.19141,-2.75391 -1.19141,-0.8789 -3.80859,-0.8789 z"
         style="font-style:italic;text-align:center;text-anchor:middle"
         id="path85425" />
      <path
         d="m 530.95801,525.72461 h 3.96484 l -5.68359,29.16016 h -3.96485 z"
         style="font-style:italic;text-align:center;text-anchor:middle"
         id="path85427" />
      <path
         d="m 557.83301,550.5293 1.52344,-7.63672 h -6.48438 l 0.60547,-3.24219 h 10.35156 l -2.51953,12.83203 q -2.59766,1.42578 -5.66406,2.20703 -3.06641,0.76172 -6.17188,0.76172 -5.48828,0 -8.59375,-3.04687 -3.08593,-3.04688 -3.08593,-8.47657 0,-4.51171 1.875,-8.57421 1.89453,-4.08204 5.21484,-6.79688 2.08984,-1.69922 4.57031,-2.51953 2.48047,-0.83984 5.50781,-0.83984 2.73438,0 5.23438,0.70312 2.51953,0.68359 4.80469,2.07031 l -0.80078,4.19922 q -1.75782,-1.83594 -4.1211,-2.79297 -2.36328,-0.97656 -5.03906,-0.97656 -3.10547,0 -5.46875,1.19141 -2.36328,1.17187 -4.21875,3.65234 -1.58203,2.10938 -2.5,4.98047 -0.89844,2.85156 -0.89844,5.82031 0,4.08203 2.08985,6.15235 2.08984,2.05078 6.23046,2.05078 2.07032,0 4.00391,-0.42969 1.93359,-0.44922 3.55469,-1.28906 z"
         style="font-style:italic;text-align:center;text-anchor:middle"
         id="path85429" />
      <path
         d="m 586.46582,525.72461 h 5.3125 l 8.04688,25 4.88281,-25 h 3.84765 l -5.68359,29.16016 h -5.33203 l -8.02734,-25.15625 -4.88282,25.15625 h -3.84765 z"
         style="font-style:italic;text-align:center;text-anchor:middle"
         id="path85431" />
      <path
         d="m 615.82129,525.72461 h 3.96484 l -3.4375,17.71484 q -0.21484,1.19141 -0.3125,1.97266 -0.0781,0.76172 -0.0781,1.34766 0,2.69531 1.5039,4.10156 1.50391,1.38672 4.41407,1.38672 3.76953,0 5.85937,-2.07032 2.10938,-2.07031 3.00781,-6.73828 l 3.4375,-17.71484 h 3.96485 l -3.51563,18.20312 q -1.15234,5.89844 -4.375,8.71094 -3.22265,2.8125 -8.82812,2.8125 -4.375,0 -6.9336,-2.1875 -2.53906,-2.20703 -2.53906,-5.97656 0,-0.68359 0.0977,-1.52344 0.0977,-0.85937 0.29297,-1.83594 z"
         style="font-style:italic;text-align:center;text-anchor:middle"
         id="path85433" />
      <path
         d="m 645.66504,525.72461 h 10.07812 q 4.10157,0 6.13282,1.52344 2.03125,1.52343 2.03125,4.58984 0,2.8125 -1.75782,4.86328 -1.73828,2.03125 -4.57031,2.46094 2.42188,0.54687 3.63281,2.08984 1.21094,1.54297 1.21094,4.1211 0,4.39453 -3.26172,6.95312 -3.24218,2.5586 -8.88672,2.5586 h -10.29296 z m 0.95703,15.23437 -2.07031,10.6836 h 6.34765 q 3.57422,0 5.50782,-1.64063 1.93359,-1.64062 1.93359,-4.6289 0,-2.30469 -1.28906,-3.35938 -1.26953,-1.05469 -4.10156,-1.05469 z m 2.32422,-11.99218 -1.71875,8.78906 h 5.87891 q 3.14453,0 4.90234,-1.36719 1.77734,-1.36719 1.77734,-3.78906 0,-1.89453 -1.1914,-2.75391 -1.19141,-0.8789 -3.8086,-0.8789 z"
         style="font-style:italic;text-align:center;text-anchor:middle"
         id="path85435" />
      <path
         d="m 663.86816,560.1582 q 5.19532,-6.46484 7.73438,-12.26562 2.53906,-5.82031 2.53906,-11.21094 0,-3.08594 -0.74219,-6.11328 -0.72265,-3.04688 -2.20703,-6.03516 h 3.125 q 1.79688,3.37891 2.67578,6.52344 0.87891,3.14453 0.87891,6.19141 0,5.82031 -2.71484,11.5625 -2.69532,5.72265 -8.08594,11.34765 z"
         style="font-style:italic;text-align:center;text-anchor:middle"
         id="path85437" />
    </g>
    <g
       aria-label="on"
       transform="scale(0.26458333)"
       id="text37045"
       style="font-size:40px;line-height:1.25;white-space:pre;shape-inside:url(#rect37047)">
      <path
         d="m 306.46191,435.73828 q -2.89062,0 -4.57031,2.26563 -1.67969,2.24609 -1.67969,6.17187 0,3.92578 1.66016,6.19141 1.67969,2.24609 4.58984,2.24609 2.8711,0 4.55079,-2.26562 1.67968,-2.26563 1.67968,-6.17188 0,-3.88672 -1.67968,-6.15234 -1.67969,-2.28516 -4.55079,-2.28516 z m 0,-3.04687 q 4.6875,0 7.36329,3.04687 2.67578,3.04688 2.67578,8.4375 0,5.37109 -2.67578,8.4375 -2.67579,3.04688 -7.36329,3.04688 -4.70703,0 -7.38281,-3.04688 -2.65625,-3.06641 -2.65625,-8.4375 0,-5.39062 2.65625,-8.4375 2.67578,-3.04687 7.38281,-3.04687 z"
         style="text-align:center;text-anchor:middle"
         id="path85378" />
      <path
         d="m 340.6416,441.89062 v 13.20313 h -3.59375 v -13.08594 q 0,-3.10547 -1.21094,-4.64844 -1.21093,-1.54296 -3.63281,-1.54296 -2.91015,0 -4.58984,1.85546 -1.67969,1.85547 -1.67969,5.0586 v 12.36328 h -3.61328 v -21.875 h 3.61328 v 3.39844 q 1.28906,-1.97266 3.02734,-2.94922 1.75782,-0.97656 4.04297,-0.97656 3.76953,0 5.70313,2.34375 1.93359,2.32421 1.93359,6.85546 z"
         style="text-align:center;text-anchor:middle"
         id="path85380" />
    </g>
    <path
       id="rect50155"
       style="stroke-width:0.264583"
       d="M 26.484392,132.25085 H 143.77402 v 3.0643 H 26.484392 Z" />
    <g
       aria-label="(insert a date here ya BIG NUB)"
       transform="matrix(0.26458333,0,0,0.26458333,0,-7.4083337)"
       id="text57571"
       style="font-size:26.6667px;line-height:1.25;white-space:pre;shape-inside:url(#rect57573)">
      <path
         d="m 117.89167,503.20508 q -1.74479,2.9948 -2.59115,5.92449 -0.84635,2.92969 -0.84635,5.93751 0,3.00781 0.84635,5.96355 0.85938,2.94271 2.59115,5.92448 h -2.08333 q -1.95313,-3.0599 -2.9297,-6.01563 -0.96354,-2.95573 -0.96354,-5.8724 0,-2.90365 0.96354,-5.84637 0.96355,-2.94271 2.9297,-6.01563 z"
         style="text-align:center;text-anchor:middle"
         id="path85326" />
      <path
         d="m 122.54011,508.85613 h 2.39584 v 14.58335 h -2.39584 z m 0,-5.67709 h 2.39584 v 3.03386 h -2.39584 z"
         style="text-align:center;text-anchor:middle"
         id="path85328" />
      <path
         d="m 142.07139,514.63739 v 8.80209 h -2.39584 v -8.72397 q 0,-2.07031 -0.80729,-3.09896 -0.80729,-1.02865 -2.42188,-1.02865 -1.9401,0 -3.0599,1.23698 -1.11979,1.23699 -1.11979,3.37241 v 8.24219 h -2.40886 v -14.58335 h 2.40886 v 2.26563 q 0.85938,-1.31511 2.01823,-1.96615 1.17188,-0.65104 2.69532,-0.65104 2.51302,0 3.80209,1.5625 1.28906,1.54948 1.28906,4.57032 z"
         style="text-align:center;text-anchor:middle"
         id="path85330" />
      <path
         d="m 156.14693,509.28582 v 2.26563 q -1.01563,-0.52084 -2.10938,-0.78125 -1.09375,-0.26042 -2.26563,-0.26042 -1.78385,0 -2.68229,0.54687 -0.88542,0.54688 -0.88542,1.64063 0,0.83334 0.63802,1.31511 0.63802,0.46875 2.56511,0.89844 l 0.82031,0.18229 q 2.55209,0.54687 3.6198,1.54948 1.08073,0.98958 1.08073,2.77344 0,2.03125 -1.61459,3.21615 -1.60156,1.1849 -4.41406,1.1849 -1.17188,0 -2.44792,-0.23438 -1.26303,-0.22135 -2.66928,-0.67708 v -2.47396 q 1.32813,0.6901 2.61719,1.04166 1.28907,0.33855 2.55209,0.33855 1.69271,0 2.60417,-0.57292 0.91146,-0.58594 0.91146,-1.64063 0,-0.97656 -0.66407,-1.4974 -0.65104,-0.52083 -2.8776,-1.0026 l -0.83334,-0.19531 q -2.22656,-0.46875 -3.21615,-1.4323 -0.98958,-0.97656 -0.98958,-2.66927 0,-2.0573 1.45833,-3.17709 1.45834,-1.11979 4.14063,-1.11979 1.32813,0 2.50001,0.19531 1.17187,0.19531 2.16146,0.58594 z"
         style="text-align:center;text-anchor:middle"
         id="path85332" />
      <path
         d="m 173.21726,515.54885 v 1.17187 h -11.01563 q 0.15625,2.47397 1.48437,3.77605 1.34115,1.28907 3.72397,1.28907 1.38021,0 2.66927,-0.33855 1.30208,-0.33854 2.57813,-1.01562 v 2.26562 q -1.28907,0.54688 -2.64323,0.83334 -1.35417,0.28646 -2.7474,0.28646 -3.48959,0 -5.53387,-2.03125 -2.03125,-2.03126 -2.03125,-5.4948 0,-3.58074 1.92709,-5.67709 1.9401,-2.10938 5.22136,-2.10938 2.94271,0 4.64844,1.90104 1.71875,1.88803 1.71875,5.14324 z m -2.39583,-0.70313 q -0.026,-1.96615 -1.10677,-3.13802 -1.06771,-1.17188 -2.83855,-1.17188 -2.00521,0 -3.21615,1.13281 -1.19792,1.13282 -1.38021,3.19011 z"
         style="text-align:center;text-anchor:middle"
         id="path85334" />
      <path
         d="m 185.60009,511.09572 q -0.40364,-0.23438 -0.88541,-0.33854 -0.46875,-0.11719 -1.04167,-0.11719 -2.03125,0 -3.125,1.32812 -1.08074,1.31511 -1.08074,3.78907 v 7.6823 h -2.40885 v -14.58335 h 2.40885 v 2.26563 q 0.75521,-1.32813 1.96615,-1.96615 1.21094,-0.65104 2.94271,-0.65104 0.2474,0 0.54688,0.0391 0.29948,0.026 0.66406,0.0911 z"
         style="text-align:center;text-anchor:middle"
         id="path85336" />
      <path
         d="m 190.48291,504.7155 v 4.14063 h 4.9349 v 1.86198 h -4.9349 v 7.91668 q 0,1.78386 0.48177,2.29167 0.4948,0.50781 1.99219,0.50781 h 2.46094 v 2.00521 h -2.46094 q -2.77344,0 -3.82813,-1.02864 -1.05468,-1.04167 -1.05468,-3.77605 v -7.91668 h -1.75782 v -1.86198 h 1.75782 v -4.14063 z"
         style="text-align:center;text-anchor:middle"
         id="path85338" />
      <path
         d="m 213.67304,516.10874 q -2.90365,0 -4.02344,0.66407 -1.11979,0.66406 -1.11979,2.26563 0,1.27604 0.83333,2.03125 0.84636,0.74219 2.29167,0.74219 1.99219,0 3.19011,-1.40626 1.21094,-1.41927 1.21094,-3.76302 v -0.53386 z m 4.77865,-0.98958 v 8.32032 h -2.39583 v -2.21354 q -0.82032,1.32813 -2.04428,1.96615 -1.22396,0.625 -2.99479,0.625 -2.23959,0 -3.56771,-1.25 -1.31511,-1.26303 -1.31511,-3.3724 0,-2.46094 1.64063,-3.71095 1.65365,-1.25 4.92188,-1.25 h 3.35938 v -0.23437 q 0,-1.65365 -1.09375,-2.55209 -1.08073,-0.91146 -3.04688,-0.91146 -1.25,0 -2.4349,0.29948 -1.1849,0.29948 -2.27865,0.89844 v -2.21355 q 1.31511,-0.50781 2.55209,-0.7552 1.23698,-0.26042 2.40885,-0.26042 3.16407,0 4.72657,1.64063 1.5625,1.64062 1.5625,4.97396 z"
         style="text-align:center;text-anchor:middle"
         id="path85340" />
      <path
         d="m 241.45954,511.06968 v -7.89064 h 2.39583 v 20.26044 h -2.39583 v -2.1875 q -0.75521,1.30209 -1.91407,1.94011 -1.14583,0.625 -2.76042,0.625 -2.64323,0 -4.3099,-2.10938 -1.65365,-2.10938 -1.65365,-5.54688 0,-3.43751 1.65365,-5.54688 1.66667,-2.10938 4.3099,-2.10938 1.61459,0 2.76042,0.63802 1.15886,0.625 1.91407,1.92709 z m -8.16408,5.09115 q 0,2.64323 1.08074,4.15365 1.09375,1.4974 2.99479,1.4974 1.90104,0 2.9948,-1.4974 1.09375,-1.51042 1.09375,-4.15365 0,-2.64323 -1.09375,-4.14063 -1.09376,-1.51042 -2.9948,-1.51042 -1.90104,0 -2.99479,1.51042 -1.08074,1.4974 -1.08074,4.14063 z"
         style="text-align:center;text-anchor:middle"
         id="path85342" />
      <path
         d="m 255.41789,516.10874 q -2.90365,0 -4.02344,0.66407 -1.11979,0.66406 -1.11979,2.26563 0,1.27604 0.83333,2.03125 0.84636,0.74219 2.29167,0.74219 1.99219,0 3.19011,-1.40626 1.21094,-1.41927 1.21094,-3.76302 v -0.53386 z m 4.77865,-0.98958 v 8.32032 h -2.39583 v -2.21354 q -0.82032,1.32813 -2.04428,1.96615 -1.22396,0.625 -2.99479,0.625 -2.23959,0 -3.56771,-1.25 -1.31511,-1.26303 -1.31511,-3.3724 0,-2.46094 1.64063,-3.71095 1.65365,-1.25 4.92188,-1.25 h 3.35938 v -0.23437 q 0,-1.65365 -1.09375,-2.55209 -1.08073,-0.91146 -3.04688,-0.91146 -1.25,0 -2.4349,0.29948 -1.1849,0.29948 -2.27865,0.89844 v -2.21355 q 1.31511,-0.50781 2.55209,-0.7552 1.23698,-0.26042 2.40885,-0.26042 3.16407,0 4.72657,1.64063 1.5625,1.64062 1.5625,4.97396 z"
         style="text-align:center;text-anchor:middle"
         id="path85344" />
      <path
         d="m 267.50123,504.7155 v 4.14063 h 4.9349 v 1.86198 h -4.9349 v 7.91668 q 0,1.78386 0.48177,2.29167 0.49479,0.50781 1.99219,0.50781 h 2.46094 v 2.00521 h -2.46094 q -2.77344,0 -3.82813,-1.02864 -1.05469,-1.04167 -1.05469,-3.77605 v -7.91668 h -1.75781 v -1.86198 h 1.75781 v -4.14063 z"
         style="text-align:center;text-anchor:middle"
         id="path85346" />
      <path
         d="m 288.06116,515.54885 v 1.17187 h -11.01564 q 0.15625,2.47397 1.48438,3.77605 1.34114,1.28907 3.72396,1.28907 1.38021,0 2.66927,-0.33855 1.30209,-0.33854 2.57813,-1.01562 v 2.26562 q -1.28906,0.54688 -2.64323,0.83334 -1.35417,0.28646 -2.7474,0.28646 -3.48959,0 -5.53386,-2.03125 -2.03125,-2.03126 -2.03125,-5.4948 0,-3.58074 1.92708,-5.67709 1.94011,-2.10938 5.22136,-2.10938 2.94272,0 4.64845,1.90104 1.71875,1.88803 1.71875,5.14324 z m -2.39584,-0.70313 q -0.026,-1.96615 -1.10677,-3.13802 -1.06771,-1.17188 -2.83854,-1.17188 -2.00522,0 -3.21615,1.13281 -1.19792,1.13282 -1.38021,3.19011 z"
         style="text-align:center;text-anchor:middle"
         id="path85348" />
      <path
         d="m 312.59244,514.63739 v 8.80209 h -2.39584 v -8.72397 q 0,-2.07031 -0.80729,-3.09896 -0.80729,-1.02865 -2.42188,-1.02865 -1.9401,0 -3.0599,1.23698 -1.11979,1.23699 -1.11979,3.37241 v 8.24219 h -2.40886 v -20.26044 h 2.40886 v 7.94272 q 0.85938,-1.31511 2.01823,-1.96615 1.17188,-0.65104 2.69532,-0.65104 2.51302,0 3.80209,1.5625 1.28906,1.54948 1.28906,4.57032 z"
         style="text-align:center;text-anchor:middle"
         id="path85350" />
      <path
         d="m 329.84506,515.54885 v 1.17187 h -11.01563 q 0.15625,2.47397 1.48437,3.77605 1.34115,1.28907 3.72397,1.28907 1.38021,0 2.66927,-0.33855 1.30208,-0.33854 2.57813,-1.01562 v 2.26562 q -1.28907,0.54688 -2.64323,0.83334 -1.35417,0.28646 -2.7474,0.28646 -3.48959,0 -5.53387,-2.03125 -2.03125,-2.03126 -2.03125,-5.4948 0,-3.58074 1.92709,-5.67709 1.9401,-2.10938 5.22136,-2.10938 2.94271,0 4.64844,1.90104 1.71875,1.88803 1.71875,5.14324 z m -2.39583,-0.70313 q -0.026,-1.96615 -1.10677,-3.13802 -1.06771,-1.17188 -2.83855,-1.17188 -2.00521,0 -3.21615,1.13281 -1.19792,1.13282 -1.38021,3.19011 z"
         style="text-align:center;text-anchor:middle"
         id="path85352" />
      <path
         d="m 342.22789,511.09572 q -0.40365,-0.23438 -0.88542,-0.33854 -0.46875,-0.11719 -1.04167,-0.11719 -2.03125,0 -3.125,1.32812 -1.08073,1.31511 -1.08073,3.78907 v 7.6823 h -2.40886 v -14.58335 h 2.40886 v 2.26563 q 0.75521,-1.32813 1.96615,-1.96615 1.21093,-0.65104 2.94271,-0.65104 0.24739,0 0.54687,0.0391 0.29948,0.026 0.66407,0.0911 z"
         style="text-align:center;text-anchor:middle"
         id="path85354" />
      <path
         d="m 356.62895,515.54885 v 1.17187 h -11.01563 q 0.15625,2.47397 1.48437,3.77605 1.34115,1.28907 3.72397,1.28907 1.38021,0 2.66927,-0.33855 1.30208,-0.33854 2.57813,-1.01562 v 2.26562 q -1.28907,0.54688 -2.64323,0.83334 -1.35417,0.28646 -2.7474,0.28646 -3.48959,0 -5.53387,-2.03125 -2.03125,-2.03126 -2.03125,-5.4948 0,-3.58074 1.92709,-5.67709 1.9401,-2.10938 5.22136,-2.10938 2.94271,0 4.64844,1.90104 1.71875,1.88803 1.71875,5.14324 z m -2.39583,-0.70313 q -0.026,-1.96615 -1.10677,-3.13802 -1.06771,-1.17188 -2.83855,-1.17188 -2.00521,0 -3.21615,1.13281 -1.19792,1.13282 -1.38021,3.19011 z"
         style="text-align:center;text-anchor:middle"
         id="path85356" />
      <path
         d="m 375.10554,524.79365 q -1.01563,2.60417 -1.97917,3.39844 -0.96354,0.79427 -2.57813,0.79427 h -1.91406 v -2.00521 h 1.40625 q 0.98958,0 1.53646,-0.46875 0.54687,-0.46875 1.21094,-2.21354 l 0.42969,-1.09375 -5.89845,-14.34898 h 2.53907 l 4.55729,11.40627 4.5573,-11.40627 h 2.53907 z"
         style="text-align:center;text-anchor:middle"
         id="path85358" />
      <path
         d="m 391.44672,516.10874 q -2.90365,0 -4.02345,0.66407 -1.11979,0.66406 -1.11979,2.26563 0,1.27604 0.83333,2.03125 0.84636,0.74219 2.29167,0.74219 1.99219,0 3.19011,-1.40626 1.21094,-1.41927 1.21094,-3.76302 v -0.53386 z m 4.77865,-0.98958 v 8.32032 h -2.39584 v -2.21354 q -0.82031,1.32813 -2.04427,1.96615 -1.22396,0.625 -2.9948,0.625 -2.23958,0 -3.56771,-1.25 -1.31511,-1.26303 -1.31511,-3.3724 0,-2.46094 1.64063,-3.71095 1.65365,-1.25 4.92188,-1.25 h 3.35938 v -0.23437 q 0,-1.65365 -1.09375,-2.55209 -1.08073,-0.91146 -3.04688,-0.91146 -1.25,0 -2.4349,0.29948 -1.18489,0.29948 -2.27865,0.89844 v -2.21355 q 1.31511,-0.50781 2.55209,-0.7552 1.23698,-0.26042 2.40886,-0.26042 3.16406,0 4.72657,1.64063 1.5625,1.64062 1.5625,4.97396 z"
         style="text-align:center;text-anchor:middle"
         id="path85360" />
      <path
         d="m 412.3712,514.15562 v 7.1224 h 4.21876 q 2.12239,0 3.13802,-0.8724 1.02865,-0.88541 1.02865,-2.69531 0,-1.82292 -1.02865,-2.6823 -1.01563,-0.87239 -3.13802,-0.87239 z m 0,-7.9948 v 5.85938 h 3.89323 q 1.92709,0 2.86459,-0.71615 0.95052,-0.72917 0.95052,-2.21354 0,-1.47136 -0.95052,-2.20053 -0.9375,-0.72916 -2.86459,-0.72916 z m -2.63021,-2.16147 h 6.71876 q 3.00781,0 4.63542,1.25001 1.62761,1.25 1.62761,3.55469 0,1.78385 -0.83334,2.83854 -0.83333,1.05469 -2.44792,1.31511 1.94011,0.41667 3.00782,1.74479 1.08073,1.31511 1.08073,3.29428 0,2.60417 -1.77084,4.02344 -1.77083,1.41927 -5.03907,1.41927 h -6.97917 z"
         style="text-align:center;text-anchor:middle"
         id="path85362" />
      <path
         d="m 428.0353,503.99935 h 2.63021 v 19.44013 h -2.63021 z"
         style="text-align:center;text-anchor:middle"
         id="path85364" />
      <path
         d="m 449.15512,520.66604 v -5.22136 h -4.29688 v -2.16146 h 6.90105 v 8.34636 q -1.52344,1.08074 -3.35938,1.64063 -1.83594,0.54688 -3.91928,0.54688 -4.55729,0 -7.13542,-2.65626 -2.56511,-2.66927 -2.56511,-7.42188 0,-4.76563 2.56511,-7.42188 2.57813,-2.66928 7.13542,-2.66928 1.90105,0 3.60678,0.46875 1.71875,0.46875 3.16407,1.38021 v 2.79948 q -1.45834,-1.23698 -3.09897,-1.86198 -1.64062,-0.625 -3.45052,-0.625 -3.56771,0 -5.36459,1.99219 -1.78386,1.99219 -1.78386,5.93751 0,3.9323 1.78386,5.92449 1.79688,1.99219 5.36459,1.99219 1.39323,0 2.48698,-0.23438 1.09375,-0.24739 1.96615,-0.75521 z"
         style="text-align:center;text-anchor:middle"
         id="path85366" />
      <path
         d="m 465.04055,503.99935 h 3.54167 l 8.6198,16.26305 v -16.26305 h 2.55209 v 19.44013 h -3.54167 l -8.6198,-16.26304 v 16.26304 h -2.55209 z"
         style="text-align:center;text-anchor:middle"
         id="path85368" />
      <path
         d="m 484.68901,503.99935 h 2.64323 v 11.80991 q 0,3.12501 1.13281,4.50522 1.13282,1.36719 3.67188,1.36719 2.52605,0 3.65886,-1.36719 1.13282,-1.38021 1.13282,-4.50522 v -11.80991 h 2.64323 v 12.13544 q 0,3.80208 -1.88802,5.74219 -1.87501,1.94011 -5.54689,1.94011 -3.6849,0 -5.57292,-1.94011 -1.875,-1.94011 -1.875,-5.74219 z"
         style="text-align:center;text-anchor:middle"
         id="path85370" />
      <path
         d="m 507.13695,514.15562 v 7.1224 h 4.21875 q 2.1224,0 3.13803,-0.8724 1.02864,-0.88541 1.02864,-2.69531 0,-1.82292 -1.02864,-2.6823 -1.01563,-0.87239 -3.13803,-0.87239 z m 0,-7.9948 v 5.85938 h 3.89323 q 1.92709,0 2.86459,-0.71615 0.95052,-0.72917 0.95052,-2.21354 0,-1.47136 -0.95052,-2.20053 -0.9375,-0.72916 -2.86459,-0.72916 z m -2.63021,-2.16147 h 6.71875 q 3.00782,0 4.63543,1.25001 1.6276,1.25 1.6276,3.55469 0,1.78385 -0.83333,2.83854 -0.83334,1.05469 -2.44792,1.31511 1.94011,0.41667 3.00782,1.74479 1.08073,1.31511 1.08073,3.29428 0,2.60417 -1.77084,4.02344 -1.77084,1.41927 -5.03907,1.41927 h -6.97917 z"
         style="text-align:center;text-anchor:middle"
         id="path85372" />
      <path
         d="m 522.31928,503.20508 h 2.08333 q 1.95313,3.07292 2.91667,6.01563 0.97657,2.94272 0.97657,5.84637 0,2.91667 -0.97657,5.8724 -0.96354,2.95573 -2.91667,6.01563 h -2.08333 q 1.73177,-2.98177 2.57812,-5.92448 0.85938,-2.95574 0.85938,-5.96355 0,-3.00782 -0.85938,-5.93751 -0.84635,-2.92969 -2.57812,-5.92449 z"
         style="text-align:center;text-anchor:middle"
         id="path85374" />
    </g>
    <g
       aria-label="...has proved that he or she is not a morone by completing the Morone Quiz. Until next time when it is revised..."
       transform="matrix(0.26458333,0,0,0.26458333,0,-41.27502)"
       id="text81503"
       style="font-size:40px;line-height:1.25;white-space:pre;shape-inside:url(#rect81505)">
      <path
         d="m -115.07617,909.26367 h 4.12109 v 4.96094 h -4.12109 z"
         style="text-align:center;text-anchor:middle"
         id="path85141" />
      <path
         d="m -102.36133,909.26367 h 4.121096 v 4.96094 h -4.121096 z"
         style="text-align:center;text-anchor:middle"
         id="path85143" />
      <path
         d="m -89.646484,909.26367 h 4.121093 v 4.96094 h -4.121093 z"
         style="text-align:center;text-anchor:middle"
         id="path85145" />
      <path
         d="m -59.255859,901.02148 v 13.20313 h -3.59375 v -13.08594 q 0,-3.10547 -1.210938,-4.64844 -1.210937,-1.54296 -3.632812,-1.54296 -2.910157,0 -4.589844,1.85546 -1.679688,1.85547 -1.679688,5.0586 v 12.36328 h -3.613281 v -30.39063 h 3.613281 v 11.91407 q 1.289063,-1.97266 3.027344,-2.94922 1.757813,-0.97656 4.042969,-0.97656 3.769531,0 5.703125,2.34375 1.933594,2.32421 1.933594,6.85546 z"
         style="text-align:center;text-anchor:middle"
         id="path85147" />
      <path
         d="m -42.146484,903.22852 q -4.355469,0 -6.035157,0.99609 -1.679687,0.99609 -1.679687,3.39844 0,1.91406 1.25,3.04687 1.269531,1.11328 3.4375,1.11328 2.988281,0 4.785156,-2.10937 1.816406,-2.12891 1.816406,-5.64453 v -0.80078 z m 7.167968,-1.48438 v 12.48047 h -3.59375 v -3.32031 q -1.230468,1.99218 -3.066406,2.94922 -1.835937,0.9375 -4.492187,0.9375 -3.359375,0 -5.351563,-1.875 -1.972656,-1.89454 -1.972656,-5.0586 0,-3.6914 2.460937,-5.5664 2.480469,-1.875 7.382813,-1.875 h 5.039062 v -0.35157 q 0,-2.48047 -1.640625,-3.82812 -1.621093,-1.36719 -4.570312,-1.36719 -1.875,0 -3.652344,0.44922 -1.777344,0.44922 -3.417969,1.34766 v -3.32032 q 1.972657,-0.76172 3.828125,-1.13281 1.855469,-0.39062 3.613282,-0.39062 4.746093,0 7.089843,2.46093 2.34375,2.46094 2.34375,7.46094 z"
         style="text-align:center;text-anchor:middle"
         id="path85149" />
      <path
         d="m -13.630859,892.99414 v 3.39844 q -1.523438,-0.78125 -3.164063,-1.17188 -1.640625,-0.39062 -3.398437,-0.39062 -2.675782,0 -4.023438,0.82031 -1.328125,0.82031 -1.328125,2.46094 0,1.25 0.957031,1.97265 0.957032,0.70313 3.847657,1.34766 l 1.230468,0.27344 q 3.828125,0.82031 5.429688,2.32422 1.621094,1.48437 1.621094,4.16015 0,3.04688 -2.421875,4.82422 -2.402344,1.77735 -6.621094,1.77735 -1.757813,0 -3.671875,-0.35157 -1.894531,-0.33203 -4.003906,-1.01562 v -3.71094 q 1.992187,1.03516 3.925781,1.5625 1.933594,0.50781 3.828125,0.50781 2.539062,0 3.90625,-0.85937 1.367187,-0.87891 1.367187,-2.46094 0,-1.46484 -0.996093,-2.24609 -0.976563,-0.78125 -4.316407,-1.50391 l -1.25,-0.29297 q -3.339843,-0.70312 -4.824218,-2.14844 -1.484375,-1.46484 -1.484375,-4.0039 0,-3.08594 2.1875,-4.76563 2.1875,-1.67968 6.210937,-1.67968 1.992188,0 3.75,0.29296 1.757813,0.29297 3.242188,0.87891 z"
         style="text-align:center;text-anchor:middle"
         id="path85151" />
      <path
         d="m 9.4550781,910.94336 v 11.60156 H 5.8417969 v -30.19531 h 3.6132812 v 3.32031 q 1.1328129,-1.95312 2.8515629,-2.89062 1.738281,-0.95703 4.140625,-0.95703 3.984375,0 6.464843,3.16406 2.5,3.16406 2.5,8.32031 0,5.15625 -2.5,8.32031 -2.480468,3.16407 -6.464843,3.16407 -2.402344,0 -4.140625,-0.9375 -1.71875,-0.95704 -2.8515629,-2.91016 z m 12.2265629,-7.63672 q 0,-3.96484 -1.640625,-6.21094 -1.621094,-2.26562 -4.472657,-2.26562 -2.851562,0 -4.492187,2.26562 -1.6210939,2.2461 -1.6210939,6.21094 0,3.96484 1.6210939,6.23047 1.640625,2.24609 4.492187,2.24609 2.851563,0 4.472657,-2.24609 1.640625,-2.26563 1.640625,-6.23047 z"
         style="text-align:center;text-anchor:middle"
         id="path85153" />
      <path
         d="m 44.044922,895.70898 q -0.605469,-0.35156 -1.328125,-0.50781 -0.703125,-0.17578 -1.5625,-0.17578 -3.046875,0 -4.6875,1.99219 -1.621094,1.97265 -1.621094,5.68359 v 11.52344 h -3.613281 v -21.875 h 3.613281 v 3.39844 q 1.132813,-1.99219 2.949219,-2.94922 1.816406,-0.97656 4.414062,-0.97656 0.371094,0 0.820313,0.0586 0.449219,0.0391 0.996094,0.13672 z"
         style="text-align:center;text-anchor:middle"
         id="path85155" />
      <path
         d="m 55.412109,894.86914 q -2.890625,0 -4.570312,2.26563 -1.679688,2.24609 -1.679688,6.17187 0,3.92578 1.660157,6.19141 1.679687,2.24609 4.589843,2.24609 2.871094,0 4.550782,-2.26562 1.679687,-2.26563 1.679687,-6.17188 0,-3.88672 -1.679687,-6.15234 -1.679688,-2.28516 -4.550782,-2.28516 z m 0,-3.04687 q 4.6875,0 7.363282,3.04687 2.675781,3.04688 2.675781,8.4375 0,5.37109 -2.675781,8.4375 -2.675782,3.04688 -7.363282,3.04688 -4.707031,0 -7.382812,-3.04688 -2.65625,-3.06641 -2.65625,-8.4375 0,-5.39062 2.65625,-8.4375 2.675781,-3.04687 7.382812,-3.04687 z"
         style="text-align:center;text-anchor:middle"
         id="path85157" />
      <path
         d="m 68.830078,892.34961 h 3.808594 l 6.835937,18.35937 6.835938,-18.35937 h 3.808594 l -8.203125,21.875 h -4.882813 z"
         style="text-align:center;text-anchor:middle"
         id="path85159" />
      <path
         d="m 113.79102,902.38867 v 1.75781 H 97.267578 q 0.234375,3.71094 2.226563,5.66407 2.011719,1.93359 5.585939,1.93359 2.07031,0 4.0039,-0.50781 1.95313,-0.50781 3.86719,-1.52344 v 3.39844 q -1.93359,0.82031 -3.96484,1.25 -2.03125,0.42969 -4.1211,0.42969 -5.234371,0 -8.300777,-3.04688 -3.046875,-3.04687 -3.046875,-8.24219 0,-5.37109 2.890625,-8.51562 2.910156,-3.16406 7.832027,-3.16406 4.41407,0 6.97266,2.85156 2.57813,2.83203 2.57813,7.71484 z m -3.59375,-1.05469 q -0.0391,-2.94921 -1.66016,-4.70703 -1.60156,-1.75781 -4.25781,-1.75781 -3.00782,0 -4.824222,1.69922 -1.796875,1.69922 -2.070312,4.78516 z"
         style="text-align:center;text-anchor:middle"
         id="path85161" />
      <path
         d="m 134.08398,895.66992 v -11.83594 h 3.59375 v 30.39063 h -3.59375 v -3.28125 q -1.13281,1.95312 -2.87109,2.91016 -1.71875,0.9375 -4.14062,0.9375 -3.96485,0 -6.46485,-3.16407 -2.48047,-3.16406 -2.48047,-8.32031 0,-5.15625 2.48047,-8.32031 2.5,-3.16406 6.46485,-3.16406 2.42187,0 4.14062,0.95703 1.73828,0.9375 2.87109,2.89062 z m -12.24609,7.63672 q 0,3.96484 1.62109,6.23047 1.64063,2.24609 4.49219,2.24609 2.85156,0 4.49219,-2.24609 1.64062,-2.26563 1.64062,-6.23047 0,-3.96484 -1.64062,-6.21094 -1.64063,-2.26562 -4.49219,-2.26562 -2.85156,0 -4.49219,2.26562 -1.62109,2.2461 -1.62109,6.21094 z"
         style="text-align:center;text-anchor:middle"
         id="path85163" />
      <path
         d="m 161.34961,886.13867 v 6.21094 h 7.40234 v 2.79297 h -7.40234 v 11.875 q 0,2.67578 0.72266,3.4375 0.74218,0.76172 2.98828,0.76172 h 3.6914 v 3.00781 h -3.6914 q -4.16016,0 -5.74219,-1.54297 -1.58203,-1.5625 -1.58203,-5.66406 v -11.875 h -2.63672 v -2.79297 h 2.63672 v -6.21094 z"
         style="text-align:center;text-anchor:middle"
         id="path85165" />
      <path
         d="m 191.66211,901.02148 v 13.20313 h -3.59375 v -13.08594 q 0,-3.10547 -1.21094,-4.64844 -1.21094,-1.54296 -3.63281,-1.54296 -2.91016,0 -4.58984,1.85546 -1.67969,1.85547 -1.67969,5.0586 v 12.36328 h -3.61328 v -30.39063 h 3.61328 v 11.91407 q 1.28906,-1.97266 3.02734,-2.94922 1.75781,-0.97656 4.04297,-0.97656 3.76953,0 5.70313,2.34375 1.93359,2.32421 1.93359,6.85546 z"
         style="text-align:center;text-anchor:middle"
         id="path85167" />
      <path
         d="m 208.77148,903.22852 q -4.35546,0 -6.03515,0.99609 -1.67969,0.99609 -1.67969,3.39844 0,1.91406 1.25,3.04687 1.26953,1.11328 3.4375,1.11328 2.98828,0 4.78516,-2.10937 1.8164,-2.12891 1.8164,-5.64453 v -0.80078 z m 7.16797,-1.48438 v 12.48047 h -3.59375 v -3.32031 q -1.23047,1.99218 -3.0664,2.94922 -1.83594,0.9375 -4.49219,0.9375 -3.35938,0 -5.35156,-1.875 -1.97266,-1.89454 -1.97266,-5.0586 0,-3.6914 2.46094,-5.5664 2.48047,-1.875 7.38281,-1.875 h 5.03906 v -0.35157 q 0,-2.48047 -1.64062,-3.82812 -1.6211,-1.36719 -4.57031,-1.36719 -1.875,0 -3.65235,0.44922 -1.77734,0.44922 -3.41797,1.34766 v -3.32032 q 1.97266,-0.76172 3.82813,-1.13281 1.85547,-0.39062 3.61328,-0.39062 4.74609,0 7.08984,2.46093 2.34375,2.46094 2.34375,7.46094 z"
         style="text-align:center;text-anchor:middle"
         id="path85169" />
      <path
         d="m 226.89648,886.13867 v 6.21094 h 7.40235 v 2.79297 h -7.40235 v 11.875 q 0,2.67578 0.72266,3.4375 0.74219,0.76172 2.98828,0.76172 h 3.69141 v 3.00781 h -3.69141 q -4.16015,0 -5.74219,-1.54297 -1.58203,-1.5625 -1.58203,-5.66406 v -11.875 h -2.63672 v -2.79297 h 2.63672 v -6.21094 z"
         style="text-align:center;text-anchor:middle"
         id="path85171" />
      <path
         d="m 269.92383,901.02148 v 13.20313 h -3.59375 v -13.08594 q 0,-3.10547 -1.21094,-4.64844 -1.21094,-1.54296 -3.63281,-1.54296 -2.91016,0 -4.58985,1.85546 -1.67968,1.85547 -1.67968,5.0586 v 12.36328 h -3.61328 v -30.39063 h 3.61328 v 11.91407 q 1.28906,-1.97266 3.02734,-2.94922 1.75781,-0.97656 4.04297,-0.97656 3.76953,0 5.70312,2.34375 1.9336,2.32421 1.9336,6.85546 z"
         style="text-align:center;text-anchor:middle"
         id="path85173" />
      <path
         d="m 295.80273,902.38867 v 1.75781 H 279.2793 q 0.23437,3.71094 2.22656,5.66407 2.01172,1.93359 5.58594,1.93359 2.07031,0 4.0039,-0.50781 1.95313,-0.50781 3.86719,-1.52344 v 3.39844 q -1.93359,0.82031 -3.96484,1.25 -2.03125,0.42969 -4.1211,0.42969 -5.23437,0 -8.30078,-3.04688 -3.04687,-3.04687 -3.04687,-8.24219 0,-5.37109 2.89062,-8.51562 2.91016,-3.16406 7.83203,-3.16406 4.41407,0 6.97266,2.85156 2.57812,2.83203 2.57812,7.71484 z m -3.59375,-1.05469 q -0.0391,-2.94921 -1.66015,-4.70703 -1.60156,-1.75781 -4.25781,-1.75781 -3.00782,0 -4.82422,1.69922 -1.79688,1.69922 -2.07032,4.78516 z"
         style="text-align:center;text-anchor:middle"
         id="path85175" />
      <path
         d="m 322.89258,894.86914 q -2.89063,0 -4.57031,2.26563 -1.67969,2.24609 -1.67969,6.17187 0,3.92578 1.66015,6.19141 1.67969,2.24609 4.58985,2.24609 2.87109,0 4.55078,-2.26562 1.67969,-2.26563 1.67969,-6.17188 0,-3.88672 -1.67969,-6.15234 -1.67969,-2.28516 -4.55078,-2.28516 z m 0,-3.04687 q 4.6875,0 7.36328,3.04687 2.67578,3.04688 2.67578,8.4375 0,5.37109 -2.67578,8.4375 -2.67578,3.04688 -7.36328,3.04688 -4.70703,0 -7.38281,-3.04688 -2.65625,-3.06641 -2.65625,-8.4375 0,-5.39062 2.65625,-8.4375 2.67578,-3.04687 7.38281,-3.04687 z"
         style="text-align:center;text-anchor:middle"
         id="path85177" />
      <path
         d="m 351.56445,895.70898 q -0.60547,-0.35156 -1.32812,-0.50781 -0.70313,-0.17578 -1.5625,-0.17578 -3.04688,0 -4.6875,1.99219 -1.6211,1.97265 -1.6211,5.68359 v 11.52344 h -3.61328 v -21.875 h 3.61328 v 3.39844 q 1.13282,-1.99219 2.94922,-2.94922 1.81641,-0.97656 4.41407,-0.97656 0.37109,0 0.82031,0.0586 0.44922,0.0391 0.99609,0.13672 z"
         style="text-align:center;text-anchor:middle"
         id="path85179" />
      <path
         d="m 381.99414,892.99414 v 3.39844 q -1.52344,-0.78125 -3.16406,-1.17188 -1.64063,-0.39062 -3.39844,-0.39062 -2.67578,0 -4.02344,0.82031 -1.32812,0.82031 -1.32812,2.46094 0,1.25 0.95703,1.97265 0.95703,0.70313 3.84766,1.34766 l 1.23046,0.27344 q 3.82813,0.82031 5.42969,2.32422 1.6211,1.48437 1.6211,4.16015 0,3.04688 -2.42188,4.82422 -2.40234,1.77735 -6.62109,1.77735 -1.75782,0 -3.67188,-0.35157 -1.89453,-0.33203 -4.0039,-1.01562 v -3.71094 q 1.99218,1.03516 3.92578,1.5625 1.93359,0.50781 3.82812,0.50781 2.53906,0 3.90625,-0.85937 1.36719,-0.87891 1.36719,-2.46094 0,-1.46484 -0.99609,-2.24609 -0.97657,-0.78125 -4.31641,-1.50391 l -1.25,-0.29297 q -3.33984,-0.70312 -4.82422,-2.14844 -1.48437,-1.46484 -1.48437,-4.0039 0,-3.08594 2.1875,-4.76563 2.1875,-1.67968 6.21093,-1.67968 1.99219,0 3.75,0.29296 1.75782,0.29297 3.24219,0.87891 z"
         style="text-align:center;text-anchor:middle"
         id="path85181" />
      <path
         d="m 407.07227,901.02148 v 13.20313 h -3.59375 v -13.08594 q 0,-3.10547 -1.21094,-4.64844 -1.21094,-1.54296 -3.63281,-1.54296 -2.91016,0 -4.58985,1.85546 -1.67969,1.85547 -1.67969,5.0586 v 12.36328 h -3.61328 v -30.39063 h 3.61328 v 11.91407 q 1.28907,-1.97266 3.02735,-2.94922 1.75781,-0.97656 4.04297,-0.97656 3.76953,0 5.70312,2.34375 1.9336,2.32421 1.9336,6.85546 z"
         style="text-align:center;text-anchor:middle"
         id="path85183" />
      <path
         d="m 432.95117,902.38867 v 1.75781 h -16.52344 q 0.23438,3.71094 2.22657,5.66407 2.01172,1.93359 5.58593,1.93359 2.07032,0 4.00391,-0.50781 1.95313,-0.50781 3.86719,-1.52344 v 3.39844 q -1.9336,0.82031 -3.96485,1.25 -2.03125,0.42969 -4.12109,0.42969 -5.23437,0 -8.30078,-3.04688 -3.04688,-3.04687 -3.04688,-8.24219 0,-5.37109 2.89063,-8.51562 2.91016,-3.16406 7.83203,-3.16406 4.41406,0 6.97266,2.85156 2.57812,2.83203 2.57812,7.71484 z m -3.59375,-1.05469 q -0.0391,-2.94921 -1.66015,-4.70703 -1.60157,-1.75781 -4.25782,-1.75781 -3.00781,0 -4.82422,1.69922 -1.79687,1.69922 -2.07031,4.78516 z"
         style="text-align:center;text-anchor:middle"
         id="path85185" />
      <path
         d="m 451.56445,892.34961 h 3.59375 v 21.875 h -3.59375 z m 0,-8.51563 h 3.59375 v 4.55079 h -3.59375 z"
         style="text-align:center;text-anchor:middle"
         id="path85187" />
      <path
         d="m 476.62305,892.99414 v 3.39844 q -1.52344,-0.78125 -3.16407,-1.17188 -1.64062,-0.39062 -3.39843,-0.39062 -2.67578,0 -4.02344,0.82031 -1.32813,0.82031 -1.32813,2.46094 0,1.25 0.95704,1.97265 0.95703,0.70313 3.84765,1.34766 l 1.23047,0.27344 q 3.82813,0.82031 5.42969,2.32422 1.62109,1.48437 1.62109,4.16015 0,3.04688 -2.42187,4.82422 -2.40235,1.77735 -6.6211,1.77735 -1.75781,0 -3.67187,-0.35157 -1.89453,-0.33203 -4.00391,-1.01562 v -3.71094 q 1.99219,1.03516 3.92578,1.5625 1.9336,0.50781 3.82813,0.50781 2.53906,0 3.90625,-0.85937 1.36719,-0.87891 1.36719,-2.46094 0,-1.46484 -0.9961,-2.24609 -0.97656,-0.78125 -4.3164,-1.50391 l -1.25,-0.29297 q -3.33985,-0.70312 -4.82422,-2.14844 -1.48438,-1.46484 -1.48438,-4.0039 0,-3.08594 2.1875,-4.76563 2.1875,-1.67968 6.21094,-1.67968 1.99219,0 3.75,0.29296 1.75781,0.29297 3.24219,0.87891 z"
         style="text-align:center;text-anchor:middle"
         id="path85189" />
      <path
         d="m 514.41602,901.02148 v 13.20313 h -3.59375 v -13.08594 q 0,-3.10547 -1.21094,-4.64844 -1.21094,-1.54296 -3.63281,-1.54296 -2.91016,0 -4.58985,1.85546 -1.67969,1.85547 -1.67969,5.0586 v 12.36328 h -3.61328 v -21.875 h 3.61328 v 3.39844 q 1.28907,-1.97266 3.02735,-2.94922 1.75781,-0.97656 4.04297,-0.97656 3.76953,0 5.70312,2.34375 1.9336,2.32421 1.9336,6.85546 z"
         style="text-align:center;text-anchor:middle"
         id="path85191" />
      <path
         d="m 530.06055,894.86914 q -2.89063,0 -4.57032,2.26563 -1.67968,2.24609 -1.67968,6.17187 0,3.92578 1.66015,6.19141 1.67969,2.24609 4.58985,2.24609 2.87109,0 4.55078,-2.26562 1.67969,-2.26563 1.67969,-6.17188 0,-3.88672 -1.67969,-6.15234 -1.67969,-2.28516 -4.55078,-2.28516 z m 0,-3.04687 q 4.6875,0 7.36328,3.04687 2.67578,3.04688 2.67578,8.4375 0,5.37109 -2.67578,8.4375 -2.67578,3.04688 -7.36328,3.04688 -4.70703,0 -7.38282,-3.04688 -2.65625,-3.06641 -2.65625,-8.4375 0,-5.39062 2.65625,-8.4375 2.67579,-3.04687 7.38282,-3.04687 z"
         style="text-align:center;text-anchor:middle"
         id="path85193" />
      <path
         d="m 549.61133,886.13867 v 6.21094 h 7.40234 v 2.79297 h -7.40234 v 11.875 q 0,2.67578 0.72265,3.4375 0.74219,0.76172 2.98829,0.76172 h 3.6914 v 3.00781 h -3.6914 q -4.16016,0 -5.74219,-1.54297 -1.58203,-1.5625 -1.58203,-5.66406 v -11.875 h -2.63672 v -2.79297 h 2.63672 v -6.21094 z"
         style="text-align:center;text-anchor:middle"
         id="path85195" />
      <path
         d="m 584.39648,903.22852 q -4.35546,0 -6.03515,0.99609 -1.67969,0.99609 -1.67969,3.39844 0,1.91406 1.25,3.04687 1.26953,1.11328 3.4375,1.11328 2.98828,0 4.78516,-2.10937 1.8164,-2.12891 1.8164,-5.64453 v -0.80078 z m 7.16797,-1.48438 v 12.48047 h -3.59375 v -3.32031 q -1.23047,1.99218 -3.0664,2.94922 -1.83594,0.9375 -4.49219,0.9375 -3.35938,0 -5.35156,-1.875 -1.97266,-1.89454 -1.97266,-5.0586 0,-3.6914 2.46094,-5.5664 2.48047,-1.875 7.38281,-1.875 h 5.03906 v -0.35157 q 0,-2.48047 -1.64062,-3.82812 -1.6211,-1.36719 -4.57031,-1.36719 -1.875,0 -3.65235,0.44922 -1.77734,0.44922 -3.41797,1.34766 v -3.32032 q 1.97266,-0.76172 3.82813,-1.13281 1.85547,-0.39062 3.61328,-0.39062 4.74609,0 7.08984,2.46093 2.34375,2.46094 2.34375,7.46094 z"
         style="text-align:center;text-anchor:middle"
         id="path85197" />
      <path
         d="m 628.71289,896.54883 q 1.34766,-2.42188 3.22266,-3.57422 1.875,-1.15234 4.41406,-1.15234 3.41797,0 5.27344,2.40234 1.85547,2.38281 1.85547,6.79687 v 13.20313 h -3.61329 v -13.08594 q 0,-3.14453 -1.11328,-4.66797 -1.11328,-1.52343 -3.39843,-1.52343 -2.79297,0 -4.41407,1.85546 -1.62109,1.85547 -1.62109,5.0586 v 12.36328 h -3.61328 v -13.08594 q 0,-3.16406 -1.11328,-4.66797 -1.11328,-1.52343 -3.4375,-1.52343 -2.75391,0 -4.375,1.875 -1.6211,1.85546 -1.6211,5.03906 v 12.36328 h -3.61328 v -21.875 h 3.61328 v 3.39844 q 1.23047,-2.01172 2.94922,-2.96875 1.71875,-0.95703 4.08203,-0.95703 2.38282,0 4.04297,1.21093 1.67969,1.21094 2.48047,3.51563 z"
         style="text-align:center;text-anchor:middle"
         id="path85199" />
      <path
         d="m 659.12305,894.86914 q -2.89063,0 -4.57032,2.26563 -1.67968,2.24609 -1.67968,6.17187 0,3.92578 1.66015,6.19141 1.67969,2.24609 4.58985,2.24609 2.87109,0 4.55078,-2.26562 1.67969,-2.26563 1.67969,-6.17188 0,-3.88672 -1.67969,-6.15234 -1.67969,-2.28516 -4.55078,-2.28516 z m 0,-3.04687 q 4.6875,0 7.36328,3.04687 2.67578,3.04688 2.67578,8.4375 0,5.37109 -2.67578,8.4375 -2.67578,3.04688 -7.36328,3.04688 -4.70703,0 -7.38282,-3.04688 -2.65625,-3.06641 -2.65625,-8.4375 0,-5.39062 2.65625,-8.4375 2.67579,-3.04687 7.38282,-3.04687 z"
         style="text-align:center;text-anchor:middle"
         id="path85201" />
      <path
         d="m 687.79492,895.70898 q -0.60547,-0.35156 -1.32812,-0.50781 -0.70313,-0.17578 -1.5625,-0.17578 -3.04688,0 -4.6875,1.99219 -1.6211,1.97265 -1.6211,5.68359 v 11.52344 h -3.61328 v -21.875 h 3.61328 v 3.39844 q 1.13282,-1.99219 2.94922,-2.94922 1.81641,-0.97656 4.41406,-0.97656 0.3711,0 0.82032,0.0586 0.44922,0.0391 0.99609,0.13672 z"
         style="text-align:center;text-anchor:middle"
         id="path85203" />
      <path
         d="m 699.16211,894.86914 q -2.89063,0 -4.57031,2.26563 -1.67969,2.24609 -1.67969,6.17187 0,3.92578 1.66016,6.19141 1.67968,2.24609 4.58984,2.24609 2.87109,0 4.55078,-2.26562 1.67969,-2.26563 1.67969,-6.17188 0,-3.88672 -1.67969,-6.15234 -1.67969,-2.28516 -4.55078,-2.28516 z m 0,-3.04687 q 4.6875,0 7.36328,3.04687 2.67578,3.04688 2.67578,8.4375 0,5.37109 -2.67578,8.4375 -2.67578,3.04688 -7.36328,3.04688 -4.70703,0 -7.38281,-3.04688 -2.65625,-3.06641 -2.65625,-8.4375 0,-5.39062 2.65625,-8.4375 2.67578,-3.04687 7.38281,-3.04687 z"
         style="text-align:center;text-anchor:middle"
         id="path85205" />
      <path
         d="m 733.3418,901.02148 v 13.20313 h -3.59375 v -13.08594 q 0,-3.10547 -1.21094,-4.64844 -1.21094,-1.54296 -3.63281,-1.54296 -2.91016,0 -4.58985,1.85546 -1.67968,1.85547 -1.67968,5.0586 v 12.36328 h -3.61329 v -21.875 h 3.61329 v 3.39844 q 1.28906,-1.97266 3.02734,-2.94922 1.75781,-0.97656 4.04297,-0.97656 3.76953,0 5.70312,2.34375 1.9336,2.32421 1.9336,6.85546 z"
         style="text-align:center;text-anchor:middle"
         id="path85207" />
      <path
         d="m 759.2207,902.38867 v 1.75781 h -16.52343 q 0.23437,3.71094 2.22656,5.66407 2.01172,1.93359 5.58594,1.93359 2.07031,0 4.0039,-0.50781 1.95313,-0.50781 3.86719,-1.52344 v 3.39844 q -1.93359,0.82031 -3.96484,1.25 -2.03125,0.42969 -4.1211,0.42969 -5.23437,0 -8.30078,-3.04688 -3.04687,-3.04687 -3.04687,-8.24219 0,-5.37109 2.89062,-8.51562 2.91016,-3.16406 7.83203,-3.16406 4.41406,0 6.97266,2.85156 2.57812,2.83203 2.57812,7.71484 z m -3.59375,-1.05469 q -0.0391,-2.94921 -1.66015,-4.70703 -1.60157,-1.75781 -4.25782,-1.75781 -3.00781,0 -4.82421,1.69922 -1.79688,1.69922 -2.07032,4.78516 z"
         style="text-align:center;text-anchor:middle"
         id="path85209" />
      <path
         d="m -82.966797,953.30664 q 0,-3.96484 -1.640625,-6.21094 -1.621094,-2.26562 -4.472656,-2.26562 -2.851563,0 -4.492188,2.26562 -1.621093,2.2461 -1.621093,6.21094 0,3.96484 1.621093,6.23047 1.640625,2.24609 4.492188,2.24609 2.851562,0 4.472656,-2.24609 1.640625,-2.26563 1.640625,-6.23047 z m -12.226562,-7.63672 q 1.132812,-1.95312 2.851562,-2.89062 1.738281,-0.95703 4.140625,-0.95703 3.984375,0 6.464844,3.16406 2.5,3.16406 2.5,8.32031 0,5.15625 -2.5,8.32031 -2.480469,3.16407 -6.464844,3.16407 -2.402344,0 -4.140625,-0.9375 -1.71875,-0.95704 -2.851562,-2.91016 v 3.28125 h -3.613282 v -30.39063 h 3.613282 z"
         style="text-align:center;text-anchor:middle"
         id="path85211" />
      <path
         d="m -64.177734,966.25586 q -1.523438,3.90625 -2.96875,5.09766 -1.445313,1.1914 -3.867188,1.1914 h -2.871094 v -3.00781 h 2.109375 q 1.484375,0 2.304688,-0.70313 0.820312,-0.70312 1.816406,-3.32031 l 0.644531,-1.64062 -8.847656,-21.52344 h 3.808594 l 6.835937,17.10937 6.835938,-17.10937 h 3.808594 z"
         style="text-align:center;text-anchor:middle"
         id="path85213" />
      <path
         d="m -21.150391,943.18945 v 3.35938 q -1.523437,-0.83985 -3.066406,-1.25 -1.523437,-0.42969 -3.085937,-0.42969 -3.496094,0 -5.429688,2.22656 -1.933594,2.20703 -1.933594,6.21094 0,4.00391 1.933594,6.23047 1.933594,2.20703 5.429688,2.20703 1.5625,0 3.085937,-0.41016 1.542969,-0.42968 3.066406,-1.26953 v 3.32032 q -1.503906,0.70312 -3.125,1.05468 -1.601562,0.35157 -3.417968,0.35157 -4.941407,0 -7.851563,-3.10547 -2.910156,-3.10547 -2.910156,-8.37891 0,-5.35156 2.929687,-8.41797 2.949219,-3.0664 8.066407,-3.0664 1.660156,0 3.242187,0.35156 1.582031,0.33203 3.066406,1.01562 z"
         style="text-align:center;text-anchor:middle"
         id="path85215" />
      <path
         d="m -6.4238281,944.86914 q -2.890625,0 -4.5703129,2.26563 -1.679687,2.24609 -1.679687,6.17187 0,3.92578 1.660156,6.19141 1.6796876,2.24609 4.5898439,2.24609 2.8710937,0 4.5507812,-2.26562 1.67968753,-2.26563 1.67968753,-6.17188 0,-3.88672 -1.67968753,-6.15234 -1.6796875,-2.28516 -4.5507812,-2.28516 z m 0,-3.04687 q 4.6875,0 7.36328123,3.04687 2.67578127,3.04688 2.67578127,8.4375 0,5.37109 -2.67578127,8.4375 -2.67578123,3.04688 -7.36328123,3.04688 -4.7070309,0 -7.3828129,-3.04688 -2.65625,-3.06641 -2.65625,-8.4375 0,-5.39062 2.65625,-8.4375 2.675782,-3.04687 7.3828129,-3.04687 z"
         style="text-align:center;text-anchor:middle"
         id="path85217" />
      <path
         d="m 26.603516,946.54883 q 1.347656,-2.42188 3.222656,-3.57422 1.875,-1.15234 4.414062,-1.15234 3.417969,0 5.273438,2.40234 1.855469,2.38281 1.855469,6.79687 v 13.20313 h -3.613282 v -13.08594 q 0,-3.14453 -1.113281,-4.66797 -1.113281,-1.52343 -3.398437,-1.52343 -2.792969,0 -4.414063,1.85546 -1.621094,1.85547 -1.621094,5.0586 v 12.36328 h -3.613281 v -13.08594 q 0,-3.16406 -1.113281,-4.66797 -1.113281,-1.52343 -3.4375,-1.52343 -2.753906,0 -4.375,1.875 -1.621094,1.85546 -1.621094,5.03906 v 12.36328 H 9.4355469 v -21.875 h 3.6132811 v 3.39844 q 1.230469,-2.01172 2.949219,-2.96875 1.71875,-0.95703 4.082031,-0.95703 2.382813,0 4.042969,1.21093 1.679687,1.21094 2.480469,3.51563 z"
         style="text-align:center;text-anchor:middle"
         id="path85219" />
      <path
         d="m 52.013672,960.94336 v 11.60156 h -3.613281 v -30.19531 h 3.613281 v 3.32031 q 1.132812,-1.95312 2.851562,-2.89062 1.738282,-0.95703 4.140625,-0.95703 3.984375,0 6.464844,3.16406 2.5,3.16406 2.5,8.32031 0,5.15625 -2.5,8.32031 -2.480469,3.16407 -6.464844,3.16407 -2.402343,0 -4.140625,-0.9375 -1.71875,-0.95704 -2.851562,-2.91016 z m 12.226562,-7.63672 q 0,-3.96484 -1.640625,-6.21094 -1.621093,-2.26562 -4.472656,-2.26562 -2.851562,0 -4.492187,2.26562 -1.621094,2.2461 -1.621094,6.21094 0,3.96484 1.621094,6.23047 1.640625,2.24609 4.492187,2.24609 2.851563,0 4.472656,-2.24609 1.640625,-2.26563 1.640625,-6.23047 z"
         style="text-align:center;text-anchor:middle"
         id="path85221" />
      <path
         d="m 73.927734,933.83398 h 3.59375 v 30.39063 h -3.59375 z"
         style="text-align:center;text-anchor:middle"
         id="path85223" />
      <path
         d="m 103.75195,952.38867 v 1.75781 H 87.228516 q 0.234375,3.71094 2.226562,5.66407 2.011719,1.93359 5.585938,1.93359 2.070312,0 4.003906,-0.50781 1.953128,-0.50781 3.867188,-1.52344 v 3.39844 q -1.93359,0.82031 -3.964844,1.25 -2.03125,0.42969 -4.121094,0.42969 -5.234375,0 -8.300781,-3.04688 -3.046875,-3.04687 -3.046875,-8.24219 0,-5.37109 2.890625,-8.51562 2.910156,-3.16406 7.832031,-3.16406 4.414062,0 6.972658,2.85156 2.57812,2.83203 2.57812,7.71484 z m -3.59375,-1.05469 q -0.0391,-2.94921 -1.660153,-4.70703 -1.601563,-1.75781 -4.257813,-1.75781 -3.007812,0 -4.824218,1.69922 -1.796875,1.69922 -2.070313,4.78516 z"
         style="text-align:center;text-anchor:middle"
         id="path85225" />
      <path
         d="m 113.20508,936.13867 v 6.21094 h 7.40234 v 2.79297 h -7.40234 v 11.875 q 0,2.67578 0.72265,3.4375 0.74219,0.76172 2.98829,0.76172 h 3.6914 v 3.00781 h -3.6914 q -4.16016,0 -5.74219,-1.54297 -1.58203,-1.5625 -1.58203,-5.66406 v -11.875 h -2.63672 v -2.79297 h 2.63672 v -6.21094 z"
         style="text-align:center;text-anchor:middle"
         id="path85227" />
      <path
         d="m 125.33398,942.34961 h 3.59375 v 21.875 h -3.59375 z m 0,-8.51563 h 3.59375 v 4.55079 h -3.59375 z"
         style="text-align:center;text-anchor:middle"
         id="path85229" />
      <path
         d="m 154.63086,951.02148 v 13.20313 h -3.59375 v -13.08594 q 0,-3.10547 -1.21094,-4.64844 -1.21094,-1.54296 -3.63281,-1.54296 -2.91016,0 -4.58984,1.85546 -1.67969,1.85547 -1.67969,5.0586 v 12.36328 h -3.61328 v -21.875 h 3.61328 v 3.39844 q 1.28906,-1.97266 3.02734,-2.94922 1.75781,-0.97656 4.04297,-0.97656 3.76953,0 5.70313,2.34375 1.93359,2.32421 1.93359,6.85546 z"
         style="text-align:center;text-anchor:middle"
         id="path85231" />
      <path
         d="m 176.19336,953.0332 q 0,-3.90625 -1.62109,-6.05468 -1.60157,-2.14844 -4.51172,-2.14844 -2.89063,0 -4.51172,2.14844 -1.60156,2.14843 -1.60156,6.05468 0,3.88672 1.60156,6.03516 1.62109,2.14844 4.51172,2.14844 2.91015,0 4.51172,-2.14844 1.62109,-2.14844 1.62109,-6.03516 z m 3.59375,8.47657 q 0,5.58593 -2.48047,8.30078 -2.48047,2.73437 -7.59766,2.73437 -1.89453,0 -3.57421,-0.29297 -1.67969,-0.27343 -3.26172,-0.85937 v -3.4961 q 1.58203,0.85938 3.125,1.26954 1.54297,0.41015 3.14453,0.41015 3.53515,0 5.29297,-1.85547 1.75781,-1.83593 1.75781,-5.5664 v -1.77735 q -1.11328,1.9336 -2.85156,2.89063 -1.73828,0.95703 -4.16016,0.95703 -4.02344,0 -6.48437,-3.06641 -2.46094,-3.0664 -2.46094,-8.125 0,-5.07812 2.46094,-8.14453 2.46093,-3.0664 6.48437,-3.0664 2.42188,0 4.16016,0.95703 1.73828,0.95703 2.85156,2.89062 v -3.32031 h 3.59375 z"
         style="text-align:center;text-anchor:middle"
         id="path85233" />
      <path
         d="m 203.45898,936.13867 v 6.21094 h 7.40235 v 2.79297 h -7.40235 v 11.875 q 0,2.67578 0.72266,3.4375 0.74219,0.76172 2.98828,0.76172 h 3.69141 v 3.00781 h -3.69141 q -4.16015,0 -5.74219,-1.54297 -1.58203,-1.5625 -1.58203,-5.66406 v -11.875 h -2.63672 v -2.79297 h 2.63672 v -6.21094 z"
         style="text-align:center;text-anchor:middle"
         id="path85235" />
      <path
         d="m 233.77148,951.02148 v 13.20313 h -3.59375 v -13.08594 q 0,-3.10547 -1.21093,-4.64844 -1.21094,-1.54296 -3.63282,-1.54296 -2.91015,0 -4.58984,1.85546 -1.67969,1.85547 -1.67969,5.0586 v 12.36328 h -3.61328 v -30.39063 h 3.61328 v 11.91407 q 1.28907,-1.97266 3.02735,-2.94922 1.75781,-0.97656 4.04297,-0.97656 3.76953,0 5.70312,2.34375 1.93359,2.32421 1.93359,6.85546 z"
         style="text-align:center;text-anchor:middle"
         id="path85237" />
      <path
         d="m 259.65039,952.38867 v 1.75781 h -16.52344 q 0.23438,3.71094 2.22657,5.66407 2.01171,1.93359 5.58593,1.93359 2.07032,0 4.00391,-0.50781 1.95312,-0.50781 3.86719,-1.52344 v 3.39844 q -1.9336,0.82031 -3.96485,1.25 -2.03125,0.42969 -4.12109,0.42969 -5.23438,0 -8.30078,-3.04688 -3.04688,-3.04687 -3.04688,-8.24219 0,-5.37109 2.89063,-8.51562 2.91015,-3.16406 7.83203,-3.16406 4.41406,0 6.97266,2.85156 2.57812,2.83203 2.57812,7.71484 z m -3.59375,-1.05469 q -0.0391,-2.94921 -1.66016,-4.70703 -1.60156,-1.75781 -4.25781,-1.75781 -3.00781,0 -4.82422,1.69922 -1.79687,1.69922 -2.07031,4.78516 z"
         style="text-align:center;text-anchor:middle"
         id="path85239" />
      <path
         d="m 278.41992,935.06445 h 5.87891 l 7.4414,19.84375 7.48047,-19.84375 h 5.87891 v 29.16016 h -3.84766 v -25.60547 l -7.51953,20 h -3.96484 l -7.51953,-20 v 25.60547 h -3.82813 z"
         style="text-align:center;text-anchor:middle"
         id="path85241" />
      <path
         d="m 321.25195,944.86914 q -2.89062,0 -4.57031,2.26563 -1.67969,2.24609 -1.67969,6.17187 0,3.92578 1.66016,6.19141 1.67969,2.24609 4.58984,2.24609 2.8711,0 4.55078,-2.26562 1.67969,-2.26563 1.67969,-6.17188 0,-3.88672 -1.67969,-6.15234 -1.67968,-2.28516 -4.55078,-2.28516 z m 0,-3.04687 q 4.6875,0 7.36328,3.04687 2.67579,3.04688 2.67579,8.4375 0,5.37109 -2.67579,8.4375 -2.67578,3.04688 -7.36328,3.04688 -4.70703,0 -7.38281,-3.04688 -2.65625,-3.06641 -2.65625,-8.4375 0,-5.39062 2.65625,-8.4375 2.67578,-3.04687 7.38281,-3.04687 z"
         style="text-align:center;text-anchor:middle"
         id="path85243" />
      <path
         d="m 349.92383,945.70898 q -0.60547,-0.35156 -1.32813,-0.50781 -0.70312,-0.17578 -1.5625,-0.17578 -3.04687,0 -4.6875,1.99219 -1.62109,1.97265 -1.62109,5.68359 v 11.52344 h -3.61328 v -21.875 h 3.61328 v 3.39844 q 1.13281,-1.99219 2.94922,-2.94922 1.8164,-0.97656 4.41406,-0.97656 0.37109,0 0.82031,0.0586 0.44922,0.0391 0.9961,0.13672 z"
         style="text-align:center;text-anchor:middle"
         id="path85245" />
      <path
         d="m 361.29102,944.86914 q -2.89063,0 -4.57032,2.26563 -1.67968,2.24609 -1.67968,6.17187 0,3.92578 1.66015,6.19141 1.67969,2.24609 4.58985,2.24609 2.87109,0 4.55078,-2.26562 1.67968,-2.26563 1.67968,-6.17188 0,-3.88672 -1.67968,-6.15234 -1.67969,-2.28516 -4.55078,-2.28516 z m 0,-3.04687 q 4.6875,0 7.36328,3.04687 2.67578,3.04688 2.67578,8.4375 0,5.37109 -2.67578,8.4375 -2.67578,3.04688 -7.36328,3.04688 -4.70704,0 -7.38282,-3.04688 -2.65625,-3.06641 -2.65625,-8.4375 0,-5.39062 2.65625,-8.4375 2.67578,-3.04687 7.38282,-3.04687 z"
         style="text-align:center;text-anchor:middle"
         id="path85247" />
      <path
         d="m 395.4707,951.02148 v 13.20313 h -3.59375 v -13.08594 q 0,-3.10547 -1.21093,-4.64844 -1.21094,-1.54296 -3.63282,-1.54296 -2.91015,0 -4.58984,1.85546 -1.67969,1.85547 -1.67969,5.0586 v 12.36328 h -3.61328 v -21.875 h 3.61328 v 3.39844 q 1.28906,-1.97266 3.02735,-2.94922 1.75781,-0.97656 4.04296,-0.97656 3.76954,0 5.70313,2.34375 1.93359,2.32421 1.93359,6.85546 z"
         style="text-align:center;text-anchor:middle"
         id="path85249" />
      <path
         d="m 421.34961,952.38867 v 1.75781 h -16.52344 q 0.23438,3.71094 2.22656,5.66407 2.01172,1.93359 5.58594,1.93359 2.07031,0 4.00391,-0.50781 1.95312,-0.50781 3.86719,-1.52344 v 3.39844 q -1.9336,0.82031 -3.96485,1.25 -2.03125,0.42969 -4.12109,0.42969 -5.23438,0 -8.30078,-3.04688 -3.04688,-3.04687 -3.04688,-8.24219 0,-5.37109 2.89063,-8.51562 2.91015,-3.16406 7.83203,-3.16406 4.41406,0 6.97265,2.85156 2.57813,2.83203 2.57813,7.71484 z m -3.59375,-1.05469 q -0.0391,-2.94921 -1.66016,-4.70703 -1.60156,-1.75781 -4.25781,-1.75781 -3.00781,0 -4.82422,1.69922 -1.79687,1.69922 -2.07031,4.78516 z"
         style="text-align:center;text-anchor:middle"
         id="path85251" />
      <path
         d="m 451.95508,937.74023 q -4.29688,0 -6.83594,3.20313 -2.51953,3.20312 -2.51953,8.73047 0,5.50781 2.51953,8.71094 2.53906,3.20312 6.83594,3.20312 4.29687,0 6.79687,-3.20312 2.51953,-3.20313 2.51953,-8.71094 0,-5.52735 -2.51953,-8.73047 -2.5,-3.20313 -6.79687,-3.20313 z m 5.52734,25.95704 5.19531,5.68359 h -4.76562 l -4.31641,-4.66797 q -0.64453,0.0391 -0.99609,0.0586 -0.33203,0.0195 -0.64453,0.0195 -6.15235,0 -9.84375,-4.10157 -3.67188,-4.12109 -3.67188,-11.01562 0,-6.91406 3.67188,-11.01563 3.6914,-4.12109 9.84375,-4.12109 6.13281,0 9.80469,4.12109 3.67187,4.10157 3.67187,11.01563 0,5.07812 -2.05078,8.6914 -2.03125,3.61329 -5.89844,5.33204 z"
         style="text-align:center;text-anchor:middle"
         id="path85253" />
      <path
         d="m 471.07617,955.5918 v -13.24219 h 3.59375 v 13.10547 q 0,3.10547 1.21094,4.66797 1.21094,1.54297 3.63281,1.54297 2.91016,0 4.58985,-1.85547 1.69921,-1.85547 1.69921,-5.0586 v -12.40234 h 3.59375 v 21.875 h -3.59375 v -3.35938 q -1.30859,1.99219 -3.04687,2.96875 -1.71875,0.95704 -4.00391,0.95704 -3.76953,0 -5.72265,-2.34375 -1.95313,-2.34375 -1.95313,-6.85547 z m 9.04297,-13.76953 z"
         style="text-align:center;text-anchor:middle"
         id="path85255" />
      <path
         d="m 496.79883,942.34961 h 3.59375 v 21.875 h -3.59375 z m 0,-8.51563 h 3.59375 v 4.55079 h -3.59375 z"
         style="text-align:center;text-anchor:middle"
         id="path85257" />
      <path
         d="m 506.34961,942.34961 h 17.07031 v 3.28125 l -13.51562,15.72266 h 13.51562 v 2.87109 h -17.55859 v -3.28125 l 13.51562,-15.72266 h -13.02734 z"
         style="text-align:center;text-anchor:middle"
         id="path85259" />
      <path
         d="m 529.41602,959.26367 h 4.12109 v 4.96094 h -4.12109 z"
         style="text-align:center;text-anchor:middle"
         id="path85261" />
      <path
         d="m 554.04492,935.06445 h 3.96485 v 17.71485 q 0,4.6875 1.69921,6.75781 1.69922,2.05078 5.50782,2.05078 3.78906,0 5.48828,-2.05078 1.69922,-2.07031 1.69922,-6.75781 v -17.71485 h 3.96484 v 18.20313 q 0,5.70312 -2.83203,8.61328 -2.8125,2.91016 -8.32031,2.91016 -5.52735,0 -8.35938,-2.91016 -2.8125,-2.91016 -2.8125,-8.61328 z"
         style="text-align:center;text-anchor:middle"
         id="path85263" />
      <path
         d="m 601.79883,951.02148 v 13.20313 h -3.59375 v -13.08594 q 0,-3.10547 -1.21094,-4.64844 -1.21094,-1.54296 -3.63281,-1.54296 -2.91016,0 -4.58985,1.85546 -1.67968,1.85547 -1.67968,5.0586 v 12.36328 h -3.61328 v -21.875 h 3.61328 v 3.39844 q 1.28906,-1.97266 3.02734,-2.94922 1.75781,-0.97656 4.04297,-0.97656 3.76953,0 5.70312,2.34375 1.9336,2.32421 1.9336,6.85546 z"
         style="text-align:center;text-anchor:middle"
         id="path85265" />
      <path
         d="m 612.52148,936.13867 v 6.21094 h 7.40235 v 2.79297 h -7.40235 v 11.875 q 0,2.67578 0.72266,3.4375 0.74219,0.76172 2.98828,0.76172 h 3.69141 v 3.00781 h -3.69141 q -4.16015,0 -5.74219,-1.54297 -1.58203,-1.5625 -1.58203,-5.66406 v -11.875 h -2.63672 v -2.79297 h 2.63672 v -6.21094 z"
         style="text-align:center;text-anchor:middle"
         id="path85267" />
      <path
         d="m 624.65039,942.34961 h 3.59375 v 21.875 h -3.59375 z m 0,-8.51563 h 3.59375 v 4.55079 h -3.59375 z"
         style="text-align:center;text-anchor:middle"
         id="path85269" />
      <path
         d="m 635.76367,933.83398 h 3.59375 v 30.39063 h -3.59375 z"
         style="text-align:center;text-anchor:middle"
         id="path85271" />
      <path
         d="m 677.77539,951.02148 v 13.20313 h -3.59375 v -13.08594 q 0,-3.10547 -1.21094,-4.64844 -1.21093,-1.54296 -3.63281,-1.54296 -2.91016,0 -4.58984,1.85546 -1.67969,1.85547 -1.67969,5.0586 v 12.36328 h -3.61328 v -21.875 h 3.61328 v 3.39844 q 1.28906,-1.97266 3.02734,-2.94922 1.75782,-0.97656 4.04297,-0.97656 3.76953,0 5.70313,2.34375 1.93359,2.32421 1.93359,6.85546 z"
         style="text-align:center;text-anchor:middle"
         id="path85273" />
      <path
         d="m 703.6543,952.38867 v 1.75781 h -16.52344 q 0.23437,3.71094 2.22656,5.66407 2.01172,1.93359 5.58594,1.93359 2.07031,0 4.00391,-0.50781 1.95312,-0.50781 3.86718,-1.52344 v 3.39844 q -1.93359,0.82031 -3.96484,1.25 -2.03125,0.42969 -4.12109,0.42969 -5.23438,0 -8.30079,-3.04688 -3.04687,-3.04687 -3.04687,-8.24219 0,-5.37109 2.89062,-8.51562 2.91016,-3.16406 7.83204,-3.16406 4.41406,0 6.97265,2.85156 2.57813,2.83203 2.57813,7.71484 z m -3.59375,-1.05469 q -0.0391,-2.94921 -1.66016,-4.70703 -1.60156,-1.75781 -4.25781,-1.75781 -3.00781,0 -4.82422,1.69922 -1.79688,1.69922 -2.07031,4.78516 z"
         style="text-align:center;text-anchor:middle"
         id="path85275" />
      <path
         d="m 727.0332,942.34961 -7.91015,10.64453 8.32031,11.23047 h -4.23828 l -6.36719,-8.59375 -6.36719,8.59375 h -4.23828 l 8.4961,-11.44531 -7.77344,-10.42969 h 4.23828 l 5.80078,7.79297 5.80078,-7.79297 z"
         style="text-align:center;text-anchor:middle"
         id="path85277" />
      <path
         d="m 736.07617,936.13867 v 6.21094 h 7.40235 v 2.79297 h -7.40235 v 11.875 q 0,2.67578 0.72266,3.4375 0.74219,0.76172 2.98828,0.76172 h 3.69141 v 3.00781 h -3.69141 q -4.16016,0 -5.74219,-1.54297 -1.58203,-1.5625 -1.58203,-5.66406 v -11.875 h -2.63672 v -2.79297 h 2.63672 v -6.21094 z"
         style="text-align:center;text-anchor:middle"
         id="path85279" />
      <path
         d="m 82.345703,986.13867 v 6.21094 h 7.402344 v 2.79297 h -7.402344 v 11.87502 q 0,2.6758 0.722656,3.4375 0.742188,0.7617 2.988282,0.7617 h 3.691406 v 3.0078 h -3.691406 q -4.160157,0 -5.742188,-1.543 -1.582031,-1.5625 -1.582031,-5.664 v -11.87502 h -2.636719 v -2.79297 h 2.636719 v -6.21094 z"
         style="text-align:center;text-anchor:middle"
         id="path85281" />
      <path
         d="m 94.474609,992.34961 h 3.59375 v 21.87499 h -3.59375 z m 0,-8.51563 h 3.59375 v 4.55079 h -3.59375 z"
         style="text-align:center;text-anchor:middle"
         id="path85283" />
      <path
         d="m 122.61914,996.54883 q 1.34766,-2.42188 3.22266,-3.57422 1.875,-1.15234 4.41406,-1.15234 3.41797,0 5.27344,2.40234 1.85547,2.38281 1.85547,6.79689 v 13.2031 h -3.61329 v -13.0859 q 0,-3.14456 -1.11328,-4.668 -1.11328,-1.52343 -3.39843,-1.52343 -2.79297,0 -4.41407,1.85546 -1.62109,1.85547 -1.62109,5.05857 v 12.3633 h -3.61328 v -13.0859 q 0,-3.16409 -1.11328,-4.668 -1.11328,-1.52343 -3.4375,-1.52343 -2.75391,0 -4.375,1.875 -1.6211,1.85546 -1.6211,5.03903 v 12.3633 h -3.61328 v -21.87499 h 3.61328 v 3.39844 q 1.23047,-2.01172 2.94922,-2.96875 1.71875,-0.95703 4.08203,-0.95703 2.38282,0 4.04297,1.21093 1.67969,1.21094 2.48047,3.51563 z"
         style="text-align:center;text-anchor:middle"
         id="path85285" />
      <path
         d="m 163.26367,1002.3887 v 1.7578 h -16.52344 q 0.23438,3.7109 2.22657,5.664 2.01172,1.9336 5.58593,1.9336 2.07032,0 4.00391,-0.5078 1.95313,-0.5078 3.86719,-1.5234 v 3.3984 q -1.9336,0.8203 -3.96485,1.25 -2.03125,0.4297 -4.12109,0.4297 -5.23437,0 -8.30078,-3.0469 -3.04688,-3.0468 -3.04688,-8.2421 0,-5.37114 2.89063,-8.51567 2.91016,-3.16406 7.83203,-3.16406 4.41406,0 6.97266,2.85156 2.57812,2.83203 2.57812,7.71487 z m -3.59375,-1.0547 q -0.0391,-2.94923 -1.66015,-4.70705 -1.60157,-1.75781 -4.25782,-1.75781 -3.00781,0 -4.82422,1.69922 -1.79687,1.69922 -2.07031,4.78514 z"
         style="text-align:center;text-anchor:middle"
         id="path85287" />
      <path
         d="m 179.78711,992.34961 h 3.59375 l 4.49219,17.07029 4.47265,-17.07029 h 4.23828 l 4.49219,17.07029 4.47266,-17.07029 h 3.59375 l -5.72266,21.87499 h -4.23828 l -4.70703,-17.92968 -4.72656,17.92968 h -4.23828 z"
         style="text-align:center;text-anchor:middle"
         id="path85289" />
      <path
         d="m 232.77539,1001.0215 v 13.2031 h -3.59375 v -13.0859 q 0,-3.1055 -1.21094,-4.64847 -1.21093,-1.54296 -3.63281,-1.54296 -2.91016,0 -4.58984,1.85546 -1.67969,1.85547 -1.67969,5.05857 v 12.3633 h -3.61328 v -30.39062 h 3.61328 v 11.91407 q 1.28906,-1.97266 3.02734,-2.94922 1.75782,-0.97656 4.04297,-0.97656 3.76953,0 5.70313,2.34375 1.93359,2.32421 1.93359,6.85548 z"
         style="text-align:center;text-anchor:middle"
         id="path85291" />
      <path
         d="m 258.6543,1002.3887 v 1.7578 h -16.52344 q 0.23437,3.7109 2.22656,5.664 2.01172,1.9336 5.58594,1.9336 2.07031,0 4.00391,-0.5078 1.95312,-0.5078 3.86718,-1.5234 v 3.3984 q -1.93359,0.8203 -3.96484,1.25 -2.03125,0.4297 -4.12109,0.4297 -5.23438,0 -8.30079,-3.0469 -3.04687,-3.0468 -3.04687,-8.2421 0,-5.37114 2.89062,-8.51567 2.91016,-3.16406 7.83204,-3.16406 4.41406,0 6.97265,2.85156 2.57813,2.83203 2.57813,7.71487 z m -3.59375,-1.0547 q -0.0391,-2.94923 -1.66016,-4.70705 -1.60156,-1.75781 -4.25781,-1.75781 -3.00781,0 -4.82422,1.69922 -1.79688,1.69922 -2.07031,4.78514 z"
         style="text-align:center;text-anchor:middle"
         id="path85293" />
      <path
         d="m 282.73633,1001.0215 v 13.2031 h -3.59375 v -13.0859 q 0,-3.1055 -1.21094,-4.64847 -1.21094,-1.54296 -3.63281,-1.54296 -2.91016,0 -4.58985,1.85546 -1.67968,1.85547 -1.67968,5.05857 v 12.3633 h -3.61328 v -21.87499 h 3.61328 v 3.39844 q 1.28906,-1.97266 3.02734,-2.94922 1.75781,-0.97656 4.04297,-0.97656 3.76953,0 5.70312,2.34375 1.9336,2.32421 1.9336,6.85548 z"
         style="text-align:center;text-anchor:middle"
         id="path85295" />
      <path
         d="m 302.61914,992.34961 h 3.59375 v 21.87499 h -3.59375 z m 0,-8.51563 h 3.59375 v 4.55079 h -3.59375 z"
         style="text-align:center;text-anchor:middle"
         id="path85297" />
      <path
         d="m 317.28711,986.13867 v 6.21094 h 7.40234 v 2.79297 h -7.40234 v 11.87502 q 0,2.6758 0.72266,3.4375 0.74218,0.7617 2.98828,0.7617 h 3.6914 v 3.0078 h -3.6914 q -4.16016,0 -5.74219,-1.543 -1.58203,-1.5625 -1.58203,-5.664 v -11.87502 h -2.63672 v -2.79297 h 2.63672 v -6.21094 z"
         style="text-align:center;text-anchor:middle"
         id="path85299" />
      <path
         d="m 342.13086,992.34961 h 3.59375 v 21.87499 h -3.59375 z m 0,-8.51563 h 3.59375 v 4.55079 h -3.59375 z"
         style="text-align:center;text-anchor:middle"
         id="path85301" />
      <path
         d="m 367.18945,992.99414 v 3.39844 q -1.52343,-0.78125 -3.16406,-1.17188 -1.64062,-0.39062 -3.39844,-0.39062 -2.67578,0 -4.02343,0.82031 -1.32813,0.82031 -1.32813,2.46094 0,1.25 0.95703,1.97267 0.95703,0.7031 3.84766,1.3476 l 1.23047,0.2735 q 3.82812,0.8203 5.42968,2.3242 1.6211,1.4844 1.6211,4.1602 0,3.0468 -2.42188,4.8242 -2.40234,1.7773 -6.62109,1.7773 -1.75781,0 -3.67188,-0.3515 -1.89453,-0.3321 -4.0039,-1.0157 v -3.7109 q 1.99219,1.0351 3.92578,1.5625 1.93359,0.5078 3.82812,0.5078 2.53907,0 3.90625,-0.8594 1.36719,-0.8789 1.36719,-2.4609 0,-1.4649 -0.99609,-2.2461 -0.97656,-0.7813 -4.31641,-1.5039 l -1.25,-0.293 q -3.33984,-0.7031 -4.82422,-2.1484 -1.48437,-1.4649 -1.48437,-4.00392 0,-3.08594 2.1875,-4.76563 2.1875,-1.67968 6.21094,-1.67968 1.99218,0 3.75,0.29296 1.75781,0.29297 3.24218,0.87891 z"
         style="text-align:center;text-anchor:middle"
         id="path85303" />
      <path
         d="m 399.47461,995.70898 q -0.60547,-0.35156 -1.32813,-0.50781 -0.70312,-0.17578 -1.5625,-0.17578 -3.04687,0 -4.6875,1.99219 -1.62109,1.97265 -1.62109,5.68362 v 11.5234 h -3.61328 v -21.87499 h 3.61328 v 3.39844 q 1.13281,-1.99219 2.94922,-2.94922 1.81641,-0.97656 4.41406,-0.97656 0.3711,0 0.82031,0.0586 0.44922,0.0391 0.9961,0.13672 z"
         style="text-align:center;text-anchor:middle"
         id="path85305" />
      <path
         d="m 421.07617,1002.3887 v 1.7578 h -16.52344 q 0.23438,3.7109 2.22657,5.664 2.01172,1.9336 5.58593,1.9336 2.07032,0 4.00391,-0.5078 1.95313,-0.5078 3.86719,-1.5234 v 3.3984 q -1.9336,0.8203 -3.96485,1.25 -2.03125,0.4297 -4.12109,0.4297 -5.23437,0 -8.30078,-3.0469 -3.04688,-3.0468 -3.04688,-8.2421 0,-5.37114 2.89063,-8.51567 2.91016,-3.16406 7.83203,-3.16406 4.41406,0 6.97266,2.85156 2.57812,2.83203 2.57812,7.71487 z m -3.59375,-1.0547 q -0.0391,-2.94923 -1.66015,-4.70705 -1.60157,-1.75781 -4.25782,-1.75781 -3.00781,0 -4.82422,1.69922 -1.79687,1.69922 -2.07031,4.78514 z"
         style="text-align:center;text-anchor:middle"
         id="path85307" />
      <path
         d="m 424.39648,992.34961 h 3.8086 l 6.83594,18.35939 6.83593,-18.35939 h 3.8086 l -8.20313,21.87499 h -4.88281 z"
         style="text-align:center;text-anchor:middle"
         id="path85309" />
      <path
         d="m 450.64648,992.34961 h 3.59375 v 21.87499 h -3.59375 z m 0,-8.51563 h 3.59375 v 4.55079 h -3.59375 z"
         style="text-align:center;text-anchor:middle"
         id="path85311" />
      <path
         d="m 475.70508,992.99414 v 3.39844 q -1.52344,-0.78125 -3.16406,-1.17188 -1.64063,-0.39062 -3.39844,-0.39062 -2.67578,0 -4.02344,0.82031 -1.32812,0.82031 -1.32812,2.46094 0,1.25 0.95703,1.97267 0.95703,0.7031 3.84765,1.3476 l 1.23047,0.2735 q 3.82813,0.8203 5.42969,2.3242 1.62109,1.4844 1.62109,4.1602 0,3.0468 -2.42187,4.8242 -2.40235,1.7773 -6.6211,1.7773 -1.75781,0 -3.67187,-0.3515 -1.89453,-0.3321 -4.00391,-1.0157 v -3.7109 q 1.99219,1.0351 3.92578,1.5625 1.9336,0.5078 3.82813,0.5078 2.53906,0 3.90625,-0.8594 1.36719,-0.8789 1.36719,-2.4609 0,-1.4649 -0.9961,-2.2461 -0.97656,-0.7813 -4.3164,-1.5039 l -1.25,-0.293 q -3.33985,-0.7031 -4.82422,-2.1484 -1.48438,-1.4649 -1.48438,-4.00392 0,-3.08594 2.1875,-4.76563 2.1875,-1.67968 6.21094,-1.67968 1.99219,0 3.75,0.29296 1.75781,0.29297 3.24219,0.87891 z"
         style="text-align:center;text-anchor:middle"
         id="path85313" />
      <path
         d="m 501.31055,1002.3887 v 1.7578 h -16.52344 q 0.23437,3.7109 2.22656,5.664 2.01172,1.9336 5.58594,1.9336 2.07031,0 4.00391,-0.5078 1.95312,-0.5078 3.86718,-1.5234 v 3.3984 q -1.93359,0.8203 -3.96484,1.25 -2.03125,0.4297 -4.12109,0.4297 -5.23438,0 -8.30079,-3.0469 -3.04687,-3.0468 -3.04687,-8.2421 0,-5.37114 2.89062,-8.51567 2.91016,-3.16406 7.83204,-3.16406 4.41406,0 6.97265,2.85156 2.57813,2.83203 2.57813,7.71487 z m -3.59375,-1.0547 q -0.0391,-2.94923 -1.66016,-4.70705 -1.60156,-1.75781 -4.25781,-1.75781 -3.00781,0 -4.82422,1.69922 -1.79688,1.69922 -2.07031,4.78514 z"
         style="text-align:center;text-anchor:middle"
         id="path85315" />
      <path
         d="m 521.60352,995.66992 v -11.83594 h 3.59375 v 30.39062 h -3.59375 v -3.2812 q -1.13282,1.9531 -2.8711,2.9101 -1.71875,0.9375 -4.14062,0.9375 -3.96485,0 -6.46485,-3.164 -2.48047,-3.1641 -2.48047,-8.3204 0,-5.15621 2.48047,-8.32027 2.5,-3.16406 6.46485,-3.16406 2.42187,0 4.14062,0.95703 1.73828,0.9375 2.8711,2.89062 z m -12.2461,7.63668 q 0,3.9649 1.6211,6.2305 1.64062,2.2461 4.49218,2.2461 2.85157,0 4.49219,-2.2461 1.64063,-2.2656 1.64063,-6.2305 0,-3.9648 -1.64063,-6.2109 -1.64062,-2.26562 -4.49219,-2.26562 -2.85156,0 -4.49218,2.26562 -1.6211,2.2461 -1.6211,6.2109 z"
         style="text-align:center;text-anchor:middle"
         id="path85317" />
      <path
         d="m 533.10742,1009.2637 h 4.1211 v 4.9609 h -4.1211 z"
         style="text-align:center;text-anchor:middle"
         id="path85319" />
      <path
         d="m 545.82227,1009.2637 h 4.12109 v 4.9609 h -4.12109 z"
         style="text-align:center;text-anchor:middle"
         id="path85321" />
      <path
         d="m 558.53711,1009.2637 h 4.12109 v 4.9609 h -4.12109 z"
         style="text-align:center;text-anchor:middle"
         id="path85323" />
    </g>
  </g>
</svg>
