<?xml version="1.0" encoding="UTF-8" standalone="no"?>
<!-- Created with Inkscape (http://www.inkscape.org/) -->

<svg
   width="202.93858mm"
   height="138.89952mm"
   viewBox="0 0 202.93858 138.89952"
   version="1.1"
   id="svg5"
   inkscape:version="1.1.2 (0a00cf5339, 2022-02-04)"
   sodipodi:docname="toomuchengrish.svg"
   xmlns:inkscape="http://www.inkscape.org/namespaces/inkscape"
   xmlns:sodipodi="http://sodipodi.sourceforge.net/DTD/sodipodi-0.dtd"
   xmlns="http://www.w3.org/2000/svg"
   xmlns:svg="http://www.w3.org/2000/svg">
  <sodipodi:namedview
     id="namedview7"
     pagecolor="#ffffff"
     bordercolor="#666666"
     borderopacity="1.0"
     inkscape:pageshadow="2"
     inkscape:pageopacity="0.0"
     inkscape:pagecheckerboard="0"
     inkscape:document-units="mm"
     showgrid="false"
     fit-margin-top="0"
     fit-margin-left="0"
     fit-margin-right="0"
     fit-margin-bottom="0"
     inkscape:zoom="0.59842684"
     inkscape:cx="465.38688"
     inkscape:cy="2.5065721"
     inkscape:window-width="1920"
     inkscape:window-height="995"
     inkscape:window-x="0"
     inkscape:window-y="0"
     inkscape:window-maximized="1"
     inkscape:current-layer="layer1" />
  <defs
     id="defs2">
    <rect
       x="-37.306427"
       y="246.73132"
       width="683.20538"
       height="413.72311"
       id="rect2406" />
    <rect
       x="-37.306427"
       y="246.73132"
       width="683.20538"
       height="413.72311"
       id="rect2406-3" />
  </defs>
  <g
     inkscape:label="Layer 1"
     inkscape:groupmode="layer"
     id="layer1"
     transform="translate(20.216307,-51.41127)">
    <path
       id="rect846"
       style="fill:#c87137;stroke:#000000;stroke-width:0"
       d="M -20.216307,51.41127 H 182.72228 V 190.31079 H -20.216307 Z" />
    <g
       id="g4518"
       transform="rotate(-4.6700463,125.10471,65.842467)">
      <path
         id="rect1024"
         style="fill:#ffffff;stroke:#000000;stroke-width:1.06076"
         d="M -12.687737,62.666363 H 168.07703 V 172.1306 H -12.687737 Z" />
      <g
         aria-label="TABLES ARE FOR EATING CUSTOMERS ONLY"
         transform="matrix(0.28861695,0,0,0.28861695,-10.016677,-8.0508528)"
         id="text2404"
         style="font-size:60px;line-height:1.25;-inkscape-font-specification:sans-serif;white-space:pre;shape-inside:url(#rect2406)">
        <path
           d="m 51.200195,256.07617 h 37.001953 v 4.98047 H 72.674805 v 38.75977 H 66.727539 V 261.05664 H 51.200195 Z"
           style="text-align:center;text-anchor:middle"
           id="path4521" />
        <path
           d="m 103.87598,261.90625 -8.027347,21.76758 h 16.083987 z m -3.33985,-5.83008 h 6.70899 l 16.66992,43.74024 H 117.7627 L 113.77832,288.5957 H 94.061523 l -3.984375,11.22071 h -6.240234 z"
           style="text-align:center;text-anchor:middle"
           id="path4523" />
        <path
           d="m 136.21973,278.92773 v 16.02539 h 9.49218 q 4.77539,0 7.06055,-1.96289 2.31445,-1.99218 2.31445,-6.06445 0,-4.10156 -2.31445,-6.03516 -2.28516,-1.96289 -7.06055,-1.96289 z m 0,-17.98828 v 13.1836 h 8.75976 q 4.33594,0 6.44531,-1.61133 2.13868,-1.64063 2.13868,-4.98047 0,-3.31055 -2.13868,-4.95117 -2.10937,-1.64063 -6.44531,-1.64063 z m -5.91797,-4.86328 h 15.11719 q 6.76757,0 10.42968,2.8125 3.66211,2.8125 3.66211,7.99805 0,4.01367 -1.875,6.38672 -1.875,2.37304 -5.50781,2.95898 4.36523,0.9375 6.76758,3.92578 2.43164,2.95899 2.43164,7.41211 0,5.85938 -3.98438,9.05274 -3.98437,3.19336 -11.33789,3.19336 h -15.70312 z"
           style="text-align:center;text-anchor:middle"
           id="path4525" />
        <path
           d="m 171.46387,256.07617 h 5.91797 v 38.75977 h 21.29882 v 4.98047 h -27.21679 z"
           style="text-align:center;text-anchor:middle"
           id="path4527" />
        <path
           d="m 204.8916,256.07617 h 27.65625 v 4.98047 h -21.73828 v 12.94922 h 20.83008 v 4.98047 h -20.83008 v 15.84961 h 22.26563 v 4.98047 h -28.1836 z"
           style="text-align:center;text-anchor:middle"
           id="path4529" />
        <path
           d="m 269.02246,257.51172 v 5.77148 q -3.36914,-1.61133 -6.35742,-2.40234 -2.98828,-0.79102 -5.77149,-0.79102 -4.83398,0 -7.4707,1.875 -2.60742,1.875 -2.60742,5.33203 0,2.9004 1.72852,4.39454 1.75781,1.46484 6.62109,2.37304 l 3.57422,0.73242 q 6.62109,1.25977 9.75586,4.45313 3.16406,3.16406 3.16406,8.49609 0,6.35743 -4.27734,9.63868 -4.24805,3.28125 -12.48047,3.28125 -3.10547,0 -6.6211,-0.70313 -3.48632,-0.70312 -7.23632,-2.08008 v -6.09375 q 3.60351,2.02149 7.06054,3.04688 3.45703,1.02539 6.79688,1.02539 5.06836,0 7.82226,-1.99219 2.75391,-1.99219 2.75391,-5.68359 0,-3.22266 -1.99219,-5.03907 -1.96289,-1.8164 -6.47461,-2.72461 l -3.60351,-0.70312 q -6.6211,-1.31836 -9.58008,-4.13086 -2.95899,-2.8125 -2.95899,-7.82227 0,-5.80078 4.07227,-9.14062 4.10156,-3.33984 11.2793,-3.33984 3.07617,0 6.26953,0.55664 3.19336,0.55664 6.5332,1.66992 z"
           style="text-align:center;text-anchor:middle"
           id="path4531" />
        <path
           d="m 314.5791,261.90625 -8.02734,21.76758 h 16.08398 z m -3.33984,-5.83008 h 6.70898 l 16.66992,43.74024 h -6.15234 l -3.98437,-11.22071 h -19.7168 l -3.98438,11.22071 h -6.24023 z"
           style="text-align:center;text-anchor:middle"
           id="path4533" />
        <path
           d="m 361.74707,279.30859 q 1.9043,0.64453 3.69141,2.75391 1.8164,2.10937 3.63281,5.80078 l 6.00586,11.95313 h -6.35742 l -5.59571,-11.22071 q -2.16797,-4.39453 -4.21875,-5.83008 -2.02148,-1.43554 -5.53711,-1.43554 h -6.44531 v 18.48633 h -5.91797 v -43.74024 h 13.35938 q 7.5,0 11.1914,3.13477 3.69141,3.13476 3.69141,9.46289 0,4.13086 -1.93359,6.85547 -1.9043,2.72461 -5.56641,3.77929 z m -14.82422,-18.36914 v 15.52735 h 7.44141 q 4.27734,0 6.44531,-1.96289 2.19727,-1.99219 2.19727,-5.83008 0,-3.83789 -2.19727,-5.77149 -2.16797,-1.96289 -6.44531,-1.96289 z"
           style="text-align:center;text-anchor:middle"
           id="path4535" />
        <path
           d="m 382.69434,256.07617 h 27.65625 v 4.98047 H 388.6123 v 12.94922 h 20.83008 v 4.98047 H 388.6123 v 15.84961 h 22.26563 v 4.98047 h -28.18359 z"
           style="text-align:center;text-anchor:middle"
           id="path4537" />
        <path
           d="m 439.67676,256.07617 h 25.13672 v 4.98047 h -19.21875 v 12.89063 h 17.34375 v 4.98046 h -17.34375 v 20.88868 h -5.91797 z"
           style="text-align:center;text-anchor:middle"
           id="path4539" />
        <path
           d="m 491.94238,260.08984 q -6.44531,0 -10.2539,4.80469 -3.7793,4.80469 -3.7793,13.0957 0,8.26172 3.7793,13.06641 3.80859,4.80469 10.2539,4.80469 6.44532,0 10.19532,-4.80469 3.77929,-4.80469 3.77929,-13.06641 0,-8.29101 -3.77929,-13.0957 -3.75,-4.80469 -10.19532,-4.80469 z m 0,-4.80468 q 9.19922,0 14.70703,6.18164 5.50782,6.15234 5.50782,16.52343 0,10.3418 -5.50782,16.52344 -5.50781,6.15235 -14.70703,6.15235 -9.22851,0 -14.76562,-6.15235 -5.50781,-6.15234 -5.50781,-16.52344 0,-10.37109 5.50781,-16.52343 5.53711,-6.18164 14.76562,-6.18164 z"
           style="text-align:center;text-anchor:middle"
           id="path4541" />
        <path
           d="m 542.15723,279.30859 q 1.90429,0.64453 3.6914,2.75391 1.81641,2.10937 3.63282,5.80078 l 6.00585,11.95313 h -6.35742 l -5.5957,-11.22071 q -2.16797,-4.39453 -4.21875,-5.83008 -2.02148,-1.43554 -5.53711,-1.43554 h -6.44531 v 18.48633 h -5.91797 v -43.74024 h 13.35937 q 7.5,0 11.19141,3.13477 3.69141,3.13476 3.69141,9.46289 0,4.13086 -1.9336,6.85547 -1.90429,2.72461 -5.5664,3.77929 z m -14.82422,-18.36914 v 15.52735 h 7.4414 q 4.27735,0 6.44532,-1.96289 2.19726,-1.99219 2.19726,-5.83008 0,-3.83789 -2.19726,-5.77149 -2.16797,-1.96289 -6.44532,-1.96289 z"
           style="text-align:center;text-anchor:middle"
           id="path4543" />
        <path
           d="M 2.0253906,331.07617 H 29.681641 v 4.98047 H 7.9433594 v 12.94922 H 28.773437 v 4.98047 H 7.9433594 v 15.84961 H 30.208984 v 4.98047 H 2.0253906 Z"
           style="text-align:center;text-anchor:middle"
           id="path4545" />
        <path
           d="m 54.554687,336.90625 -8.027343,21.76758 h 16.083984 z m -3.339843,-5.83008 h 6.708984 L 74.59375,374.81641 H 68.441406 L 64.457031,363.5957 H 44.740234 l -3.984375,11.22071 h -6.240234 z"
           style="text-align:center;text-anchor:middle"
           id="path4547" />
        <path
           d="m 70.257812,331.07617 h 37.001958 v 4.98047 H 91.732422 v 38.75977 H 85.785156 V 336.05664 H 70.257812 Z"
           style="text-align:center;text-anchor:middle"
           id="path4549" />
        <path
           d="m 112.97266,331.07617 h 5.91797 v 43.74024 h -5.91797 z"
           style="text-align:center;text-anchor:middle"
           id="path4551" />
        <path
           d="m 130.66797,331.07617 h 7.96875 l 19.39453,36.5918 v -36.5918 h 5.74219 v 43.74024 h -7.96875 l -19.39453,-36.5918 v 36.5918 h -5.74219 z"
           style="text-align:center;text-anchor:middle"
           id="path4553" />
        <path
           d="m 205.375,368.57617 v -11.74805 h -9.66797 v -4.86328 h 15.52734 v 18.7793 q -3.42773,2.43164 -7.55859,3.69141 -4.13086,1.23047 -8.81836,1.23047 -10.2539,0 -16.05469,-5.97657 -5.77148,-6.00586 -5.77148,-16.69922 0,-10.72265 5.77148,-16.69921 5.80079,-6.00586 16.05469,-6.00586 4.27735,0 8.11524,1.05468 3.86718,1.05469 7.11914,3.10547 v 6.29883 q -3.28125,-2.7832 -6.97266,-4.18945 -3.69141,-1.40625 -7.76367,-1.40625 -8.02735,0 -12.07031,4.48242 -4.01368,4.48242 -4.01368,13.35937 0,8.84766 4.01368,13.33008 4.04296,4.48242 12.07031,4.48242 3.13476,0 5.5957,-0.52734 2.46094,-0.55664 4.42383,-1.69922 z"
           style="text-align:center;text-anchor:middle"
           id="path4555" />
        <path
           d="m 273.87109,334.44531 v 6.24024 q -2.98828,-2.78321 -6.38672,-4.16016 -3.36914,-1.37695 -7.17773,-1.37695 -7.5,0 -11.48437,4.59961 -3.98438,4.57031 -3.98438,13.24218 0,8.64258 3.98438,13.24219 3.98437,4.57031 11.48437,4.57031 3.80859,0 7.17773,-1.37695 3.39844,-1.37695 6.38672,-4.16016 v 6.18165 q -3.10547,2.10937 -6.59179,3.16406 -3.45703,1.05469 -7.32422,1.05469 -9.93164,0 -15.64453,-6.06446 -5.71289,-6.09375 -5.71289,-16.61133 0,-10.54687 5.71289,-16.61132 5.71289,-6.09375 15.64453,-6.09375 3.92578,0 7.38281,1.05468 3.48633,1.02539 6.5332,3.10547 z"
           style="text-align:center;text-anchor:middle"
           id="path4557" />
        <path
           d="m 282.33789,331.07617 h 5.94727 v 26.57227 q 0,7.03125 2.54882,10.13672 2.54883,3.07617 8.26172,3.07617 5.6836,0 8.23242,-3.07617 2.54883,-3.10547 2.54883,-10.13672 v -26.57227 h 5.94727 v 27.30469 q 0,8.55469 -4.24805,12.91992 -4.21875,4.36524 -12.48047,4.36524 -8.29101,0 -12.53906,-4.36524 -4.21875,-4.36523 -4.21875,-12.91992 z"
           style="text-align:center;text-anchor:middle"
           id="path4559" />
        <path
           d="m 353.14844,332.51172 v 5.77148 q -3.36914,-1.61133 -6.35742,-2.40234 -2.98829,-0.79102 -5.77149,-0.79102 -4.83398,0 -7.4707,1.875 -2.60742,1.875 -2.60742,5.33203 0,2.9004 1.72851,4.39454 1.75781,1.46484 6.6211,2.37304 l 3.57421,0.73242 q 6.6211,1.25977 9.75586,4.45313 3.16407,3.16406 3.16407,8.49609 0,6.35743 -4.27735,9.63868 -4.24804,3.28125 -12.48047,3.28125 -3.10547,0 -6.62109,-0.70313 -3.48633,-0.70312 -7.23633,-2.08008 v -6.09375 q 3.60352,2.02149 7.06055,3.04688 3.45703,1.02539 6.79687,1.02539 5.06836,0 7.82227,-1.99219 2.75391,-1.99219 2.75391,-5.68359 0,-3.22266 -1.99219,-5.03907 -1.96289,-1.8164 -6.47461,-2.72461 l -3.60352,-0.70312 q -6.62109,-1.31836 -9.58008,-4.13086 -2.95898,-2.8125 -2.95898,-7.82227 0,-5.80078 4.07227,-9.14062 4.10156,-3.33984 11.27929,-3.33984 3.07617,0 6.26953,0.55664 3.19336,0.55664 6.53321,1.66992 z"
           style="text-align:center;text-anchor:middle"
           id="path4561" />
        <path
           d="m 358.94922,331.07617 h 37.00195 v 4.98047 h -15.52734 v 38.75977 h -5.94727 v -38.75977 h -15.52734 z"
           style="text-align:center;text-anchor:middle"
           id="path4563" />
        <path
           d="m 419.41797,335.08984 q -6.44531,0 -10.25391,4.80469 -3.77929,4.80469 -3.77929,13.0957 0,8.26172 3.77929,13.06641 3.8086,4.80469 10.25391,4.80469 6.44531,0 10.19531,-4.80469 3.7793,-4.80469 3.7793,-13.06641 0,-8.29101 -3.7793,-13.0957 -3.75,-4.80469 -10.19531,-4.80469 z m 0,-4.80468 q 9.19922,0 14.70703,6.18164 5.50781,6.15234 5.50781,16.52343 0,10.3418 -5.50781,16.52344 -5.50781,6.15235 -14.70703,6.15235 -9.22852,0 -14.76563,-6.15235 -5.50781,-6.15234 -5.50781,-16.52344 0,-10.37109 5.50781,-16.52343 5.53711,-6.18164 14.76563,-6.18164 z"
           style="text-align:center;text-anchor:middle"
           id="path4565" />
        <path
           d="m 448.89062,331.07617 h 8.81836 l 11.16211,29.76563 11.22071,-29.76563 h 8.81836 v 43.74024 h -5.77149 V 336.4082 l -11.2793,30 h -5.94726 l -11.2793,-30 v 38.40821 h -5.74219 z"
           style="text-align:center;text-anchor:middle"
           id="path4567" />
        <path
           d="m 500.6582,331.07617 h 27.65625 v 4.98047 h -21.73828 v 12.94922 h 20.83008 v 4.98047 h -20.83008 v 15.84961 h 22.26563 v 4.98047 h -28.1836 z"
           style="text-align:center;text-anchor:middle"
           id="path4569" />
        <path
           d="m 559.31055,354.30859 q 1.90429,0.64453 3.6914,2.75391 1.81641,2.10937 3.63282,5.80078 l 6.00585,11.95313 h -6.35742 l -5.5957,-11.22071 q -2.16797,-4.39453 -4.21875,-5.83008 -2.02148,-1.43554 -5.53711,-1.43554 h -6.44531 v 18.48633 h -5.91797 v -43.74024 h 13.35937 q 7.5,0 11.19141,3.13477 3.69141,3.13476 3.69141,9.46289 0,4.13086 -1.9336,6.85547 -1.90429,2.72461 -5.5664,3.77929 z m -14.82422,-18.36914 v 15.52735 h 7.4414 q 4.27735,0 6.44532,-1.96289 2.19726,-1.99219 2.19726,-5.83008 0,-3.83789 -2.19726,-5.77149 -2.16797,-1.96289 -6.44532,-1.96289 z"
           style="text-align:center;text-anchor:middle"
           id="path4571" />
        <path
           d="m 606.47852,332.51172 v 5.77148 q -3.36915,-1.61133 -6.35743,-2.40234 -2.98828,-0.79102 -5.77148,-0.79102 -4.83399,0 -7.4707,1.875 -2.60743,1.875 -2.60743,5.33203 0,2.9004 1.72852,4.39454 1.75781,1.46484 6.62109,2.37304 l 3.57422,0.73242 q 6.6211,1.25977 9.75586,4.45313 3.16406,3.16406 3.16406,8.49609 0,6.35743 -4.27734,9.63868 -4.24805,3.28125 -12.48047,3.28125 -3.10547,0 -6.62109,-0.70313 Q 582.25,374.25977 578.5,372.88281 v -6.09375 q 3.60352,2.02149 7.06055,3.04688 3.45703,1.02539 6.79687,1.02539 5.06836,0 7.82227,-1.99219 2.7539,-1.99219 2.7539,-5.68359 0,-3.22266 -1.99218,-5.03907 -1.96289,-1.8164 -6.47461,-2.72461 l -3.60352,-0.70312 q -6.62109,-1.31836 -9.58008,-4.13086 -2.95898,-2.8125 -2.95898,-7.82227 0,-5.80078 4.07226,-9.14062 4.10157,-3.33984 11.2793,-3.33984 3.07617,0 6.26953,0.55664 3.19336,0.55664 6.53321,1.66992 z"
           style="text-align:center;text-anchor:middle"
           id="path4573" />
        <path
           d="m 250.8291,410.08984 q -6.44531,0 -10.2539,4.80469 -3.7793,4.80469 -3.7793,13.0957 0,8.26172 3.7793,13.06641 3.80859,4.80469 10.2539,4.80469 6.44531,0 10.19531,-4.80469 3.7793,-4.80469 3.7793,-13.06641 0,-8.29101 -3.7793,-13.0957 -3.75,-4.80469 -10.19531,-4.80469 z m 0,-4.80468 q 9.19922,0 14.70703,6.18164 5.50782,6.15234 5.50782,16.52343 0,10.3418 -5.50782,16.52344 -5.50781,6.15235 -14.70703,6.15235 -9.22851,0 -14.76562,-6.15235 -5.50782,-6.15234 -5.50782,-16.52344 0,-10.37109 5.50782,-16.52343 5.53711,-6.18164 14.76562,-6.18164 z"
           style="text-align:center;text-anchor:middle"
           id="path4575" />
        <path
           d="m 280.30176,406.07617 h 7.96875 l 19.39453,36.5918 v -36.5918 h 5.74219 v 43.74024 h -7.96875 l -19.39453,-36.5918 v 36.5918 h -5.74219 z"
           style="text-align:center;text-anchor:middle"
           id="path4577" />
        <path
           d="m 325.18457,406.07617 h 5.91797 v 38.75977 h 21.29883 v 4.98047 h -27.2168 z"
           style="text-align:center;text-anchor:middle"
           id="path4579" />
        <path
           d="m 344.6377,406.07617 h 6.35742 l 12.1289,17.98828 12.04102,-17.98828 h 6.35742 l -15.46875,22.91016 v 20.83008 h -5.94726 v -20.83008 z"
           style="text-align:center;text-anchor:middle"
           id="path4581" />
      </g>
      <g
         aria-label="NO HECKING
ALLOWED"
         transform="matrix(0.35516181,0,0,0.35516181,-28.509123,37.035596)"
         id="text2404-6"
         style="font-size:60px;line-height:1.25;-inkscape-font-specification:sans-serif;white-space:pre;shape-inside:url(#rect2406-3)">
        <path
           d="m 117.92383,256.07617 h 7.96875 l 19.39453,36.5918 v -36.5918 h 5.74219 v 43.74024 h -7.96875 l -19.39453,-36.5918 v 36.5918 h -5.74219 z"
           style="text-align:center;text-anchor:middle;fill:#ff0000"
           id="path4584" />
        <path
           d="m 180.56055,260.08984 q -6.44532,0 -10.25391,4.80469 -3.7793,4.80469 -3.7793,13.0957 0,8.26172 3.7793,13.06641 3.80859,4.80469 10.25391,4.80469 6.44531,0 10.19531,-4.80469 3.7793,-4.80469 3.7793,-13.06641 0,-8.29101 -3.7793,-13.0957 -3.75,-4.80469 -10.19531,-4.80469 z m 0,-4.80468 q 9.19922,0 14.70703,6.18164 5.50781,6.15234 5.50781,16.52343 0,10.3418 -5.50781,16.52344 -5.50781,6.15235 -14.70703,6.15235 -9.22852,0 -14.76563,-6.15235 -5.50781,-6.15234 -5.50781,-16.52344 0,-10.37109 5.50781,-16.52343 5.53711,-6.18164 14.76563,-6.18164 z"
           style="text-align:center;text-anchor:middle;fill:#ff0000"
           id="path4586" />
        <path
           d="m 229.10547,256.07617 h 5.91797 v 17.92969 h 21.5039 v -17.92969 h 5.91797 v 43.74024 h -5.91797 v -20.83008 h -21.5039 v 20.83008 h -5.91797 z"
           style="text-align:center;text-anchor:middle;fill:#ff0000"
           id="path4588" />
        <path
           d="m 274.22266,256.07617 h 27.65625 v 4.98047 h -21.73829 v 12.94922 h 20.83008 v 4.98047 h -20.83008 v 15.84961 h 22.26563 v 4.98047 h -28.18359 z"
           style="text-align:center;text-anchor:middle;fill:#ff0000"
           id="path4590" />
        <path
           d="m 344.88672,259.44531 v 6.24024 q -2.98828,-2.78321 -6.38672,-4.16016 -3.36914,-1.37695 -7.17773,-1.37695 -7.5,0 -11.48438,4.59961 -3.98437,4.57031 -3.98437,13.24218 0,8.64258 3.98437,13.24219 3.98438,4.57031 11.48438,4.57031 3.80859,0 7.17773,-1.37695 3.39844,-1.37695 6.38672,-4.16016 v 6.18165 q -3.10547,2.10937 -6.5918,3.16406 -3.45703,1.05469 -7.32422,1.05469 -9.93164,0 -15.64453,-6.06446 -5.71289,-6.09375 -5.71289,-16.61133 0,-10.54687 5.71289,-16.61132 5.71289,-6.09375 15.64453,-6.09375 3.92578,0 7.38282,1.05468 3.48632,1.02539 6.5332,3.10547 z"
           style="text-align:center;text-anchor:middle;fill:#ff0000"
           id="path4592" />
        <path
           d="m 354.02734,256.07617 h 5.91797 v 18.48633 l 19.62891,-18.48633 h 7.61719 l -21.70899,20.39063 23.26172,23.34961 h -7.79297 l -21.00586,-21.06446 v 21.06446 h -5.91797 z"
           style="text-align:center;text-anchor:middle;fill:#ff0000"
           id="path4594" />
        <path
           d="m 393.37305,256.07617 h 5.91797 v 43.74024 h -5.91797 z"
           style="text-align:center;text-anchor:middle;fill:#ff0000"
           id="path4596" />
        <path
           d="m 411.06836,256.07617 h 7.96875 l 19.39453,36.5918 v -36.5918 h 5.74219 v 43.74024 h -7.96875 l -19.39453,-36.5918 v 36.5918 h -5.74219 z"
           style="text-align:center;text-anchor:middle;fill:#ff0000"
           id="path4598" />
        <path
           d="m 485.77539,293.57617 v -11.74805 h -9.66797 v -4.86328 h 15.52735 v 18.7793 q -3.42774,2.43164 -7.5586,3.69141 -4.13086,1.23047 -8.81836,1.23047 -10.2539,0 -16.05469,-5.97657 -5.77148,-6.00586 -5.77148,-16.69922 0,-10.72265 5.77148,-16.69921 5.80079,-6.00586 16.05469,-6.00586 4.27735,0 8.11524,1.05468 3.86718,1.05469 7.11914,3.10547 v 6.29883 q -3.28125,-2.7832 -6.97266,-4.18945 -3.69141,-1.40625 -7.76367,-1.40625 -8.02734,0 -12.07031,4.48242 -4.01368,4.48242 -4.01368,13.35937 0,8.84766 4.01368,13.33008 4.04297,4.48242 12.07031,4.48242 3.13476,0 5.5957,-0.52734 2.46094,-0.55664 4.42383,-1.69922 z"
           style="text-align:center;text-anchor:middle;fill:#ff0000"
           id="path4600" />
        <path
           d="m 176.59082,336.90625 -8.02734,21.76758 h 16.08398 z m -3.33984,-5.83008 h 6.70898 l 16.66992,43.74024 h -6.15234 l -3.98438,-11.22071 h -19.71679 l -3.98438,11.22071 h -6.24023 z"
           style="text-align:center;text-anchor:middle;fill:#ff0000"
           id="path4602" />
        <path
           d="m 203.0166,331.07617 h 5.91797 v 38.75977 h 21.29883 v 4.98047 h -27.2168 z"
           style="text-align:center;text-anchor:middle;fill:#ff0000"
           id="path4604" />
        <path
           d="m 236.44434,331.07617 h 5.91796 v 38.75977 h 21.29883 v 4.98047 h -27.21679 z"
           style="text-align:center;text-anchor:middle;fill:#ff0000"
           id="path4606" />
        <path
           d="m 285.4873,335.08984 q -6.44531,0 -10.2539,4.80469 -3.7793,4.80469 -3.7793,13.0957 0,8.26172 3.7793,13.06641 3.80859,4.80469 10.2539,4.80469 6.44532,0 10.19532,-4.80469 3.77929,-4.80469 3.77929,-13.06641 0,-8.29101 -3.77929,-13.0957 -3.75,-4.80469 -10.19532,-4.80469 z m 0,-4.80468 q 9.19922,0 14.70704,6.18164 5.50781,6.15234 5.50781,16.52343 0,10.3418 -5.50781,16.52344 -5.50782,6.15235 -14.70704,6.15235 -9.22851,0 -14.76562,-6.15235 -5.50781,-6.15234 -5.50781,-16.52344 0,-10.37109 5.50781,-16.52343 5.53711,-6.18164 14.76562,-6.18164 z"
           style="text-align:center;text-anchor:middle;fill:#ff0000"
           id="path4608" />
        <path
           d="m 311.06348,331.07617 h 5.97656 l 9.19922,36.97266 9.16992,-36.97266 h 6.65039 l 9.19922,36.97266 9.16992,-36.97266 h 6.00586 l -10.98633,43.74024 h -7.4414 l -9.22852,-37.96875 -9.31641,37.96875 h -7.4414 z"
           style="text-align:center;text-anchor:middle;fill:#ff0000"
           id="path4610" />
        <path
           d="m 374.28613,331.07617 h 27.65625 v 4.98047 H 380.2041 v 12.94922 h 20.83008 v 4.98047 H 380.2041 v 15.84961 h 22.26563 v 4.98047 h -28.1836 z"
           style="text-align:center;text-anchor:middle;fill:#ff0000"
           id="path4612" />
        <path
           d="m 418.11426,335.93945 v 34.01367 h 7.14844 q 9.05273,0 13.24218,-4.10156 4.21875,-4.10156 4.21875,-12.94922 0,-8.78906 -4.21875,-12.86132 -4.18945,-4.10157 -13.24218,-4.10157 z m -5.91797,-4.86328 h 12.1582 q 12.71485,0 18.66211,5.30274 5.94727,5.27343 5.94727,16.52343 0,11.3086 -5.97657,16.61133 -5.97656,5.30274 -18.63281,5.30274 h -12.1582 z"
           style="text-align:center;text-anchor:middle;fill:#ff0000"
           id="path4614" />
      </g>
    </g>
  </g>
</svg>
